<?xml version="1.0" encoding="utf-8" standalone="no"?>
<!DOCTYPE svg PUBLIC "-//W3C//DTD SVG 1.1//EN"
  "http://www.w3.org/Graphics/SVG/1.1/DTD/svg11.dtd">
<svg xmlns:xlink="http://www.w3.org/1999/xlink" width="995.965063pt" height="495.689375pt" viewBox="0 0 995.965063 495.689375" xmlns="http://www.w3.org/2000/svg" version="1.1">
 <metadata>
  <rdf:RDF xmlns:dc="http://purl.org/dc/elements/1.1/" xmlns:cc="http://creativecommons.org/ns#" xmlns:rdf="http://www.w3.org/1999/02/22-rdf-syntax-ns#">
   <cc:Work>
    <dc:type rdf:resource="http://purl.org/dc/dcmitype/StillImage"/>
    <dc:date>2024-12-13T00:16:29.384701</dc:date>
    <dc:format>image/svg+xml</dc:format>
    <dc:creator>
     <cc:Agent>
      <dc:title>Matplotlib v3.9.2, https://matplotlib.org/</dc:title>
     </cc:Agent>
    </dc:creator>
   </cc:Work>
  </rdf:RDF>
 </metadata>
 <defs>
  <style type="text/css">*{stroke-linejoin: round; stroke-linecap: butt}</style>
 </defs>
 <g id="figure_1">
  <g id="patch_1">
   <path d="M 0 495.689375 
L 995.965063 495.689375 
L 995.965063 0 
L 0 0 
z
" style="fill: #ffffff"/>
  </g>
  <g id="axes_1">
   <g id="patch_2">
    <path d="M 45.716875 456.1975 
L 757.186875 456.1975 
L 757.186875 25.3575 
L 45.716875 25.3575 
z
" style="fill: #ffffff"/>
   </g>
   <g id="PolyCollection_1"/>
   <g id="PolyCollection_2"/>
   <g id="PolyCollection_3"/>
   <g id="PolyCollection_4"/>
   <g id="matplotlib.axis_1">
    <g id="xtick_1">
     <g id="line2d_1">
      <defs>
       <path id="m6c23abd5a9" d="M 0 0 
L 0 3.5 
" style="stroke: #000000; stroke-width: 0.8"/>
      </defs>
      <g>
       <use xlink:href="#m6c23abd5a9" x="78.05642" y="456.1975" style="stroke: #000000; stroke-width: 0.8"/>
      </g>
     </g>
     <g id="text_1">
      <!-- 0 -->
      <g transform="translate(74.87517 470.795937) scale(0.1 -0.1)">
       <defs>
        <path id="DejaVuSans-30" d="M 2034 4250 
Q 1547 4250 1301 3770 
Q 1056 3291 1056 2328 
Q 1056 1369 1301 889 
Q 1547 409 2034 409 
Q 2525 409 2770 889 
Q 3016 1369 3016 2328 
Q 3016 3291 2770 3770 
Q 2525 4250 2034 4250 
z
M 2034 4750 
Q 2819 4750 3233 4129 
Q 3647 3509 3647 2328 
Q 3647 1150 3233 529 
Q 2819 -91 2034 -91 
Q 1250 -91 836 529 
Q 422 1150 422 2328 
Q 422 3509 836 4129 
Q 1250 4750 2034 4750 
z
" transform="scale(0.015625)"/>
       </defs>
       <use xlink:href="#DejaVuSans-30"/>
      </g>
     </g>
    </g>
    <g id="xtick_2">
     <g id="line2d_2">
      <g>
       <use xlink:href="#m6c23abd5a9" x="207.414602" y="456.1975" style="stroke: #000000; stroke-width: 0.8"/>
      </g>
     </g>
     <g id="text_2">
      <!-- 5000 -->
      <g transform="translate(194.689602 470.795937) scale(0.1 -0.1)">
       <defs>
        <path id="DejaVuSans-35" d="M 691 4666 
L 3169 4666 
L 3169 4134 
L 1269 4134 
L 1269 2991 
Q 1406 3038 1543 3061 
Q 1681 3084 1819 3084 
Q 2600 3084 3056 2656 
Q 3513 2228 3513 1497 
Q 3513 744 3044 326 
Q 2575 -91 1722 -91 
Q 1428 -91 1123 -41 
Q 819 9 494 109 
L 494 744 
Q 775 591 1075 516 
Q 1375 441 1709 441 
Q 2250 441 2565 725 
Q 2881 1009 2881 1497 
Q 2881 1984 2565 2268 
Q 2250 2553 1709 2553 
Q 1456 2553 1204 2497 
Q 953 2441 691 2322 
L 691 4666 
z
" transform="scale(0.015625)"/>
       </defs>
       <use xlink:href="#DejaVuSans-35"/>
       <use xlink:href="#DejaVuSans-30" x="63.623047"/>
       <use xlink:href="#DejaVuSans-30" x="127.246094"/>
       <use xlink:href="#DejaVuSans-30" x="190.869141"/>
      </g>
     </g>
    </g>
    <g id="xtick_3">
     <g id="line2d_3">
      <g>
       <use xlink:href="#m6c23abd5a9" x="336.772784" y="456.1975" style="stroke: #000000; stroke-width: 0.8"/>
      </g>
     </g>
     <g id="text_3">
      <!-- 10000 -->
      <g transform="translate(320.866534 470.795937) scale(0.1 -0.1)">
       <defs>
        <path id="DejaVuSans-31" d="M 794 531 
L 1825 531 
L 1825 4091 
L 703 3866 
L 703 4441 
L 1819 4666 
L 2450 4666 
L 2450 531 
L 3481 531 
L 3481 0 
L 794 0 
L 794 531 
z
" transform="scale(0.015625)"/>
       </defs>
       <use xlink:href="#DejaVuSans-31"/>
       <use xlink:href="#DejaVuSans-30" x="63.623047"/>
       <use xlink:href="#DejaVuSans-30" x="127.246094"/>
       <use xlink:href="#DejaVuSans-30" x="190.869141"/>
       <use xlink:href="#DejaVuSans-30" x="254.492188"/>
      </g>
     </g>
    </g>
    <g id="xtick_4">
     <g id="line2d_4">
      <g>
       <use xlink:href="#m6c23abd5a9" x="466.130966" y="456.1975" style="stroke: #000000; stroke-width: 0.8"/>
      </g>
     </g>
     <g id="text_4">
      <!-- 15000 -->
      <g transform="translate(450.224716 470.795937) scale(0.1 -0.1)">
       <use xlink:href="#DejaVuSans-31"/>
       <use xlink:href="#DejaVuSans-35" x="63.623047"/>
       <use xlink:href="#DejaVuSans-30" x="127.246094"/>
       <use xlink:href="#DejaVuSans-30" x="190.869141"/>
       <use xlink:href="#DejaVuSans-30" x="254.492188"/>
      </g>
     </g>
    </g>
    <g id="xtick_5">
     <g id="line2d_5">
      <g>
       <use xlink:href="#m6c23abd5a9" x="595.489148" y="456.1975" style="stroke: #000000; stroke-width: 0.8"/>
      </g>
     </g>
     <g id="text_5">
      <!-- 20000 -->
      <g transform="translate(579.582898 470.795937) scale(0.1 -0.1)">
       <defs>
        <path id="DejaVuSans-32" d="M 1228 531 
L 3431 531 
L 3431 0 
L 469 0 
L 469 531 
Q 828 903 1448 1529 
Q 2069 2156 2228 2338 
Q 2531 2678 2651 2914 
Q 2772 3150 2772 3378 
Q 2772 3750 2511 3984 
Q 2250 4219 1831 4219 
Q 1534 4219 1204 4116 
Q 875 4013 500 3803 
L 500 4441 
Q 881 4594 1212 4672 
Q 1544 4750 1819 4750 
Q 2544 4750 2975 4387 
Q 3406 4025 3406 3419 
Q 3406 3131 3298 2873 
Q 3191 2616 2906 2266 
Q 2828 2175 2409 1742 
Q 1991 1309 1228 531 
z
" transform="scale(0.015625)"/>
       </defs>
       <use xlink:href="#DejaVuSans-32"/>
       <use xlink:href="#DejaVuSans-30" x="63.623047"/>
       <use xlink:href="#DejaVuSans-30" x="127.246094"/>
       <use xlink:href="#DejaVuSans-30" x="190.869141"/>
       <use xlink:href="#DejaVuSans-30" x="254.492188"/>
      </g>
     </g>
    </g>
    <g id="xtick_6">
     <g id="line2d_6">
      <g>
       <use xlink:href="#m6c23abd5a9" x="724.84733" y="456.1975" style="stroke: #000000; stroke-width: 0.8"/>
      </g>
     </g>
     <g id="text_6">
      <!-- 25000 -->
      <g transform="translate(708.94108 470.795937) scale(0.1 -0.1)">
       <use xlink:href="#DejaVuSans-32"/>
       <use xlink:href="#DejaVuSans-35" x="63.623047"/>
       <use xlink:href="#DejaVuSans-30" x="127.246094"/>
       <use xlink:href="#DejaVuSans-30" x="190.869141"/>
       <use xlink:href="#DejaVuSans-30" x="254.492188"/>
      </g>
     </g>
    </g>
    <g id="text_7">
     <!-- Iteration -->
     <g transform="translate(376.001563 485.99375) scale(0.12 -0.12)">
      <defs>
       <path id="DejaVuSans-49" d="M 628 4666 
L 1259 4666 
L 1259 0 
L 628 0 
L 628 4666 
z
" transform="scale(0.015625)"/>
       <path id="DejaVuSans-74" d="M 1172 4494 
L 1172 3500 
L 2356 3500 
L 2356 3053 
L 1172 3053 
L 1172 1153 
Q 1172 725 1289 603 
Q 1406 481 1766 481 
L 2356 481 
L 2356 0 
L 1766 0 
Q 1100 0 847 248 
Q 594 497 594 1153 
L 594 3053 
L 172 3053 
L 172 3500 
L 594 3500 
L 594 4494 
L 1172 4494 
z
" transform="scale(0.015625)"/>
       <path id="DejaVuSans-65" d="M 3597 1894 
L 3597 1613 
L 953 1613 
Q 991 1019 1311 708 
Q 1631 397 2203 397 
Q 2534 397 2845 478 
Q 3156 559 3463 722 
L 3463 178 
Q 3153 47 2828 -22 
Q 2503 -91 2169 -91 
Q 1331 -91 842 396 
Q 353 884 353 1716 
Q 353 2575 817 3079 
Q 1281 3584 2069 3584 
Q 2775 3584 3186 3129 
Q 3597 2675 3597 1894 
z
M 3022 2063 
Q 3016 2534 2758 2815 
Q 2500 3097 2075 3097 
Q 1594 3097 1305 2825 
Q 1016 2553 972 2059 
L 3022 2063 
z
" transform="scale(0.015625)"/>
       <path id="DejaVuSans-72" d="M 2631 2963 
Q 2534 3019 2420 3045 
Q 2306 3072 2169 3072 
Q 1681 3072 1420 2755 
Q 1159 2438 1159 1844 
L 1159 0 
L 581 0 
L 581 3500 
L 1159 3500 
L 1159 2956 
Q 1341 3275 1631 3429 
Q 1922 3584 2338 3584 
Q 2397 3584 2469 3576 
Q 2541 3569 2628 3553 
L 2631 2963 
z
" transform="scale(0.015625)"/>
       <path id="DejaVuSans-61" d="M 2194 1759 
Q 1497 1759 1228 1600 
Q 959 1441 959 1056 
Q 959 750 1161 570 
Q 1363 391 1709 391 
Q 2188 391 2477 730 
Q 2766 1069 2766 1631 
L 2766 1759 
L 2194 1759 
z
M 3341 1997 
L 3341 0 
L 2766 0 
L 2766 531 
Q 2569 213 2275 61 
Q 1981 -91 1556 -91 
Q 1019 -91 701 211 
Q 384 513 384 1019 
Q 384 1609 779 1909 
Q 1175 2209 1959 2209 
L 2766 2209 
L 2766 2266 
Q 2766 2663 2505 2880 
Q 2244 3097 1772 3097 
Q 1472 3097 1187 3025 
Q 903 2953 641 2809 
L 641 3341 
Q 956 3463 1253 3523 
Q 1550 3584 1831 3584 
Q 2591 3584 2966 3190 
Q 3341 2797 3341 1997 
z
" transform="scale(0.015625)"/>
       <path id="DejaVuSans-69" d="M 603 3500 
L 1178 3500 
L 1178 0 
L 603 0 
L 603 3500 
z
M 603 4863 
L 1178 4863 
L 1178 4134 
L 603 4134 
L 603 4863 
z
" transform="scale(0.015625)"/>
       <path id="DejaVuSans-6f" d="M 1959 3097 
Q 1497 3097 1228 2736 
Q 959 2375 959 1747 
Q 959 1119 1226 758 
Q 1494 397 1959 397 
Q 2419 397 2687 759 
Q 2956 1122 2956 1747 
Q 2956 2369 2687 2733 
Q 2419 3097 1959 3097 
z
M 1959 3584 
Q 2709 3584 3137 3096 
Q 3566 2609 3566 1747 
Q 3566 888 3137 398 
Q 2709 -91 1959 -91 
Q 1206 -91 779 398 
Q 353 888 353 1747 
Q 353 2609 779 3096 
Q 1206 3584 1959 3584 
z
" transform="scale(0.015625)"/>
       <path id="DejaVuSans-6e" d="M 3513 2113 
L 3513 0 
L 2938 0 
L 2938 2094 
Q 2938 2591 2744 2837 
Q 2550 3084 2163 3084 
Q 1697 3084 1428 2787 
Q 1159 2491 1159 1978 
L 1159 0 
L 581 0 
L 581 3500 
L 1159 3500 
L 1159 2956 
Q 1366 3272 1645 3428 
Q 1925 3584 2291 3584 
Q 2894 3584 3203 3211 
Q 3513 2838 3513 2113 
z
" transform="scale(0.015625)"/>
      </defs>
      <use xlink:href="#DejaVuSans-49"/>
      <use xlink:href="#DejaVuSans-74" x="29.492188"/>
      <use xlink:href="#DejaVuSans-65" x="68.701172"/>
      <use xlink:href="#DejaVuSans-72" x="130.224609"/>
      <use xlink:href="#DejaVuSans-61" x="171.337891"/>
      <use xlink:href="#DejaVuSans-74" x="232.617188"/>
      <use xlink:href="#DejaVuSans-69" x="271.826172"/>
      <use xlink:href="#DejaVuSans-6f" x="299.609375"/>
      <use xlink:href="#DejaVuSans-6e" x="360.791016"/>
     </g>
    </g>
   </g>
   <g id="matplotlib.axis_2">
    <g id="ytick_1">
     <g id="line2d_7">
      <path d="M 45.716875 416.371972 
L 757.186875 416.371972 
" clip-path="url(#pe3a5f8d843)" style="fill: none; stroke-dasharray: 2.96,1.28; stroke-dashoffset: 0; stroke: #b0b0b0; stroke-opacity: 0.7; stroke-width: 0.8"/>
     </g>
     <g id="line2d_8">
      <defs>
       <path id="mfdcf51694a" d="M 0 0 
L -3.5 0 
" style="stroke: #000000; stroke-width: 0.8"/>
      </defs>
      <g>
       <use xlink:href="#mfdcf51694a" x="45.716875" y="416.371972" style="stroke: #000000; stroke-width: 0.8"/>
      </g>
     </g>
     <g id="text_8">
      <!-- 0.5 -->
      <g transform="translate(22.81375 420.171191) scale(0.1 -0.1)">
       <defs>
        <path id="DejaVuSans-2e" d="M 684 794 
L 1344 794 
L 1344 0 
L 684 0 
L 684 794 
z
" transform="scale(0.015625)"/>
       </defs>
       <use xlink:href="#DejaVuSans-30"/>
       <use xlink:href="#DejaVuSans-2e" x="63.623047"/>
       <use xlink:href="#DejaVuSans-35" x="95.410156"/>
      </g>
     </g>
    </g>
    <g id="ytick_2">
     <g id="line2d_9">
      <path d="M 45.716875 342.085716 
L 757.186875 342.085716 
" clip-path="url(#pe3a5f8d843)" style="fill: none; stroke-dasharray: 2.96,1.28; stroke-dashoffset: 0; stroke: #b0b0b0; stroke-opacity: 0.7; stroke-width: 0.8"/>
     </g>
     <g id="line2d_10">
      <g>
       <use xlink:href="#mfdcf51694a" x="45.716875" y="342.085716" style="stroke: #000000; stroke-width: 0.8"/>
      </g>
     </g>
     <g id="text_9">
      <!-- 0.6 -->
      <g transform="translate(22.81375 345.884935) scale(0.1 -0.1)">
       <defs>
        <path id="DejaVuSans-36" d="M 2113 2584 
Q 1688 2584 1439 2293 
Q 1191 2003 1191 1497 
Q 1191 994 1439 701 
Q 1688 409 2113 409 
Q 2538 409 2786 701 
Q 3034 994 3034 1497 
Q 3034 2003 2786 2293 
Q 2538 2584 2113 2584 
z
M 3366 4563 
L 3366 3988 
Q 3128 4100 2886 4159 
Q 2644 4219 2406 4219 
Q 1781 4219 1451 3797 
Q 1122 3375 1075 2522 
Q 1259 2794 1537 2939 
Q 1816 3084 2150 3084 
Q 2853 3084 3261 2657 
Q 3669 2231 3669 1497 
Q 3669 778 3244 343 
Q 2819 -91 2113 -91 
Q 1303 -91 875 529 
Q 447 1150 447 2328 
Q 447 3434 972 4092 
Q 1497 4750 2381 4750 
Q 2619 4750 2861 4703 
Q 3103 4656 3366 4563 
z
" transform="scale(0.015625)"/>
       </defs>
       <use xlink:href="#DejaVuSans-30"/>
       <use xlink:href="#DejaVuSans-2e" x="63.623047"/>
       <use xlink:href="#DejaVuSans-36" x="95.410156"/>
      </g>
     </g>
    </g>
    <g id="ytick_3">
     <g id="line2d_11">
      <path d="M 45.716875 267.799461 
L 757.186875 267.799461 
" clip-path="url(#pe3a5f8d843)" style="fill: none; stroke-dasharray: 2.96,1.28; stroke-dashoffset: 0; stroke: #b0b0b0; stroke-opacity: 0.7; stroke-width: 0.8"/>
     </g>
     <g id="line2d_12">
      <g>
       <use xlink:href="#mfdcf51694a" x="45.716875" y="267.799461" style="stroke: #000000; stroke-width: 0.8"/>
      </g>
     </g>
     <g id="text_10">
      <!-- 0.7 -->
      <g transform="translate(22.81375 271.598679) scale(0.1 -0.1)">
       <defs>
        <path id="DejaVuSans-37" d="M 525 4666 
L 3525 4666 
L 3525 4397 
L 1831 0 
L 1172 0 
L 2766 4134 
L 525 4134 
L 525 4666 
z
" transform="scale(0.015625)"/>
       </defs>
       <use xlink:href="#DejaVuSans-30"/>
       <use xlink:href="#DejaVuSans-2e" x="63.623047"/>
       <use xlink:href="#DejaVuSans-37" x="95.410156"/>
      </g>
     </g>
    </g>
    <g id="ytick_4">
     <g id="line2d_13">
      <path d="M 45.716875 193.513205 
L 757.186875 193.513205 
" clip-path="url(#pe3a5f8d843)" style="fill: none; stroke-dasharray: 2.96,1.28; stroke-dashoffset: 0; stroke: #b0b0b0; stroke-opacity: 0.7; stroke-width: 0.8"/>
     </g>
     <g id="line2d_14">
      <g>
       <use xlink:href="#mfdcf51694a" x="45.716875" y="193.513205" style="stroke: #000000; stroke-width: 0.8"/>
      </g>
     </g>
     <g id="text_11">
      <!-- 0.8 -->
      <g transform="translate(22.81375 197.312424) scale(0.1 -0.1)">
       <defs>
        <path id="DejaVuSans-38" d="M 2034 2216 
Q 1584 2216 1326 1975 
Q 1069 1734 1069 1313 
Q 1069 891 1326 650 
Q 1584 409 2034 409 
Q 2484 409 2743 651 
Q 3003 894 3003 1313 
Q 3003 1734 2745 1975 
Q 2488 2216 2034 2216 
z
M 1403 2484 
Q 997 2584 770 2862 
Q 544 3141 544 3541 
Q 544 4100 942 4425 
Q 1341 4750 2034 4750 
Q 2731 4750 3128 4425 
Q 3525 4100 3525 3541 
Q 3525 3141 3298 2862 
Q 3072 2584 2669 2484 
Q 3125 2378 3379 2068 
Q 3634 1759 3634 1313 
Q 3634 634 3220 271 
Q 2806 -91 2034 -91 
Q 1263 -91 848 271 
Q 434 634 434 1313 
Q 434 1759 690 2068 
Q 947 2378 1403 2484 
z
M 1172 3481 
Q 1172 3119 1398 2916 
Q 1625 2713 2034 2713 
Q 2441 2713 2670 2916 
Q 2900 3119 2900 3481 
Q 2900 3844 2670 4047 
Q 2441 4250 2034 4250 
Q 1625 4250 1398 4047 
Q 1172 3844 1172 3481 
z
" transform="scale(0.015625)"/>
       </defs>
       <use xlink:href="#DejaVuSans-30"/>
       <use xlink:href="#DejaVuSans-2e" x="63.623047"/>
       <use xlink:href="#DejaVuSans-38" x="95.410156"/>
      </g>
     </g>
    </g>
    <g id="ytick_5">
     <g id="line2d_15">
      <path d="M 45.716875 119.226949 
L 757.186875 119.226949 
" clip-path="url(#pe3a5f8d843)" style="fill: none; stroke-dasharray: 2.96,1.28; stroke-dashoffset: 0; stroke: #b0b0b0; stroke-opacity: 0.7; stroke-width: 0.8"/>
     </g>
     <g id="line2d_16">
      <g>
       <use xlink:href="#mfdcf51694a" x="45.716875" y="119.226949" style="stroke: #000000; stroke-width: 0.8"/>
      </g>
     </g>
     <g id="text_12">
      <!-- 0.9 -->
      <g transform="translate(22.81375 123.026168) scale(0.1 -0.1)">
       <defs>
        <path id="DejaVuSans-39" d="M 703 97 
L 703 672 
Q 941 559 1184 500 
Q 1428 441 1663 441 
Q 2288 441 2617 861 
Q 2947 1281 2994 2138 
Q 2813 1869 2534 1725 
Q 2256 1581 1919 1581 
Q 1219 1581 811 2004 
Q 403 2428 403 3163 
Q 403 3881 828 4315 
Q 1253 4750 1959 4750 
Q 2769 4750 3195 4129 
Q 3622 3509 3622 2328 
Q 3622 1225 3098 567 
Q 2575 -91 1691 -91 
Q 1453 -91 1209 -44 
Q 966 3 703 97 
z
M 1959 2075 
Q 2384 2075 2632 2365 
Q 2881 2656 2881 3163 
Q 2881 3666 2632 3958 
Q 2384 4250 1959 4250 
Q 1534 4250 1286 3958 
Q 1038 3666 1038 3163 
Q 1038 2656 1286 2365 
Q 1534 2075 1959 2075 
z
" transform="scale(0.015625)"/>
       </defs>
       <use xlink:href="#DejaVuSans-30"/>
       <use xlink:href="#DejaVuSans-2e" x="63.623047"/>
       <use xlink:href="#DejaVuSans-39" x="95.410156"/>
      </g>
     </g>
    </g>
    <g id="ytick_6">
     <g id="line2d_17">
      <path d="M 45.716875 44.940694 
L 757.186875 44.940694 
" clip-path="url(#pe3a5f8d843)" style="fill: none; stroke-dasharray: 2.96,1.28; stroke-dashoffset: 0; stroke: #b0b0b0; stroke-opacity: 0.7; stroke-width: 0.8"/>
     </g>
     <g id="line2d_18">
      <g>
       <use xlink:href="#mfdcf51694a" x="45.716875" y="44.940694" style="stroke: #000000; stroke-width: 0.8"/>
      </g>
     </g>
     <g id="text_13">
      <!-- 1.0 -->
      <g transform="translate(22.81375 48.739912) scale(0.1 -0.1)">
       <use xlink:href="#DejaVuSans-31"/>
       <use xlink:href="#DejaVuSans-2e" x="63.623047"/>
       <use xlink:href="#DejaVuSans-30" x="95.410156"/>
      </g>
     </g>
    </g>
    <g id="text_14">
     <!-- Credence -->
     <g transform="translate(16.318125 269.285) rotate(-90) scale(0.12 -0.12)">
      <defs>
       <path id="DejaVuSans-43" d="M 4122 4306 
L 4122 3641 
Q 3803 3938 3442 4084 
Q 3081 4231 2675 4231 
Q 1875 4231 1450 3742 
Q 1025 3253 1025 2328 
Q 1025 1406 1450 917 
Q 1875 428 2675 428 
Q 3081 428 3442 575 
Q 3803 722 4122 1019 
L 4122 359 
Q 3791 134 3420 21 
Q 3050 -91 2638 -91 
Q 1578 -91 968 557 
Q 359 1206 359 2328 
Q 359 3453 968 4101 
Q 1578 4750 2638 4750 
Q 3056 4750 3426 4639 
Q 3797 4528 4122 4306 
z
" transform="scale(0.015625)"/>
       <path id="DejaVuSans-64" d="M 2906 2969 
L 2906 4863 
L 3481 4863 
L 3481 0 
L 2906 0 
L 2906 525 
Q 2725 213 2448 61 
Q 2172 -91 1784 -91 
Q 1150 -91 751 415 
Q 353 922 353 1747 
Q 353 2572 751 3078 
Q 1150 3584 1784 3584 
Q 2172 3584 2448 3432 
Q 2725 3281 2906 2969 
z
M 947 1747 
Q 947 1113 1208 752 
Q 1469 391 1925 391 
Q 2381 391 2643 752 
Q 2906 1113 2906 1747 
Q 2906 2381 2643 2742 
Q 2381 3103 1925 3103 
Q 1469 3103 1208 2742 
Q 947 2381 947 1747 
z
" transform="scale(0.015625)"/>
       <path id="DejaVuSans-63" d="M 3122 3366 
L 3122 2828 
Q 2878 2963 2633 3030 
Q 2388 3097 2138 3097 
Q 1578 3097 1268 2742 
Q 959 2388 959 1747 
Q 959 1106 1268 751 
Q 1578 397 2138 397 
Q 2388 397 2633 464 
Q 2878 531 3122 666 
L 3122 134 
Q 2881 22 2623 -34 
Q 2366 -91 2075 -91 
Q 1284 -91 818 406 
Q 353 903 353 1747 
Q 353 2603 823 3093 
Q 1294 3584 2113 3584 
Q 2378 3584 2631 3529 
Q 2884 3475 3122 3366 
z
" transform="scale(0.015625)"/>
      </defs>
      <use xlink:href="#DejaVuSans-43"/>
      <use xlink:href="#DejaVuSans-72" x="69.824219"/>
      <use xlink:href="#DejaVuSans-65" x="108.6875"/>
      <use xlink:href="#DejaVuSans-64" x="170.210938"/>
      <use xlink:href="#DejaVuSans-65" x="233.6875"/>
      <use xlink:href="#DejaVuSans-6e" x="295.210938"/>
      <use xlink:href="#DejaVuSans-63" x="358.589844"/>
      <use xlink:href="#DejaVuSans-65" x="413.570312"/>
     </g>
    </g>
   </g>
   <g id="line2d_19">
    <path d="M 78.05642 431.538491 
L 78.082292 430.23665 
L 80.643584 419.250843 
L 83.230748 429.675957 
L 85.817911 435.715152 
L 88.405075 425.217533 
L 90.992239 376.051973 
L 93.579402 361.075938 
L 96.166566 288.074215 
L 98.75373 234.549215 
L 101.340893 223.517691 
L 103.928057 231.452364 
L 106.51522 211.771386 
L 109.102384 180.658656 
L 111.689548 208.504153 
L 114.276711 177.636545 
L 116.863875 173.001695 
L 119.451039 166.904695 
L 122.038202 155.501767 
L 124.625366 152.867355 
L 127.21253 134.538762 
L 129.799693 125.331362 
L 132.386857 127.032038 
L 134.97402 129.541231 
L 137.561184 128.860234 
L 140.148348 125.420316 
L 142.735511 132.179982 
L 145.322675 135.821409 
L 150.497002 111.936939 
L 153.084166 107.105893 
L 155.67133 119.213329 
L 158.258493 105.064851 
L 160.845657 93.825353 
L 163.43282 87.193961 
L 166.019984 81.787433 
L 168.607148 77.241405 
L 171.194311 71.599804 
L 173.781475 71.675387 
L 176.368639 74.4897 
L 178.955802 76.571168 
L 181.542966 78.284906 
L 184.13013 72.479122 
L 186.717293 69.07777 
L 189.304457 64.035296 
L 191.89162 63.052501 
L 194.478784 60.940747 
L 197.065948 61.782827 
L 199.653111 57.209701 
L 202.240275 58.401578 
L 204.827439 55.927541 
L 207.414602 58.886334 
L 210.001766 56.943413 
L 212.58893 56.87642 
L 215.176093 55.59001 
L 217.763257 54.067199 
L 220.35042 54.625412 
L 222.937584 54.218762 
L 225.524748 54.840028 
L 228.111911 52.864429 
L 230.699075 51.469183 
L 233.286239 50.337126 
L 235.873402 51.497964 
L 238.460566 51.117394 
L 241.04773 50.935589 
L 243.634893 48.472754 
L 246.222057 48.327965 
L 248.80922 48.548514 
L 251.396384 49.484065 
L 253.983548 47.830014 
L 256.570711 47.915958 
L 259.157875 47.393122 
L 261.745039 47.447097 
L 264.332202 47.663573 
L 266.919366 47.255241 
L 269.50653 46.97961 
L 274.680857 47.289733 
L 277.26802 47.614956 
L 279.855184 47.241204 
L 285.029511 46.921694 
L 287.616675 46.66249 
L 292.791002 46.768979 
L 295.378166 47.144723 
L 297.96533 46.708407 
L 300.552493 46.491311 
L 305.72682 46.640971 
L 308.313984 46.466604 
L 310.901148 46.481703 
L 313.488311 46.350374 
L 316.075475 45.874252 
L 318.662639 46.051364 
L 323.836966 45.685982 
L 329.011293 45.825502 
L 331.598457 45.58981 
L 339.359948 45.590341 
L 344.534275 45.374929 
L 352.295766 45.26906 
L 383.34173 45.110367 
L 396.277548 45.075874 
L 724.84733 44.941136 
L 724.84733 44.941136 
" clip-path="url(#pe3a5f8d843)" style="fill: none; stroke: #1f77b4; stroke-width: 2.5; stroke-linecap: square"/>
   </g>
   <g id="line2d_20">
    <path d="M 78.05642 436.613864 
L 78.082292 434.047042 
L 80.643584 404.889697 
L 83.230748 415.537286 
L 85.817911 419.661057 
L 88.405075 420.026439 
L 90.992239 364.047704 
L 93.579402 341.211871 
L 96.166566 277.980811 
L 98.75373 271.928 
L 101.340893 262.04496 
L 103.928057 263.106837 
L 106.51522 238.987781 
L 109.102384 209.539418 
L 111.689548 257.735642 
L 114.276711 206.544539 
L 116.863875 209.203126 
L 119.451039 203.083898 
L 122.038202 186.003992 
L 124.625366 186.965578 
L 127.21253 169.463214 
L 129.799693 158.147381 
L 132.386857 167.338709 
L 134.97402 158.425181 
L 137.561184 162.354416 
L 140.148348 159.826405 
L 142.735511 169.121698 
L 145.322675 182.207679 
L 147.909839 181.947059 
L 150.497002 155.633361 
L 153.084166 149.617833 
L 155.67133 169.876594 
L 158.258493 166.361315 
L 160.845657 147.849101 
L 163.43282 107.45715 
L 166.019984 119.473596 
L 168.607148 117.836193 
L 171.194311 102.568189 
L 173.781475 98.911884 
L 176.368639 105.092879 
L 178.955802 114.852826 
L 181.542966 102.260987 
L 184.13013 96.355977 
L 186.717293 85.575199 
L 189.304457 83.056221 
L 191.89162 82.268558 
L 194.478784 79.204694 
L 197.065948 88.689895 
L 199.653111 68.64907 
L 202.240275 69.183639 
L 204.827439 70.484086 
L 207.414602 71.970412 
L 210.001766 68.002699 
L 212.58893 67.840243 
L 215.176093 65.916804 
L 217.763257 64.894778 
L 220.35042 64.070365 
L 222.937584 65.642723 
L 225.524748 65.113423 
L 228.111911 60.471223 
L 230.699075 59.416032 
L 233.286239 56.694791 
L 235.873402 59.069822 
L 238.460566 55.755787 
L 241.04773 57.425069 
L 243.634893 51.976477 
L 246.222057 51.908333 
L 248.80922 52.365504 
L 251.396384 56.229562 
L 253.983548 55.973723 
L 256.570711 53.02693 
L 259.157875 51.330195 
L 261.745039 54.56515 
L 264.332202 53.71138 
L 266.919366 52.462385 
L 269.50653 52.916323 
L 272.093693 50.155852 
L 274.680857 49.282733 
L 277.26802 50.701933 
L 279.855184 50.467481 
L 282.442348 50.389552 
L 285.029511 48.926693 
L 287.616675 48.096391 
L 290.203839 48.342754 
L 292.791002 49.499474 
L 295.378166 48.898798 
L 297.96533 50.474344 
L 300.552493 51.908112 
L 303.139657 52.692143 
L 305.72682 51.821681 
L 308.313984 50.80851 
L 310.901148 50.082129 
L 313.488311 49.114521 
L 316.075475 48.38039 
L 318.662639 48.349086 
L 321.249802 47.92105 
L 323.836966 47.647943 
L 326.42413 47.511478 
L 329.011293 47.15101 
L 331.598457 46.939317 
L 334.18562 48.240295 
L 336.772784 46.808918 
L 339.359948 47.025349 
L 341.947111 46.834643 
L 344.534275 45.86088 
L 347.121439 46.046184 
L 349.708602 46.061903 
L 352.295766 46.337843 
L 354.88293 45.879743 
L 357.470093 45.74868 
L 360.057257 46.065091 
L 362.64442 45.736016 
L 370.405911 45.404418 
L 380.754566 45.427221 
L 388.516057 45.659681 
L 391.10322 45.466894 
L 396.277548 45.494789 
L 398.864711 45.320599 
L 401.451875 45.314489 
L 404.039039 45.540218 
L 416.974857 45.150483 
L 422.149184 45.219291 
L 427.323511 45.083977 
L 432.497839 45.188518 
L 435.085002 45.069543 
L 437.672166 45.132418 
L 442.846493 45.040275 
L 528.222893 44.960176 
L 561.85602 44.952781 
L 642.058093 44.942022 
L 724.84733 44.941225 
L 724.84733 44.941225 
" clip-path="url(#pe3a5f8d843)" style="fill: none; stroke-dasharray: 9.25,4; stroke-dashoffset: 0; stroke: #ff7f0e; stroke-width: 2.5"/>
   </g>
   <g id="line2d_21">
    <path d="M 78.05642 419.709741 
L 78.082292 419.496497 
L 80.643584 411.902899 
L 83.230748 416.165769 
L 85.817911 419.622114 
L 88.405075 410.625388 
L 90.992239 384.046996 
L 93.579402 375.744728 
L 96.166566 338.748196 
L 98.75373 310.803958 
L 101.340893 299.678742 
L 103.928057 309.430763 
L 106.51522 303.34222 
L 109.102384 282.594939 
L 111.689548 301.659078 
L 114.276711 277.388901 
L 116.863875 279.299987 
L 119.451039 275.142631 
L 122.038202 269.09602 
L 124.625366 266.664224 
L 127.21253 258.534064 
L 129.799693 254.467169 
L 132.386857 255.847272 
L 134.97402 250.349354 
L 137.561184 250.871746 
L 140.148348 257.388945 
L 142.735511 260.435054 
L 145.322675 272.482538 
L 147.909839 260.098674 
L 150.497002 244.738969 
L 153.084166 242.506824 
L 155.67133 258.883949 
L 158.258493 249.506432 
L 160.845657 238.857603 
L 163.43282 233.829476 
L 166.019984 231.548093 
L 168.607148 224.009001 
L 171.194311 215.888139 
L 173.781475 211.766472 
L 178.955802 225.289788 
L 181.542966 218.506788 
L 184.13013 217.26005 
L 186.717293 215.425389 
L 189.304457 206.08201 
L 191.89162 206.68707 
L 194.478784 208.958756 
L 197.065948 213.223751 
L 199.653111 197.961104 
L 202.240275 205.910875 
L 204.827439 199.175917 
L 207.414602 210.920672 
L 210.001766 205.311793 
L 212.58893 209.786224 
L 215.176093 202.735076 
L 217.763257 195.221842 
L 220.35042 199.794304 
L 222.937584 198.793399 
L 225.524748 200.162919 
L 228.111911 192.340226 
L 230.699075 190.083905 
L 233.286239 190.061013 
L 235.873402 187.831923 
L 238.460566 187.038814 
L 241.04773 187.555716 
L 243.634893 170.635077 
L 246.222057 173.161495 
L 248.80922 176.429083 
L 251.396384 183.061537 
L 253.983548 174.997662 
L 256.570711 169.726049 
L 259.157875 169.213663 
L 261.745039 171.267368 
L 264.332202 171.584487 
L 266.919366 174.428733 
L 269.50653 174.102536 
L 272.093693 177.805555 
L 274.680857 177.787976 
L 277.26802 178.185106 
L 279.855184 174.699582 
L 282.442348 177.024047 
L 285.029511 171.105 
L 287.616675 166.618305 
L 290.203839 170.156741 
L 292.791002 176.415047 
L 295.378166 185.35151 
L 297.96533 180.972454 
L 300.552493 179.580131 
L 303.139657 184.314031 
L 305.72682 179.424493 
L 308.313984 173.247173 
L 310.901148 177.021567 
L 313.488311 171.458295 
L 316.075475 169.359825 
L 318.662639 166.550161 
L 321.249802 167.642013 
L 323.836966 162.994898 
L 326.42413 165.67195 
L 329.011293 164.786079 
L 331.598457 155.800024 
L 334.18562 171.866893 
L 336.772784 167.598444 
L 339.359948 169.815402 
L 341.947111 169.393432 
L 344.534275 166.316992 
L 347.121439 167.675709 
L 349.708602 172.830383 
L 352.295766 157.519341 
L 354.88293 161.447114 
L 357.470093 161.184988 
L 360.057257 158.861807 
L 362.64442 149.038011 
L 365.231584 149.467154 
L 367.818748 155.602544 
L 370.405911 150.647696 
L 372.993075 153.260367 
L 375.580239 150.673997 
L 378.167402 152.541026 
L 380.754566 146.040431 
L 383.34173 155.483923 
L 385.928893 156.553592 
L 388.516057 162.60193 
L 391.10322 154.212611 
L 393.690384 156.644362 
L 396.277548 155.993917 
L 398.864711 157.445795 
L 401.451875 153.529622 
L 404.039039 160.245629 
L 406.626202 164.003198 
L 409.213366 160.381209 
L 411.80053 159.18145 
L 414.387693 152.47359 
L 416.974857 146.687466 
L 419.56202 144.573322 
L 422.149184 152.748778 
L 424.736348 150.611609 
L 427.323511 153.7542 
L 429.910675 141.36086 
L 432.497839 141.969064 
L 435.085002 134.903747 
L 437.672166 137.78213 
L 440.25933 129.052667 
L 442.846493 135.948753 
L 445.433657 137.400099 
L 448.02082 137.801126 
L 450.607984 124.472013 
L 453.195148 127.923798 
L 455.782311 130.551789 
L 458.369475 129.298056 
L 460.956639 134.97716 
L 463.543802 135.725459 
L 466.130966 129.045139 
L 468.71813 124.677153 
L 471.305293 127.352876 
L 473.892457 123.941075 
L 476.47962 129.407113 
L 479.066784 128.947639 
L 481.653948 126.636192 
L 484.241111 124.662719 
L 486.828275 124.576155 
L 489.415439 117.489053 
L 492.002602 116.967103 
L 494.589766 120.106019 
L 497.17693 121.112592 
L 499.764093 121.864744 
L 502.351257 120.909356 
L 504.93842 127.413936 
L 507.525584 115.011917 
L 510.112748 112.224126 
L 512.699911 115.781337 
L 515.287075 114.394902 
L 517.874239 113.707486 
L 520.461402 113.61707 
L 523.048566 110.753519 
L 525.63573 109.836565 
L 528.222893 109.187183 
L 530.810057 109.626421 
L 533.39722 114.063703 
L 535.984384 115.430212 
L 538.571548 114.657737 
L 541.158711 112.119099 
L 543.745875 118.109477 
L 546.333039 116.698291 
L 548.920202 111.235884 
L 551.507366 114.754529 
L 554.09453 112.110774 
L 556.681693 106.440526 
L 559.268857 105.362001 
L 561.85602 111.69921 
L 564.443184 107.959972 
L 567.030348 110.953346 
L 569.617511 113.142365 
L 572.204675 116.594504 
L 574.791839 113.667325 
L 577.379002 117.809184 
L 579.966166 117.863336 
L 582.55333 119.577871 
L 585.140493 115.171185 
L 587.727657 117.074699 
L 590.31482 120.980024 
L 592.901984 123.344295 
L 595.489148 120.65551 
L 598.076311 121.344167 
L 600.663475 115.246547 
L 603.250639 110.868155 
L 605.837802 113.19603 
L 608.424966 111.833771 
L 611.01213 112.987347 
L 613.599293 116.836572 
L 616.186457 117.156791 
L 618.77362 114.180774 
L 621.360784 108.55228 
L 623.947948 106.716689 
L 626.535111 105.725657 
L 629.122275 106.432291 
L 631.709439 105.366606 
L 634.296602 102.228487 
L 636.883766 98.332505 
L 639.47093 99.785888 
L 642.058093 101.376223 
L 644.645257 101.204026 
L 647.23242 98.045406 
L 649.819584 97.785804 
L 652.406748 98.904002 
L 654.993911 101.068446 
L 657.581075 99.991825 
L 660.168239 95.493219 
L 662.755402 99.273104 
L 665.342566 96.212383 
L 667.92973 97.436937 
L 670.516893 98.520244 
L 673.104057 98.04886 
L 675.69122 100.147596 
L 678.278384 98.924104 
L 680.865548 96.147826 
L 683.452711 94.69617 
L 686.039875 97.25708 
L 691.214202 96.852157 
L 693.801366 97.999534 
L 696.38853 93.681936 
L 698.975693 97.372424 
L 701.562857 99.509106 
L 706.737184 94.351332 
L 709.324348 93.753091 
L 711.911511 94.233951 
L 714.498675 96.444976 
L 717.085839 94.500593 
L 722.260166 95.227905 
L 724.84733 90.510122 
L 724.84733 90.510122 
" clip-path="url(#pe3a5f8d843)" style="fill: none; stroke: #2ca02c; stroke-width: 2.5; stroke-linecap: square"/>
   </g>
   <g id="line2d_22">
    <path d="M 78.05642 432.315305 
L 78.082292 431.11475 
L 80.643584 419.211192 
L 83.230748 420.667851 
L 85.817911 419.736839 
L 88.405075 421.211187 
L 90.992239 400.565768 
L 93.579402 394.211291 
L 96.166566 370.003679 
L 98.75373 340.750848 
L 101.340893 337.244911 
L 103.928057 340.769533 
L 106.51522 332.665851 
L 109.102384 325.74953 
L 111.689548 342.015828 
L 114.276711 324.248194 
L 116.863875 320.858841 
L 119.451039 318.158411 
L 122.038202 315.644214 
L 124.625366 314.737754 
L 127.21253 305.45539 
L 129.799693 300.734729 
L 132.386857 301.742188 
L 134.97402 299.889771 
L 137.561184 299.021346 
L 140.148348 305.948648 
L 142.735511 309.709183 
L 145.322675 313.96125 
L 147.909839 305.755153 
L 150.497002 298.121084 
L 153.084166 296.886479 
L 155.67133 307.895067 
L 160.845657 295.443103 
L 163.43282 292.687104 
L 166.019984 292.555199 
L 168.607148 288.726608 
L 171.194311 285.415717 
L 173.781475 283.218506 
L 176.368639 284.90953 
L 178.955802 289.763955 
L 181.542966 282.549332 
L 184.13013 280.331046 
L 186.717293 278.414071 
L 189.304457 267.633161 
L 191.89162 265.465484 
L 194.478784 265.552712 
L 197.065948 271.559518 
L 199.653111 265.366302 
L 202.240275 264.085692 
L 204.827439 258.456312 
L 207.414602 270.098563 
L 210.001766 270.083243 
L 212.58893 272.276911 
L 215.176093 262.766604 
L 217.763257 267.159652 
L 220.35042 267.682398 
L 222.937584 268.628355 
L 225.524748 266.21706 
L 228.111911 260.209767 
L 230.699075 260.234209 
L 233.286239 255.837708 
L 235.873402 248.306851 
L 238.460566 248.561273 
L 241.04773 246.65187 
L 243.634893 236.685986 
L 246.222057 242.846171 
L 248.80922 236.549344 
L 251.396384 236.071628 
L 253.983548 237.040122 
L 256.570711 236.100187 
L 259.157875 234.868283 
L 261.745039 233.77705 
L 264.332202 230.779913 
L 266.919366 233.746056 
L 269.50653 232.56485 
L 272.093693 232.927133 
L 274.680857 238.6812 
L 277.26802 240.135557 
L 282.442348 239.132393 
L 285.029511 233.511913 
L 287.616675 226.19151 
L 292.791002 232.77827 
L 295.378166 238.983043 
L 297.96533 234.070791 
L 300.552493 232.273899 
L 303.139657 234.736777 
L 305.72682 232.169447 
L 308.313984 231.368988 
L 310.901148 232.56547 
L 313.488311 231.292476 
L 318.662639 227.84503 
L 321.249802 231.438328 
L 323.836966 228.615911 
L 326.42413 229.593527 
L 329.011293 228.214619 
L 331.598457 223.79164 
L 334.18562 230.639773 
L 336.772784 228.568445 
L 339.359948 229.836702 
L 341.947111 231.849582 
L 344.534275 229.97237 
L 347.121439 233.597857 
L 349.708602 233.986264 
L 352.295766 227.177007 
L 357.470093 229.175187 
L 360.057257 232.349614 
L 362.64442 223.433563 
L 365.231584 223.713932 
L 367.818748 222.334582 
L 370.405911 220.409504 
L 372.993075 221.455883 
L 378.167402 218.733713 
L 380.754566 215.62867 
L 383.34173 219.573136 
L 388.516057 223.097183 
L 391.10322 220.763507 
L 393.690384 220.307089 
L 396.277548 222.138518 
L 398.864711 222.909399 
L 401.451875 221.617188 
L 404.039039 221.490288 
L 406.626202 223.479834 
L 411.80053 216.60292 
L 414.387693 209.601363 
L 416.974857 204.167648 
L 419.56202 205.83733 
L 422.149184 212.318176 
L 424.736348 210.119682 
L 427.323511 211.613314 
L 429.910675 200.951999 
L 432.497839 201.608022 
L 435.085002 195.436679 
L 437.672166 198.016142 
L 440.25933 191.830763 
L 442.846493 200.581967 
L 445.433657 198.659192 
L 448.02082 195.700267 
L 450.607984 184.846032 
L 453.195148 187.933496 
L 455.782311 190.505875 
L 460.956639 191.799458 
L 463.543802 194.085888 
L 466.130966 186.627028 
L 468.71813 185.963964 
L 471.305293 187.086192 
L 473.892457 186.070851 
L 476.47962 189.493634 
L 479.066784 186.912046 
L 481.653948 189.69014 
L 484.241111 187.110677 
L 486.828275 186.549187 
L 489.415439 182.461304 
L 492.002602 182.189924 
L 494.589766 185.712952 
L 497.17693 186.310838 
L 499.764093 184.354457 
L 502.351257 183.119852 
L 504.93842 187.367889 
L 507.525584 180.036726 
L 510.112748 177.010764 
L 512.699911 180.339499 
L 515.287075 178.982466 
L 517.874239 178.265604 
L 520.461402 176.296204 
L 523.048566 173.715945 
L 525.63573 173.646694 
L 528.222893 171.4865 
L 530.810057 170.776634 
L 533.39722 174.701486 
L 535.984384 176.253609 
L 538.571548 174.180421 
L 541.158711 169.728395 
L 543.745875 173.571908 
L 546.333039 172.773353 
L 548.920202 168.853461 
L 551.507366 170.455486 
L 554.09453 168.203902 
L 556.681693 162.976921 
L 559.268857 163.83317 
L 561.85602 168.004651 
L 564.443184 165.554347 
L 567.030348 167.70387 
L 569.617511 167.18285 
L 572.204675 169.747878 
L 574.791839 167.398086 
L 577.379002 172.065347 
L 579.966166 172.194816 
L 582.55333 173.005813 
L 585.140493 170.309058 
L 587.727657 171.345873 
L 590.31482 172.069288 
L 592.901984 174.044975 
L 595.489148 174.741602 
L 598.076311 175.923162 
L 600.663475 173.042564 
L 603.250639 169.458964 
L 605.837802 171.158045 
L 608.424966 170.596688 
L 611.01213 173.198865 
L 613.599293 173.970499 
L 616.186457 176.156994 
L 618.77362 173.860513 
L 621.360784 170.779734 
L 623.947948 168.725099 
L 626.535111 168.284444 
L 629.122275 167.715869 
L 631.709439 167.613011 
L 634.296602 166.797542 
L 636.883766 163.312062 
L 639.47093 163.326187 
L 642.058093 165.138753 
L 644.645257 164.0086 
L 647.23242 164.161714 
L 649.819584 163.105328 
L 652.406748 166.921609 
L 654.993911 171.982104 
L 660.168239 167.538093 
L 662.755402 171.334848 
L 665.342566 170.493388 
L 670.516893 174.5853 
L 673.104057 174.862746 
L 675.69122 177.642346 
L 680.865548 176.738631 
L 683.452711 178.529368 
L 686.039875 178.038103 
L 688.627039 176.265387 
L 691.214202 174.19955 
L 693.801366 173.630931 
L 696.38853 172.874971 
L 698.975693 176.889796 
L 701.562857 174.337919 
L 704.15002 171.371421 
L 706.737184 170.265356 
L 709.324348 167.511526 
L 711.911511 166.936752 
L 714.498675 167.735219 
L 717.085839 167.228678 
L 719.673002 166.880741 
L 722.260166 164.380757 
L 724.84733 158.669198 
L 724.84733 158.669198 
" clip-path="url(#pe3a5f8d843)" style="fill: none; stroke-dasharray: 9.25,4; stroke-dashoffset: 0; stroke: #d62728; stroke-width: 2.5"/>
   </g>
   <g id="patch_3">
    <path d="M 45.716875 456.1975 
L 45.716875 25.3575 
" style="fill: none; stroke: #000000; stroke-width: 0.8; stroke-linejoin: miter; stroke-linecap: square"/>
   </g>
   <g id="patch_4">
    <path d="M 757.186875 456.1975 
L 757.186875 25.3575 
" style="fill: none; stroke: #000000; stroke-width: 0.8; stroke-linejoin: miter; stroke-linecap: square"/>
   </g>
   <g id="patch_5">
    <path d="M 45.716875 456.1975 
L 757.186875 456.1975 
" style="fill: none; stroke: #000000; stroke-width: 0.8; stroke-linejoin: miter; stroke-linecap: square"/>
   </g>
   <g id="patch_6">
    <path d="M 45.716875 25.3575 
L 757.186875 25.3575 
" style="fill: none; stroke: #000000; stroke-width: 0.8; stroke-linejoin: miter; stroke-linecap: square"/>
   </g>
   <g id="text_15">
    <!-- Comparison of Overall vs Community-Level Credences -->
    <g transform="translate(183.291875 19.3575) scale(0.16 -0.16)">
     <defs>
      <path id="DejaVuSans-6d" d="M 3328 2828 
Q 3544 3216 3844 3400 
Q 4144 3584 4550 3584 
Q 5097 3584 5394 3201 
Q 5691 2819 5691 2113 
L 5691 0 
L 5113 0 
L 5113 2094 
Q 5113 2597 4934 2840 
Q 4756 3084 4391 3084 
Q 3944 3084 3684 2787 
Q 3425 2491 3425 1978 
L 3425 0 
L 2847 0 
L 2847 2094 
Q 2847 2600 2669 2842 
Q 2491 3084 2119 3084 
Q 1678 3084 1418 2786 
Q 1159 2488 1159 1978 
L 1159 0 
L 581 0 
L 581 3500 
L 1159 3500 
L 1159 2956 
Q 1356 3278 1631 3431 
Q 1906 3584 2284 3584 
Q 2666 3584 2933 3390 
Q 3200 3197 3328 2828 
z
" transform="scale(0.015625)"/>
      <path id="DejaVuSans-70" d="M 1159 525 
L 1159 -1331 
L 581 -1331 
L 581 3500 
L 1159 3500 
L 1159 2969 
Q 1341 3281 1617 3432 
Q 1894 3584 2278 3584 
Q 2916 3584 3314 3078 
Q 3713 2572 3713 1747 
Q 3713 922 3314 415 
Q 2916 -91 2278 -91 
Q 1894 -91 1617 61 
Q 1341 213 1159 525 
z
M 3116 1747 
Q 3116 2381 2855 2742 
Q 2594 3103 2138 3103 
Q 1681 3103 1420 2742 
Q 1159 2381 1159 1747 
Q 1159 1113 1420 752 
Q 1681 391 2138 391 
Q 2594 391 2855 752 
Q 3116 1113 3116 1747 
z
" transform="scale(0.015625)"/>
      <path id="DejaVuSans-73" d="M 2834 3397 
L 2834 2853 
Q 2591 2978 2328 3040 
Q 2066 3103 1784 3103 
Q 1356 3103 1142 2972 
Q 928 2841 928 2578 
Q 928 2378 1081 2264 
Q 1234 2150 1697 2047 
L 1894 2003 
Q 2506 1872 2764 1633 
Q 3022 1394 3022 966 
Q 3022 478 2636 193 
Q 2250 -91 1575 -91 
Q 1294 -91 989 -36 
Q 684 19 347 128 
L 347 722 
Q 666 556 975 473 
Q 1284 391 1588 391 
Q 1994 391 2212 530 
Q 2431 669 2431 922 
Q 2431 1156 2273 1281 
Q 2116 1406 1581 1522 
L 1381 1569 
Q 847 1681 609 1914 
Q 372 2147 372 2553 
Q 372 3047 722 3315 
Q 1072 3584 1716 3584 
Q 2034 3584 2315 3537 
Q 2597 3491 2834 3397 
z
" transform="scale(0.015625)"/>
      <path id="DejaVuSans-20" transform="scale(0.015625)"/>
      <path id="DejaVuSans-66" d="M 2375 4863 
L 2375 4384 
L 1825 4384 
Q 1516 4384 1395 4259 
Q 1275 4134 1275 3809 
L 1275 3500 
L 2222 3500 
L 2222 3053 
L 1275 3053 
L 1275 0 
L 697 0 
L 697 3053 
L 147 3053 
L 147 3500 
L 697 3500 
L 697 3744 
Q 697 4328 969 4595 
Q 1241 4863 1831 4863 
L 2375 4863 
z
" transform="scale(0.015625)"/>
      <path id="DejaVuSans-4f" d="M 2522 4238 
Q 1834 4238 1429 3725 
Q 1025 3213 1025 2328 
Q 1025 1447 1429 934 
Q 1834 422 2522 422 
Q 3209 422 3611 934 
Q 4013 1447 4013 2328 
Q 4013 3213 3611 3725 
Q 3209 4238 2522 4238 
z
M 2522 4750 
Q 3503 4750 4090 4092 
Q 4678 3434 4678 2328 
Q 4678 1225 4090 567 
Q 3503 -91 2522 -91 
Q 1538 -91 948 565 
Q 359 1222 359 2328 
Q 359 3434 948 4092 
Q 1538 4750 2522 4750 
z
" transform="scale(0.015625)"/>
      <path id="DejaVuSans-76" d="M 191 3500 
L 800 3500 
L 1894 563 
L 2988 3500 
L 3597 3500 
L 2284 0 
L 1503 0 
L 191 3500 
z
" transform="scale(0.015625)"/>
      <path id="DejaVuSans-6c" d="M 603 4863 
L 1178 4863 
L 1178 0 
L 603 0 
L 603 4863 
z
" transform="scale(0.015625)"/>
      <path id="DejaVuSans-75" d="M 544 1381 
L 544 3500 
L 1119 3500 
L 1119 1403 
Q 1119 906 1312 657 
Q 1506 409 1894 409 
Q 2359 409 2629 706 
Q 2900 1003 2900 1516 
L 2900 3500 
L 3475 3500 
L 3475 0 
L 2900 0 
L 2900 538 
Q 2691 219 2414 64 
Q 2138 -91 1772 -91 
Q 1169 -91 856 284 
Q 544 659 544 1381 
z
M 1991 3584 
L 1991 3584 
z
" transform="scale(0.015625)"/>
      <path id="DejaVuSans-79" d="M 2059 -325 
Q 1816 -950 1584 -1140 
Q 1353 -1331 966 -1331 
L 506 -1331 
L 506 -850 
L 844 -850 
Q 1081 -850 1212 -737 
Q 1344 -625 1503 -206 
L 1606 56 
L 191 3500 
L 800 3500 
L 1894 763 
L 2988 3500 
L 3597 3500 
L 2059 -325 
z
" transform="scale(0.015625)"/>
      <path id="DejaVuSans-2d" d="M 313 2009 
L 1997 2009 
L 1997 1497 
L 313 1497 
L 313 2009 
z
" transform="scale(0.015625)"/>
      <path id="DejaVuSans-4c" d="M 628 4666 
L 1259 4666 
L 1259 531 
L 3531 531 
L 3531 0 
L 628 0 
L 628 4666 
z
" transform="scale(0.015625)"/>
     </defs>
     <use xlink:href="#DejaVuSans-43"/>
     <use xlink:href="#DejaVuSans-6f" x="69.824219"/>
     <use xlink:href="#DejaVuSans-6d" x="131.005859"/>
     <use xlink:href="#DejaVuSans-70" x="228.417969"/>
     <use xlink:href="#DejaVuSans-61" x="291.894531"/>
     <use xlink:href="#DejaVuSans-72" x="353.173828"/>
     <use xlink:href="#DejaVuSans-69" x="394.287109"/>
     <use xlink:href="#DejaVuSans-73" x="422.070312"/>
     <use xlink:href="#DejaVuSans-6f" x="474.169922"/>
     <use xlink:href="#DejaVuSans-6e" x="535.351562"/>
     <use xlink:href="#DejaVuSans-20" x="598.730469"/>
     <use xlink:href="#DejaVuSans-6f" x="630.517578"/>
     <use xlink:href="#DejaVuSans-66" x="691.699219"/>
     <use xlink:href="#DejaVuSans-20" x="726.904297"/>
     <use xlink:href="#DejaVuSans-4f" x="758.691406"/>
     <use xlink:href="#DejaVuSans-76" x="837.402344"/>
     <use xlink:href="#DejaVuSans-65" x="896.582031"/>
     <use xlink:href="#DejaVuSans-72" x="958.105469"/>
     <use xlink:href="#DejaVuSans-61" x="999.21875"/>
     <use xlink:href="#DejaVuSans-6c" x="1060.498047"/>
     <use xlink:href="#DejaVuSans-6c" x="1088.28125"/>
     <use xlink:href="#DejaVuSans-20" x="1116.064453"/>
     <use xlink:href="#DejaVuSans-76" x="1147.851562"/>
     <use xlink:href="#DejaVuSans-73" x="1207.03125"/>
     <use xlink:href="#DejaVuSans-20" x="1259.130859"/>
     <use xlink:href="#DejaVuSans-43" x="1290.917969"/>
     <use xlink:href="#DejaVuSans-6f" x="1360.742188"/>
     <use xlink:href="#DejaVuSans-6d" x="1421.923828"/>
     <use xlink:href="#DejaVuSans-6d" x="1519.335938"/>
     <use xlink:href="#DejaVuSans-75" x="1616.748047"/>
     <use xlink:href="#DejaVuSans-6e" x="1680.126953"/>
     <use xlink:href="#DejaVuSans-69" x="1743.505859"/>
     <use xlink:href="#DejaVuSans-74" x="1771.289062"/>
     <use xlink:href="#DejaVuSans-79" x="1810.498047"/>
     <use xlink:href="#DejaVuSans-2d" x="1867.927734"/>
     <use xlink:href="#DejaVuSans-4c" x="1904.011719"/>
     <use xlink:href="#DejaVuSans-65" x="1957.974609"/>
     <use xlink:href="#DejaVuSans-76" x="2019.498047"/>
     <use xlink:href="#DejaVuSans-65" x="2078.677734"/>
     <use xlink:href="#DejaVuSans-6c" x="2140.201172"/>
     <use xlink:href="#DejaVuSans-20" x="2167.984375"/>
     <use xlink:href="#DejaVuSans-43" x="2199.771484"/>
     <use xlink:href="#DejaVuSans-72" x="2269.595703"/>
     <use xlink:href="#DejaVuSans-65" x="2308.458984"/>
     <use xlink:href="#DejaVuSans-64" x="2369.982422"/>
     <use xlink:href="#DejaVuSans-65" x="2433.458984"/>
     <use xlink:href="#DejaVuSans-6e" x="2494.982422"/>
     <use xlink:href="#DejaVuSans-63" x="2558.361328"/>
     <use xlink:href="#DejaVuSans-65" x="2613.341797"/>
     <use xlink:href="#DejaVuSans-73" x="2674.865234"/>
    </g>
   </g>
   <g id="legend_1">
    <g id="patch_7">
     <path d="M 799.760375 106.748125 
L 986.765063 106.748125 
Q 988.765063 106.748125 988.765063 104.748125 
L 988.765063 32.3575 
Q 988.765063 30.3575 986.765063 30.3575 
L 799.760375 30.3575 
Q 797.760375 30.3575 797.760375 32.3575 
L 797.760375 104.748125 
Q 797.760375 106.748125 799.760375 106.748125 
z
" style="fill: #ffffff; opacity: 0.8; stroke: #cccccc; stroke-linejoin: miter"/>
    </g>
    <g id="text_16">
     <!-- Statistic -->
     <g transform="translate(873.011938 41.955938) scale(0.1 -0.1)">
      <defs>
       <path id="DejaVuSans-53" d="M 3425 4513 
L 3425 3897 
Q 3066 4069 2747 4153 
Q 2428 4238 2131 4238 
Q 1616 4238 1336 4038 
Q 1056 3838 1056 3469 
Q 1056 3159 1242 3001 
Q 1428 2844 1947 2747 
L 2328 2669 
Q 3034 2534 3370 2195 
Q 3706 1856 3706 1288 
Q 3706 609 3251 259 
Q 2797 -91 1919 -91 
Q 1588 -91 1214 -16 
Q 841 59 441 206 
L 441 856 
Q 825 641 1194 531 
Q 1563 422 1919 422 
Q 2459 422 2753 634 
Q 3047 847 3047 1241 
Q 3047 1584 2836 1778 
Q 2625 1972 2144 2069 
L 1759 2144 
Q 1053 2284 737 2584 
Q 422 2884 422 3419 
Q 422 4038 858 4394 
Q 1294 4750 2059 4750 
Q 2388 4750 2728 4690 
Q 3069 4631 3425 4513 
z
" transform="scale(0.015625)"/>
      </defs>
      <use xlink:href="#DejaVuSans-53"/>
      <use xlink:href="#DejaVuSans-74" x="63.476562"/>
      <use xlink:href="#DejaVuSans-61" x="102.685547"/>
      <use xlink:href="#DejaVuSans-74" x="163.964844"/>
      <use xlink:href="#DejaVuSans-69" x="203.173828"/>
      <use xlink:href="#DejaVuSans-73" x="230.957031"/>
      <use xlink:href="#DejaVuSans-74" x="283.056641"/>
      <use xlink:href="#DejaVuSans-69" x="322.265625"/>
      <use xlink:href="#DejaVuSans-63" x="350.048828"/>
     </g>
    </g>
    <g id="line2d_23">
     <path d="M 801.760375 53.134063 
L 811.760375 53.134063 
L 821.760375 53.134063 
" style="fill: none; stroke: #1f77b4; stroke-width: 2.5; stroke-linecap: square"/>
    </g>
    <g id="text_17">
     <!-- Overall Median -->
     <g transform="translate(829.760375 56.634063) scale(0.1 -0.1)">
      <defs>
       <path id="DejaVuSans-4d" d="M 628 4666 
L 1569 4666 
L 2759 1491 
L 3956 4666 
L 4897 4666 
L 4897 0 
L 4281 0 
L 4281 4097 
L 3078 897 
L 2444 897 
L 1241 4097 
L 1241 0 
L 628 0 
L 628 4666 
z
" transform="scale(0.015625)"/>
      </defs>
      <use xlink:href="#DejaVuSans-4f"/>
      <use xlink:href="#DejaVuSans-76" x="78.710938"/>
      <use xlink:href="#DejaVuSans-65" x="137.890625"/>
      <use xlink:href="#DejaVuSans-72" x="199.414062"/>
      <use xlink:href="#DejaVuSans-61" x="240.527344"/>
      <use xlink:href="#DejaVuSans-6c" x="301.806641"/>
      <use xlink:href="#DejaVuSans-6c" x="329.589844"/>
      <use xlink:href="#DejaVuSans-20" x="357.373047"/>
      <use xlink:href="#DejaVuSans-4d" x="389.160156"/>
      <use xlink:href="#DejaVuSans-65" x="475.439453"/>
      <use xlink:href="#DejaVuSans-64" x="536.962891"/>
      <use xlink:href="#DejaVuSans-69" x="600.439453"/>
      <use xlink:href="#DejaVuSans-61" x="628.222656"/>
      <use xlink:href="#DejaVuSans-6e" x="689.501953"/>
     </g>
    </g>
    <g id="line2d_24">
     <path d="M 801.760375 67.812188 
L 811.760375 67.812188 
L 821.760375 67.812188 
" style="fill: none; stroke-dasharray: 9.25,4; stroke-dashoffset: 0; stroke: #ff7f0e; stroke-width: 2.5"/>
    </g>
    <g id="text_18">
     <!-- Median of Community Medians -->
     <g transform="translate(829.760375 71.312188) scale(0.1 -0.1)">
      <use xlink:href="#DejaVuSans-4d"/>
      <use xlink:href="#DejaVuSans-65" x="86.279297"/>
      <use xlink:href="#DejaVuSans-64" x="147.802734"/>
      <use xlink:href="#DejaVuSans-69" x="211.279297"/>
      <use xlink:href="#DejaVuSans-61" x="239.0625"/>
      <use xlink:href="#DejaVuSans-6e" x="300.341797"/>
      <use xlink:href="#DejaVuSans-20" x="363.720703"/>
      <use xlink:href="#DejaVuSans-6f" x="395.507812"/>
      <use xlink:href="#DejaVuSans-66" x="456.689453"/>
      <use xlink:href="#DejaVuSans-20" x="491.894531"/>
      <use xlink:href="#DejaVuSans-43" x="523.681641"/>
      <use xlink:href="#DejaVuSans-6f" x="593.505859"/>
      <use xlink:href="#DejaVuSans-6d" x="654.6875"/>
      <use xlink:href="#DejaVuSans-6d" x="752.099609"/>
      <use xlink:href="#DejaVuSans-75" x="849.511719"/>
      <use xlink:href="#DejaVuSans-6e" x="912.890625"/>
      <use xlink:href="#DejaVuSans-69" x="976.269531"/>
      <use xlink:href="#DejaVuSans-74" x="1004.052734"/>
      <use xlink:href="#DejaVuSans-79" x="1043.261719"/>
      <use xlink:href="#DejaVuSans-20" x="1102.441406"/>
      <use xlink:href="#DejaVuSans-4d" x="1134.228516"/>
      <use xlink:href="#DejaVuSans-65" x="1220.507812"/>
      <use xlink:href="#DejaVuSans-64" x="1282.03125"/>
      <use xlink:href="#DejaVuSans-69" x="1345.507812"/>
      <use xlink:href="#DejaVuSans-61" x="1373.291016"/>
      <use xlink:href="#DejaVuSans-6e" x="1434.570312"/>
      <use xlink:href="#DejaVuSans-73" x="1497.949219"/>
     </g>
    </g>
    <g id="line2d_25">
     <path d="M 801.760375 82.490313 
L 811.760375 82.490313 
L 821.760375 82.490313 
" style="fill: none; stroke: #2ca02c; stroke-width: 2.5; stroke-linecap: square"/>
    </g>
    <g id="text_19">
     <!-- Overall Mean -->
     <g transform="translate(829.760375 85.990313) scale(0.1 -0.1)">
      <use xlink:href="#DejaVuSans-4f"/>
      <use xlink:href="#DejaVuSans-76" x="78.710938"/>
      <use xlink:href="#DejaVuSans-65" x="137.890625"/>
      <use xlink:href="#DejaVuSans-72" x="199.414062"/>
      <use xlink:href="#DejaVuSans-61" x="240.527344"/>
      <use xlink:href="#DejaVuSans-6c" x="301.806641"/>
      <use xlink:href="#DejaVuSans-6c" x="329.589844"/>
      <use xlink:href="#DejaVuSans-20" x="357.373047"/>
      <use xlink:href="#DejaVuSans-4d" x="389.160156"/>
      <use xlink:href="#DejaVuSans-65" x="475.439453"/>
      <use xlink:href="#DejaVuSans-61" x="536.962891"/>
      <use xlink:href="#DejaVuSans-6e" x="598.242188"/>
     </g>
    </g>
    <g id="line2d_26">
     <path d="M 801.760375 97.168438 
L 811.760375 97.168438 
L 821.760375 97.168438 
" style="fill: none; stroke-dasharray: 9.25,4; stroke-dashoffset: 0; stroke: #d62728; stroke-width: 2.5"/>
    </g>
    <g id="text_20">
     <!-- Mean of Community Means -->
     <g transform="translate(829.760375 100.668438) scale(0.1 -0.1)">
      <use xlink:href="#DejaVuSans-4d"/>
      <use xlink:href="#DejaVuSans-65" x="86.279297"/>
      <use xlink:href="#DejaVuSans-61" x="147.802734"/>
      <use xlink:href="#DejaVuSans-6e" x="209.082031"/>
      <use xlink:href="#DejaVuSans-20" x="272.460938"/>
      <use xlink:href="#DejaVuSans-6f" x="304.248047"/>
      <use xlink:href="#DejaVuSans-66" x="365.429688"/>
      <use xlink:href="#DejaVuSans-20" x="400.634766"/>
      <use xlink:href="#DejaVuSans-43" x="432.421875"/>
      <use xlink:href="#DejaVuSans-6f" x="502.246094"/>
      <use xlink:href="#DejaVuSans-6d" x="563.427734"/>
      <use xlink:href="#DejaVuSans-6d" x="660.839844"/>
      <use xlink:href="#DejaVuSans-75" x="758.251953"/>
      <use xlink:href="#DejaVuSans-6e" x="821.630859"/>
      <use xlink:href="#DejaVuSans-69" x="885.009766"/>
      <use xlink:href="#DejaVuSans-74" x="912.792969"/>
      <use xlink:href="#DejaVuSans-79" x="952.001953"/>
      <use xlink:href="#DejaVuSans-20" x="1011.181641"/>
      <use xlink:href="#DejaVuSans-4d" x="1042.96875"/>
      <use xlink:href="#DejaVuSans-65" x="1129.248047"/>
      <use xlink:href="#DejaVuSans-61" x="1190.771484"/>
      <use xlink:href="#DejaVuSans-6e" x="1252.050781"/>
      <use xlink:href="#DejaVuSans-73" x="1315.429688"/>
     </g>
    </g>
   </g>
  </g>
 </g>
 <defs>
  <clipPath id="pe3a5f8d843">
   <rect x="45.716875" y="25.3575" width="711.47" height="430.84"/>
  </clipPath>
 </defs>
</svg>
