<?xml version="1.0" encoding="utf-8" standalone="no"?>
<!DOCTYPE svg PUBLIC "-//W3C//DTD SVG 1.1//EN"
  "http://www.w3.org/Graphics/SVG/1.1/DTD/svg11.dtd">
<svg xmlns:xlink="http://www.w3.org/1999/xlink" width="990.311812pt" height="567.689375pt" viewBox="0 0 990.311812 567.689375" xmlns="http://www.w3.org/2000/svg" version="1.1">
 <metadata>
  <rdf:RDF xmlns:dc="http://purl.org/dc/elements/1.1/" xmlns:cc="http://creativecommons.org/ns#" xmlns:rdf="http://www.w3.org/1999/02/22-rdf-syntax-ns#">
   <cc:Work>
    <dc:type rdf:resource="http://purl.org/dc/dcmitype/StillImage"/>
    <dc:date>2024-12-13T00:16:09.238188</dc:date>
    <dc:format>image/svg+xml</dc:format>
    <dc:creator>
     <cc:Agent>
      <dc:title>Matplotlib v3.9.2, https://matplotlib.org/</dc:title>
     </cc:Agent>
    </dc:creator>
   </cc:Work>
  </rdf:RDF>
 </metadata>
 <defs>
  <style type="text/css">*{stroke-linejoin: round; stroke-linecap: butt}</style>
 </defs>
 <g id="figure_1">
  <g id="patch_1">
   <path d="M 0 567.689375 
L 990.311812 567.689375 
L 990.311812 0 
L 0 0 
z
" style="fill: #ffffff"/>
  </g>
  <g id="axes_1">
   <g id="patch_2">
    <path d="M 58.441875 528.1975 
L 662.271875 528.1975 
L 662.271875 25.3575 
L 58.441875 25.3575 
z
" style="fill: #ffffff"/>
   </g>
   <g id="PolyCollection_1"/>
   <g id="PolyCollection_2"/>
   <g id="PolyCollection_3"/>
   <g id="PolyCollection_4"/>
   <g id="PolyCollection_5"/>
   <g id="PolyCollection_6"/>
   <g id="matplotlib.axis_1">
    <g id="xtick_1">
     <g id="line2d_1">
      <defs>
       <path id="m8536b86b65" d="M 0 0 
L 0 3.5 
" style="stroke: #000000; stroke-width: 0.8"/>
      </defs>
      <g>
       <use xlink:href="#m8536b86b65" x="85.888693" y="528.1975" style="stroke: #000000; stroke-width: 0.8"/>
      </g>
     </g>
     <g id="text_1">
      <!-- 0 -->
      <g transform="translate(82.707443 542.795938) scale(0.1 -0.1)">
       <defs>
        <path id="DejaVuSans-30" d="M 2034 4250 
Q 1547 4250 1301 3770 
Q 1056 3291 1056 2328 
Q 1056 1369 1301 889 
Q 1547 409 2034 409 
Q 2525 409 2770 889 
Q 3016 1369 3016 2328 
Q 3016 3291 2770 3770 
Q 2525 4250 2034 4250 
z
M 2034 4750 
Q 2819 4750 3233 4129 
Q 3647 3509 3647 2328 
Q 3647 1150 3233 529 
Q 2819 -91 2034 -91 
Q 1250 -91 836 529 
Q 422 1150 422 2328 
Q 422 3509 836 4129 
Q 1250 4750 2034 4750 
z
" transform="scale(0.015625)"/>
       </defs>
       <use xlink:href="#DejaVuSans-30"/>
      </g>
     </g>
    </g>
    <g id="xtick_2">
     <g id="line2d_2">
      <g>
       <use xlink:href="#m8536b86b65" x="195.675966" y="528.1975" style="stroke: #000000; stroke-width: 0.8"/>
      </g>
     </g>
     <g id="text_2">
      <!-- 5000 -->
      <g transform="translate(182.950966 542.795938) scale(0.1 -0.1)">
       <defs>
        <path id="DejaVuSans-35" d="M 691 4666 
L 3169 4666 
L 3169 4134 
L 1269 4134 
L 1269 2991 
Q 1406 3038 1543 3061 
Q 1681 3084 1819 3084 
Q 2600 3084 3056 2656 
Q 3513 2228 3513 1497 
Q 3513 744 3044 326 
Q 2575 -91 1722 -91 
Q 1428 -91 1123 -41 
Q 819 9 494 109 
L 494 744 
Q 775 591 1075 516 
Q 1375 441 1709 441 
Q 2250 441 2565 725 
Q 2881 1009 2881 1497 
Q 2881 1984 2565 2268 
Q 2250 2553 1709 2553 
Q 1456 2553 1204 2497 
Q 953 2441 691 2322 
L 691 4666 
z
" transform="scale(0.015625)"/>
       </defs>
       <use xlink:href="#DejaVuSans-35"/>
       <use xlink:href="#DejaVuSans-30" x="63.623047"/>
       <use xlink:href="#DejaVuSans-30" x="127.246094"/>
       <use xlink:href="#DejaVuSans-30" x="190.869141"/>
      </g>
     </g>
    </g>
    <g id="xtick_3">
     <g id="line2d_3">
      <g>
       <use xlink:href="#m8536b86b65" x="305.463239" y="528.1975" style="stroke: #000000; stroke-width: 0.8"/>
      </g>
     </g>
     <g id="text_3">
      <!-- 10000 -->
      <g transform="translate(289.556989 542.795938) scale(0.1 -0.1)">
       <defs>
        <path id="DejaVuSans-31" d="M 794 531 
L 1825 531 
L 1825 4091 
L 703 3866 
L 703 4441 
L 1819 4666 
L 2450 4666 
L 2450 531 
L 3481 531 
L 3481 0 
L 794 0 
L 794 531 
z
" transform="scale(0.015625)"/>
       </defs>
       <use xlink:href="#DejaVuSans-31"/>
       <use xlink:href="#DejaVuSans-30" x="63.623047"/>
       <use xlink:href="#DejaVuSans-30" x="127.246094"/>
       <use xlink:href="#DejaVuSans-30" x="190.869141"/>
       <use xlink:href="#DejaVuSans-30" x="254.492188"/>
      </g>
     </g>
    </g>
    <g id="xtick_4">
     <g id="line2d_4">
      <g>
       <use xlink:href="#m8536b86b65" x="415.250511" y="528.1975" style="stroke: #000000; stroke-width: 0.8"/>
      </g>
     </g>
     <g id="text_4">
      <!-- 15000 -->
      <g transform="translate(399.344261 542.795938) scale(0.1 -0.1)">
       <use xlink:href="#DejaVuSans-31"/>
       <use xlink:href="#DejaVuSans-35" x="63.623047"/>
       <use xlink:href="#DejaVuSans-30" x="127.246094"/>
       <use xlink:href="#DejaVuSans-30" x="190.869141"/>
       <use xlink:href="#DejaVuSans-30" x="254.492188"/>
      </g>
     </g>
    </g>
    <g id="xtick_5">
     <g id="line2d_5">
      <g>
       <use xlink:href="#m8536b86b65" x="525.037784" y="528.1975" style="stroke: #000000; stroke-width: 0.8"/>
      </g>
     </g>
     <g id="text_5">
      <!-- 20000 -->
      <g transform="translate(509.131534 542.795938) scale(0.1 -0.1)">
       <defs>
        <path id="DejaVuSans-32" d="M 1228 531 
L 3431 531 
L 3431 0 
L 469 0 
L 469 531 
Q 828 903 1448 1529 
Q 2069 2156 2228 2338 
Q 2531 2678 2651 2914 
Q 2772 3150 2772 3378 
Q 2772 3750 2511 3984 
Q 2250 4219 1831 4219 
Q 1534 4219 1204 4116 
Q 875 4013 500 3803 
L 500 4441 
Q 881 4594 1212 4672 
Q 1544 4750 1819 4750 
Q 2544 4750 2975 4387 
Q 3406 4025 3406 3419 
Q 3406 3131 3298 2873 
Q 3191 2616 2906 2266 
Q 2828 2175 2409 1742 
Q 1991 1309 1228 531 
z
" transform="scale(0.015625)"/>
       </defs>
       <use xlink:href="#DejaVuSans-32"/>
       <use xlink:href="#DejaVuSans-30" x="63.623047"/>
       <use xlink:href="#DejaVuSans-30" x="127.246094"/>
       <use xlink:href="#DejaVuSans-30" x="190.869141"/>
       <use xlink:href="#DejaVuSans-30" x="254.492188"/>
      </g>
     </g>
    </g>
    <g id="xtick_6">
     <g id="line2d_6">
      <g>
       <use xlink:href="#m8536b86b65" x="634.825057" y="528.1975" style="stroke: #000000; stroke-width: 0.8"/>
      </g>
     </g>
     <g id="text_6">
      <!-- 25000 -->
      <g transform="translate(618.918807 542.795938) scale(0.1 -0.1)">
       <use xlink:href="#DejaVuSans-32"/>
       <use xlink:href="#DejaVuSans-35" x="63.623047"/>
       <use xlink:href="#DejaVuSans-30" x="127.246094"/>
       <use xlink:href="#DejaVuSans-30" x="190.869141"/>
       <use xlink:href="#DejaVuSans-30" x="254.492188"/>
      </g>
     </g>
    </g>
    <g id="text_7">
     <!-- Iteration -->
     <g transform="translate(334.906563 557.99375) scale(0.12 -0.12)">
      <defs>
       <path id="DejaVuSans-49" d="M 628 4666 
L 1259 4666 
L 1259 0 
L 628 0 
L 628 4666 
z
" transform="scale(0.015625)"/>
       <path id="DejaVuSans-74" d="M 1172 4494 
L 1172 3500 
L 2356 3500 
L 2356 3053 
L 1172 3053 
L 1172 1153 
Q 1172 725 1289 603 
Q 1406 481 1766 481 
L 2356 481 
L 2356 0 
L 1766 0 
Q 1100 0 847 248 
Q 594 497 594 1153 
L 594 3053 
L 172 3053 
L 172 3500 
L 594 3500 
L 594 4494 
L 1172 4494 
z
" transform="scale(0.015625)"/>
       <path id="DejaVuSans-65" d="M 3597 1894 
L 3597 1613 
L 953 1613 
Q 991 1019 1311 708 
Q 1631 397 2203 397 
Q 2534 397 2845 478 
Q 3156 559 3463 722 
L 3463 178 
Q 3153 47 2828 -22 
Q 2503 -91 2169 -91 
Q 1331 -91 842 396 
Q 353 884 353 1716 
Q 353 2575 817 3079 
Q 1281 3584 2069 3584 
Q 2775 3584 3186 3129 
Q 3597 2675 3597 1894 
z
M 3022 2063 
Q 3016 2534 2758 2815 
Q 2500 3097 2075 3097 
Q 1594 3097 1305 2825 
Q 1016 2553 972 2059 
L 3022 2063 
z
" transform="scale(0.015625)"/>
       <path id="DejaVuSans-72" d="M 2631 2963 
Q 2534 3019 2420 3045 
Q 2306 3072 2169 3072 
Q 1681 3072 1420 2755 
Q 1159 2438 1159 1844 
L 1159 0 
L 581 0 
L 581 3500 
L 1159 3500 
L 1159 2956 
Q 1341 3275 1631 3429 
Q 1922 3584 2338 3584 
Q 2397 3584 2469 3576 
Q 2541 3569 2628 3553 
L 2631 2963 
z
" transform="scale(0.015625)"/>
       <path id="DejaVuSans-61" d="M 2194 1759 
Q 1497 1759 1228 1600 
Q 959 1441 959 1056 
Q 959 750 1161 570 
Q 1363 391 1709 391 
Q 2188 391 2477 730 
Q 2766 1069 2766 1631 
L 2766 1759 
L 2194 1759 
z
M 3341 1997 
L 3341 0 
L 2766 0 
L 2766 531 
Q 2569 213 2275 61 
Q 1981 -91 1556 -91 
Q 1019 -91 701 211 
Q 384 513 384 1019 
Q 384 1609 779 1909 
Q 1175 2209 1959 2209 
L 2766 2209 
L 2766 2266 
Q 2766 2663 2505 2880 
Q 2244 3097 1772 3097 
Q 1472 3097 1187 3025 
Q 903 2953 641 2809 
L 641 3341 
Q 956 3463 1253 3523 
Q 1550 3584 1831 3584 
Q 2591 3584 2966 3190 
Q 3341 2797 3341 1997 
z
" transform="scale(0.015625)"/>
       <path id="DejaVuSans-69" d="M 603 3500 
L 1178 3500 
L 1178 0 
L 603 0 
L 603 3500 
z
M 603 4863 
L 1178 4863 
L 1178 4134 
L 603 4134 
L 603 4863 
z
" transform="scale(0.015625)"/>
       <path id="DejaVuSans-6f" d="M 1959 3097 
Q 1497 3097 1228 2736 
Q 959 2375 959 1747 
Q 959 1119 1226 758 
Q 1494 397 1959 397 
Q 2419 397 2687 759 
Q 2956 1122 2956 1747 
Q 2956 2369 2687 2733 
Q 2419 3097 1959 3097 
z
M 1959 3584 
Q 2709 3584 3137 3096 
Q 3566 2609 3566 1747 
Q 3566 888 3137 398 
Q 2709 -91 1959 -91 
Q 1206 -91 779 398 
Q 353 888 353 1747 
Q 353 2609 779 3096 
Q 1206 3584 1959 3584 
z
" transform="scale(0.015625)"/>
       <path id="DejaVuSans-6e" d="M 3513 2113 
L 3513 0 
L 2938 0 
L 2938 2094 
Q 2938 2591 2744 2837 
Q 2550 3084 2163 3084 
Q 1697 3084 1428 2787 
Q 1159 2491 1159 1978 
L 1159 0 
L 581 0 
L 581 3500 
L 1159 3500 
L 1159 2956 
Q 1366 3272 1645 3428 
Q 1925 3584 2291 3584 
Q 2894 3584 3203 3211 
Q 3513 2838 3513 2113 
z
" transform="scale(0.015625)"/>
      </defs>
      <use xlink:href="#DejaVuSans-49"/>
      <use xlink:href="#DejaVuSans-74" x="29.492188"/>
      <use xlink:href="#DejaVuSans-65" x="68.701172"/>
      <use xlink:href="#DejaVuSans-72" x="130.224609"/>
      <use xlink:href="#DejaVuSans-61" x="171.337891"/>
      <use xlink:href="#DejaVuSans-74" x="232.617188"/>
      <use xlink:href="#DejaVuSans-69" x="271.826172"/>
      <use xlink:href="#DejaVuSans-6f" x="299.609375"/>
      <use xlink:href="#DejaVuSans-6e" x="360.791016"/>
     </g>
    </g>
   </g>
   <g id="matplotlib.axis_2">
    <g id="ytick_1">
     <g id="line2d_7">
      <path d="M 58.441875 483.912482 
L 662.271875 483.912482 
" clip-path="url(#p0378ace641)" style="fill: none; stroke-dasharray: 2.96,1.28; stroke-dashoffset: 0; stroke: #b0b0b0; stroke-opacity: 0.7; stroke-width: 0.8"/>
     </g>
     <g id="line2d_8">
      <defs>
       <path id="mf80b5c74ab" d="M 0 0 
L -3.5 0 
" style="stroke: #000000; stroke-width: 0.8"/>
      </defs>
      <g>
       <use xlink:href="#mf80b5c74ab" x="58.441875" y="483.912482" style="stroke: #000000; stroke-width: 0.8"/>
      </g>
     </g>
     <g id="text_8">
      <!-- 0.500 -->
      <g transform="translate(22.81375 487.711701) scale(0.1 -0.1)">
       <defs>
        <path id="DejaVuSans-2e" d="M 684 794 
L 1344 794 
L 1344 0 
L 684 0 
L 684 794 
z
" transform="scale(0.015625)"/>
       </defs>
       <use xlink:href="#DejaVuSans-30"/>
       <use xlink:href="#DejaVuSans-2e" x="63.623047"/>
       <use xlink:href="#DejaVuSans-35" x="95.410156"/>
       <use xlink:href="#DejaVuSans-30" x="159.033203"/>
       <use xlink:href="#DejaVuSans-30" x="222.65625"/>
      </g>
     </g>
    </g>
    <g id="ytick_2">
     <g id="line2d_9">
      <path d="M 58.441875 422.12496 
L 662.271875 422.12496 
" clip-path="url(#p0378ace641)" style="fill: none; stroke-dasharray: 2.96,1.28; stroke-dashoffset: 0; stroke: #b0b0b0; stroke-opacity: 0.7; stroke-width: 0.8"/>
     </g>
     <g id="line2d_10">
      <g>
       <use xlink:href="#mf80b5c74ab" x="58.441875" y="422.12496" style="stroke: #000000; stroke-width: 0.8"/>
      </g>
     </g>
     <g id="text_9">
      <!-- 0.525 -->
      <g transform="translate(22.81375 425.924179) scale(0.1 -0.1)">
       <use xlink:href="#DejaVuSans-30"/>
       <use xlink:href="#DejaVuSans-2e" x="63.623047"/>
       <use xlink:href="#DejaVuSans-35" x="95.410156"/>
       <use xlink:href="#DejaVuSans-32" x="159.033203"/>
       <use xlink:href="#DejaVuSans-35" x="222.65625"/>
      </g>
     </g>
    </g>
    <g id="ytick_3">
     <g id="line2d_11">
      <path d="M 58.441875 360.337438 
L 662.271875 360.337438 
" clip-path="url(#p0378ace641)" style="fill: none; stroke-dasharray: 2.96,1.28; stroke-dashoffset: 0; stroke: #b0b0b0; stroke-opacity: 0.7; stroke-width: 0.8"/>
     </g>
     <g id="line2d_12">
      <g>
       <use xlink:href="#mf80b5c74ab" x="58.441875" y="360.337438" style="stroke: #000000; stroke-width: 0.8"/>
      </g>
     </g>
     <g id="text_10">
      <!-- 0.550 -->
      <g transform="translate(22.81375 364.136657) scale(0.1 -0.1)">
       <use xlink:href="#DejaVuSans-30"/>
       <use xlink:href="#DejaVuSans-2e" x="63.623047"/>
       <use xlink:href="#DejaVuSans-35" x="95.410156"/>
       <use xlink:href="#DejaVuSans-35" x="159.033203"/>
       <use xlink:href="#DejaVuSans-30" x="222.65625"/>
      </g>
     </g>
    </g>
    <g id="ytick_4">
     <g id="line2d_13">
      <path d="M 58.441875 298.549917 
L 662.271875 298.549917 
" clip-path="url(#p0378ace641)" style="fill: none; stroke-dasharray: 2.96,1.28; stroke-dashoffset: 0; stroke: #b0b0b0; stroke-opacity: 0.7; stroke-width: 0.8"/>
     </g>
     <g id="line2d_14">
      <g>
       <use xlink:href="#mf80b5c74ab" x="58.441875" y="298.549917" style="stroke: #000000; stroke-width: 0.8"/>
      </g>
     </g>
     <g id="text_11">
      <!-- 0.575 -->
      <g transform="translate(22.81375 302.349135) scale(0.1 -0.1)">
       <defs>
        <path id="DejaVuSans-37" d="M 525 4666 
L 3525 4666 
L 3525 4397 
L 1831 0 
L 1172 0 
L 2766 4134 
L 525 4134 
L 525 4666 
z
" transform="scale(0.015625)"/>
       </defs>
       <use xlink:href="#DejaVuSans-30"/>
       <use xlink:href="#DejaVuSans-2e" x="63.623047"/>
       <use xlink:href="#DejaVuSans-35" x="95.410156"/>
       <use xlink:href="#DejaVuSans-37" x="159.033203"/>
       <use xlink:href="#DejaVuSans-35" x="222.65625"/>
      </g>
     </g>
    </g>
    <g id="ytick_5">
     <g id="line2d_15">
      <path d="M 58.441875 236.762395 
L 662.271875 236.762395 
" clip-path="url(#p0378ace641)" style="fill: none; stroke-dasharray: 2.96,1.28; stroke-dashoffset: 0; stroke: #b0b0b0; stroke-opacity: 0.7; stroke-width: 0.8"/>
     </g>
     <g id="line2d_16">
      <g>
       <use xlink:href="#mf80b5c74ab" x="58.441875" y="236.762395" style="stroke: #000000; stroke-width: 0.8"/>
      </g>
     </g>
     <g id="text_12">
      <!-- 0.600 -->
      <g transform="translate(22.81375 240.561614) scale(0.1 -0.1)">
       <defs>
        <path id="DejaVuSans-36" d="M 2113 2584 
Q 1688 2584 1439 2293 
Q 1191 2003 1191 1497 
Q 1191 994 1439 701 
Q 1688 409 2113 409 
Q 2538 409 2786 701 
Q 3034 994 3034 1497 
Q 3034 2003 2786 2293 
Q 2538 2584 2113 2584 
z
M 3366 4563 
L 3366 3988 
Q 3128 4100 2886 4159 
Q 2644 4219 2406 4219 
Q 1781 4219 1451 3797 
Q 1122 3375 1075 2522 
Q 1259 2794 1537 2939 
Q 1816 3084 2150 3084 
Q 2853 3084 3261 2657 
Q 3669 2231 3669 1497 
Q 3669 778 3244 343 
Q 2819 -91 2113 -91 
Q 1303 -91 875 529 
Q 447 1150 447 2328 
Q 447 3434 972 4092 
Q 1497 4750 2381 4750 
Q 2619 4750 2861 4703 
Q 3103 4656 3366 4563 
z
" transform="scale(0.015625)"/>
       </defs>
       <use xlink:href="#DejaVuSans-30"/>
       <use xlink:href="#DejaVuSans-2e" x="63.623047"/>
       <use xlink:href="#DejaVuSans-36" x="95.410156"/>
       <use xlink:href="#DejaVuSans-30" x="159.033203"/>
       <use xlink:href="#DejaVuSans-30" x="222.65625"/>
      </g>
     </g>
    </g>
    <g id="ytick_6">
     <g id="line2d_17">
      <path d="M 58.441875 174.974873 
L 662.271875 174.974873 
" clip-path="url(#p0378ace641)" style="fill: none; stroke-dasharray: 2.96,1.28; stroke-dashoffset: 0; stroke: #b0b0b0; stroke-opacity: 0.7; stroke-width: 0.8"/>
     </g>
     <g id="line2d_18">
      <g>
       <use xlink:href="#mf80b5c74ab" x="58.441875" y="174.974873" style="stroke: #000000; stroke-width: 0.8"/>
      </g>
     </g>
     <g id="text_13">
      <!-- 0.625 -->
      <g transform="translate(22.81375 178.774092) scale(0.1 -0.1)">
       <use xlink:href="#DejaVuSans-30"/>
       <use xlink:href="#DejaVuSans-2e" x="63.623047"/>
       <use xlink:href="#DejaVuSans-36" x="95.410156"/>
       <use xlink:href="#DejaVuSans-32" x="159.033203"/>
       <use xlink:href="#DejaVuSans-35" x="222.65625"/>
      </g>
     </g>
    </g>
    <g id="ytick_7">
     <g id="line2d_19">
      <path d="M 58.441875 113.187352 
L 662.271875 113.187352 
" clip-path="url(#p0378ace641)" style="fill: none; stroke-dasharray: 2.96,1.28; stroke-dashoffset: 0; stroke: #b0b0b0; stroke-opacity: 0.7; stroke-width: 0.8"/>
     </g>
     <g id="line2d_20">
      <g>
       <use xlink:href="#mf80b5c74ab" x="58.441875" y="113.187352" style="stroke: #000000; stroke-width: 0.8"/>
      </g>
     </g>
     <g id="text_14">
      <!-- 0.650 -->
      <g transform="translate(22.81375 116.98657) scale(0.1 -0.1)">
       <use xlink:href="#DejaVuSans-30"/>
       <use xlink:href="#DejaVuSans-2e" x="63.623047"/>
       <use xlink:href="#DejaVuSans-36" x="95.410156"/>
       <use xlink:href="#DejaVuSans-35" x="159.033203"/>
       <use xlink:href="#DejaVuSans-30" x="222.65625"/>
      </g>
     </g>
    </g>
    <g id="ytick_8">
     <g id="line2d_21">
      <path d="M 58.441875 51.39983 
L 662.271875 51.39983 
" clip-path="url(#p0378ace641)" style="fill: none; stroke-dasharray: 2.96,1.28; stroke-dashoffset: 0; stroke: #b0b0b0; stroke-opacity: 0.7; stroke-width: 0.8"/>
     </g>
     <g id="line2d_22">
      <g>
       <use xlink:href="#mf80b5c74ab" x="58.441875" y="51.39983" style="stroke: #000000; stroke-width: 0.8"/>
      </g>
     </g>
     <g id="text_15">
      <!-- 0.675 -->
      <g transform="translate(22.81375 55.199049) scale(0.1 -0.1)">
       <use xlink:href="#DejaVuSans-30"/>
       <use xlink:href="#DejaVuSans-2e" x="63.623047"/>
       <use xlink:href="#DejaVuSans-36" x="95.410156"/>
       <use xlink:href="#DejaVuSans-37" x="159.033203"/>
       <use xlink:href="#DejaVuSans-35" x="222.65625"/>
      </g>
     </g>
    </g>
    <g id="text_16">
     <!-- Mean Credence -->
     <g transform="translate(16.318125 323.54) rotate(-90) scale(0.12 -0.12)">
      <defs>
       <path id="DejaVuSans-4d" d="M 628 4666 
L 1569 4666 
L 2759 1491 
L 3956 4666 
L 4897 4666 
L 4897 0 
L 4281 0 
L 4281 4097 
L 3078 897 
L 2444 897 
L 1241 4097 
L 1241 0 
L 628 0 
L 628 4666 
z
" transform="scale(0.015625)"/>
       <path id="DejaVuSans-20" transform="scale(0.015625)"/>
       <path id="DejaVuSans-43" d="M 4122 4306 
L 4122 3641 
Q 3803 3938 3442 4084 
Q 3081 4231 2675 4231 
Q 1875 4231 1450 3742 
Q 1025 3253 1025 2328 
Q 1025 1406 1450 917 
Q 1875 428 2675 428 
Q 3081 428 3442 575 
Q 3803 722 4122 1019 
L 4122 359 
Q 3791 134 3420 21 
Q 3050 -91 2638 -91 
Q 1578 -91 968 557 
Q 359 1206 359 2328 
Q 359 3453 968 4101 
Q 1578 4750 2638 4750 
Q 3056 4750 3426 4639 
Q 3797 4528 4122 4306 
z
" transform="scale(0.015625)"/>
       <path id="DejaVuSans-64" d="M 2906 2969 
L 2906 4863 
L 3481 4863 
L 3481 0 
L 2906 0 
L 2906 525 
Q 2725 213 2448 61 
Q 2172 -91 1784 -91 
Q 1150 -91 751 415 
Q 353 922 353 1747 
Q 353 2572 751 3078 
Q 1150 3584 1784 3584 
Q 2172 3584 2448 3432 
Q 2725 3281 2906 2969 
z
M 947 1747 
Q 947 1113 1208 752 
Q 1469 391 1925 391 
Q 2381 391 2643 752 
Q 2906 1113 2906 1747 
Q 2906 2381 2643 2742 
Q 2381 3103 1925 3103 
Q 1469 3103 1208 2742 
Q 947 2381 947 1747 
z
" transform="scale(0.015625)"/>
       <path id="DejaVuSans-63" d="M 3122 3366 
L 3122 2828 
Q 2878 2963 2633 3030 
Q 2388 3097 2138 3097 
Q 1578 3097 1268 2742 
Q 959 2388 959 1747 
Q 959 1106 1268 751 
Q 1578 397 2138 397 
Q 2388 397 2633 464 
Q 2878 531 3122 666 
L 3122 134 
Q 2881 22 2623 -34 
Q 2366 -91 2075 -91 
Q 1284 -91 818 406 
Q 353 903 353 1747 
Q 353 2603 823 3093 
Q 1294 3584 2113 3584 
Q 2378 3584 2631 3529 
Q 2884 3475 3122 3366 
z
" transform="scale(0.015625)"/>
      </defs>
      <use xlink:href="#DejaVuSans-4d"/>
      <use xlink:href="#DejaVuSans-65" x="86.279297"/>
      <use xlink:href="#DejaVuSans-61" x="147.802734"/>
      <use xlink:href="#DejaVuSans-6e" x="209.082031"/>
      <use xlink:href="#DejaVuSans-20" x="272.460938"/>
      <use xlink:href="#DejaVuSans-43" x="304.248047"/>
      <use xlink:href="#DejaVuSans-72" x="374.072266"/>
      <use xlink:href="#DejaVuSans-65" x="412.935547"/>
      <use xlink:href="#DejaVuSans-64" x="474.458984"/>
      <use xlink:href="#DejaVuSans-65" x="537.935547"/>
      <use xlink:href="#DejaVuSans-6e" x="599.458984"/>
      <use xlink:href="#DejaVuSans-63" x="662.837891"/>
      <use xlink:href="#DejaVuSans-65" x="717.818359"/>
     </g>
    </g>
   </g>
   <g id="line2d_23">
    <path d="M 85.888693 487.252287 
L 85.910651 486.737723 
L 88.084439 470.069928 
L 92.47593 443.138619 
L 94.671675 443.968728 
L 96.86742 435.134666 
L 99.063166 431.35712 
L 101.258911 432.323788 
L 103.454657 432.96018 
L 105.650402 413.899507 
L 107.846148 416.260197 
L 110.041893 400.753301 
L 112.237639 393.405626 
L 114.433384 380.590875 
L 116.62913 369.439433 
L 118.824875 371.434787 
L 121.02062 365.876375 
L 123.216366 363.093192 
L 125.412111 357.965523 
L 127.607857 345.880854 
L 129.803602 345.112176 
L 131.999348 337.08038 
L 134.195093 322.329936 
L 136.390839 320.844432 
L 138.586584 316.110089 
L 140.78233 309.036859 
L 142.978075 298.534773 
L 145.17382 293.309878 
L 147.369566 284.56936 
L 149.565311 284.08691 
L 151.761057 280.389061 
L 153.956802 287.190351 
L 156.152548 279.724385 
L 158.348293 271.401057 
L 160.544039 271.257427 
L 162.739784 260.548808 
L 164.93553 258.30479 
L 169.32702 248.491834 
L 171.522766 242.406484 
L 173.718511 235.579708 
L 175.914257 231.346376 
L 178.110002 235.573079 
L 180.305748 231.358456 
L 182.501493 236.222876 
L 184.697239 231.758263 
L 186.892984 221.987291 
L 189.08873 216.157234 
L 191.284475 217.10534 
L 193.48022 221.67484 
L 195.675966 213.451243 
L 197.871711 202.98186 
L 200.067457 206.961814 
L 202.263202 204.490345 
L 204.458948 196.418333 
L 206.654693 198.928251 
L 208.850439 199.038883 
L 211.046184 204.21649 
L 213.24193 207.101319 
L 215.437675 192.658759 
L 217.63342 187.651888 
L 219.829166 182.300303 
L 222.024911 188.403184 
L 224.220657 182.131777 
L 226.416402 179.753557 
L 228.612148 183.625383 
L 230.807893 172.533603 
L 233.003639 165.123616 
L 235.199384 159.248039 
L 237.39513 154.966684 
L 239.590875 149.794232 
L 241.78662 150.854885 
L 243.982366 144.862195 
L 246.178111 146.928701 
L 248.373857 146.390567 
L 250.569602 141.865408 
L 252.765348 145.573422 
L 254.961093 148.308876 
L 257.156839 145.852285 
L 259.352584 145.301335 
L 263.744075 133.634298 
L 265.93982 128.33884 
L 268.135566 128.323667 
L 270.331311 129.643443 
L 272.527057 129.31744 
L 274.722802 130.862753 
L 276.918548 127.750325 
L 279.114293 126.174371 
L 281.310039 126.581986 
L 283.505784 123.564133 
L 285.70153 122.618974 
L 287.897275 118.167324 
L 290.09302 114.497612 
L 292.288766 113.90615 
L 294.484511 111.696751 
L 296.680257 111.367801 
L 298.876002 110.91393 
L 301.071748 111.921698 
L 303.267493 111.684524 
L 305.463239 111.279266 
L 307.658984 111.970606 
L 309.85473 108.334039 
L 312.050475 108.6459 
L 316.441966 102.189911 
L 318.637711 101.514628 
L 320.833457 103.443986 
L 323.029202 103.862944 
L 325.224948 105.520804 
L 327.420693 106.995848 
L 329.616439 106.193876 
L 331.812184 105.984397 
L 334.00793 103.259845 
L 336.203675 101.358329 
L 338.39942 99.901699 
L 340.595166 91.520919 
L 342.790911 90.827665 
L 344.986657 87.767533 
L 347.182402 85.823444 
L 349.378148 84.295956 
L 351.573893 86.876584 
L 353.769639 87.145872 
L 355.965384 83.425926 
L 358.16113 83.156638 
L 360.356875 81.5826 
L 362.55262 82.119555 
L 364.748366 81.583336 
L 366.944111 82.04693 
L 369.139857 79.774923 
L 371.335602 79.657072 
L 373.531348 78.116768 
L 377.922839 78.631185 
L 380.118584 79.159449 
L 382.31433 79.896898 
L 384.510075 78.123987 
L 386.70582 75.359807 
L 388.901566 75.432137 
L 391.097311 73.395831 
L 393.293057 74.251719 
L 397.684548 72.909551 
L 399.880293 71.270547 
L 402.076039 70.686746 
L 404.271784 72.116418 
L 406.46753 71.394143 
L 408.663275 70.917733 
L 410.85902 71.905466 
L 413.054766 71.577105 
L 415.250511 70.280899 
L 417.446257 70.690871 
L 419.642002 69.883154 
L 421.837748 69.35489 
L 424.033493 68.650292 
L 426.229239 70.74464 
L 428.424984 71.039855 
L 430.62073 69.458156 
L 432.816475 69.483347 
L 435.01222 68.698611 
L 437.207966 69.047153 
L 439.403711 69.017396 
L 441.599457 69.408806 
L 443.795202 69.047006 
L 445.990948 69.030507 
L 452.578184 68.533767 
L 456.969675 67.863641 
L 461.361166 67.622048 
L 463.556911 67.196608 
L 467.948402 67.500073 
L 470.144148 67.498305 
L 474.535639 67.875131 
L 476.731384 67.812671 
L 478.92713 67.501988 
L 481.122875 67.552663 
L 483.31862 67.070803 
L 487.710111 67.321824 
L 492.101602 67.1477 
L 494.297348 67.218263 
L 496.493093 67.562091 
L 500.884584 67.397101 
L 505.276075 67.667567 
L 514.059057 66.937043 
L 516.254802 66.972398 
L 520.646293 66.746272 
L 525.037784 66.730363 
L 536.016511 67.044876 
L 540.408002 66.816983 
L 544.799493 66.850865 
L 566.756948 66.651697 
L 568.952693 66.830093 
L 571.148439 66.68941 
L 573.344184 66.994937 
L 575.53993 66.888577 
L 577.735675 66.576715 
L 579.93142 66.615017 
L 586.518657 66.450173 
L 590.910148 66.514696 
L 593.105893 48.420249 
L 606.280366 48.296359 
L 628.23782 48.261004 
L 634.825057 48.370899 
L 634.825057 48.370899 
" clip-path="url(#p0378ace641)" style="fill: none; stroke: #1f77b4; stroke-width: 2.5; stroke-linecap: square"/>
   </g>
   <g id="line2d_24">
    <path d="M 85.888693 505.091146 
L 85.910651 505.341136 
L 88.084439 498.288161 
L 90.280184 486.214688 
L 92.47593 499.205405 
L 94.671675 494.659476 
L 96.86742 485.932805 
L 99.063166 483.600915 
L 101.258911 484.043959 
L 103.454657 474.984876 
L 105.650402 460.326798 
L 107.846148 447.820814 
L 110.041893 438.722472 
L 112.237639 426.353342 
L 114.433384 425.276043 
L 116.62913 428.837627 
L 118.824875 421.183984 
L 121.02062 421.227736 
L 123.216366 410.286657 
L 125.412111 407.396378 
L 127.607857 414.573169 
L 129.803602 417.009725 
L 131.999348 415.658423 
L 134.195093 408.208366 
L 136.390839 414.356766 
L 138.586584 410.662453 
L 142.978075 402.055989 
L 145.17382 391.938242 
L 147.369566 391.576884 
L 149.565311 377.406116 
L 151.761057 366.956326 
L 153.956802 362.686608 
L 156.152548 366.659933 
L 158.348293 371.45541 
L 160.544039 368.167239 
L 162.739784 367.476341 
L 164.93553 360.680943 
L 167.131275 358.050081 
L 169.32702 358.074093 
L 171.522766 361.334128 
L 173.718511 363.836975 
L 175.914257 362.802396 
L 178.110002 349.522577 
L 180.305748 357.481453 
L 182.501493 357.132174 
L 184.697239 358.061277 
L 186.892984 343.327332 
L 191.284475 331.942841 
L 193.48022 332.376236 
L 195.675966 342.256072 
L 197.871711 339.871223 
L 200.067457 343.156154 
L 202.263202 340.945724 
L 204.458948 342.014185 
L 206.654693 328.843083 
L 208.850439 330.621886 
L 211.046184 323.972033 
L 213.24193 322.227996 
L 215.437675 325.869718 
L 217.63342 324.232777 
L 219.829166 316.802166 
L 222.024911 308.156075 
L 224.220657 309.807748 
L 226.416402 306.501898 
L 228.612148 306.784739 
L 230.807893 301.524047 
L 233.003639 300.016004 
L 235.199384 309.321026 
L 237.39513 313.654236 
L 239.590875 312.753122 
L 241.78662 313.540363 
L 243.982366 311.990631 
L 246.178111 302.10063 
L 248.373857 303.845846 
L 250.569602 302.879473 
L 252.765348 302.303185 
L 254.961093 301.202315 
L 257.156839 299.062595 
L 259.352584 300.342597 
L 261.54833 303.008225 
L 263.744075 309.046582 
L 265.93982 301.684765 
L 268.135566 300.57653 
L 270.331311 299.14347 
L 272.527057 302.018429 
L 274.722802 295.27459 
L 276.918548 293.732371 
L 279.114293 286.947285 
L 281.310039 291.826289 
L 285.70153 292.654777 
L 287.897275 293.826946 
L 290.09302 291.819218 
L 292.288766 291.769279 
L 294.484511 297.254624 
L 296.680257 311.183356 
L 298.876002 316.329586 
L 301.071748 306.273121 
L 303.267493 308.041024 
L 305.463239 305.832803 
L 307.658984 303.254974 
L 309.85473 294.702722 
L 312.050475 290.020822 
L 314.24622 286.207774 
L 316.441966 281.600415 
L 318.637711 282.745036 
L 320.833457 283.667068 
L 323.029202 288.285476 
L 325.224948 292.010725 
L 327.420693 289.593615 
L 329.616439 285.219157 
L 331.812184 291.900977 
L 334.00793 291.78018 
L 336.203675 292.291504 
L 338.39942 292.141834 
L 340.595166 296.627807 
L 342.790911 295.705628 
L 344.986657 297.608617 
L 347.182402 290.286575 
L 349.378148 289.975892 
L 351.573893 288.77809 
L 353.769639 287.796397 
L 355.965384 286.065323 
L 358.16113 280.871805 
L 360.356875 278.322555 
L 362.55262 277.225221 
L 364.748366 275.308974 
L 366.944111 275.328861 
L 369.139857 278.683472 
L 371.335602 276.125235 
L 373.531348 271.791141 
L 375.727093 270.954109 
L 377.922839 267.664317 
L 380.118584 270.178801 
L 382.31433 261.386724 
L 384.510075 254.665129 
L 386.70582 258.200492 
L 388.901566 259.890172 
L 391.097311 261.418396 
L 393.293057 263.925515 
L 395.488802 258.549477 
L 397.684548 251.178821 
L 399.880293 250.403219 
L 402.076039 249.808222 
L 404.271784 251.272071 
L 406.46753 245.249181 
L 408.663275 237.850979 
L 410.85902 237.279257 
L 413.054766 241.457199 
L 415.250511 243.591911 
L 417.446257 241.534097 
L 419.642002 242.638502 
L 421.837748 236.441783 
L 424.033493 233.671858 
L 426.229239 229.764235 
L 428.424984 234.661948 
L 430.62073 238.28673 
L 432.816475 234.273631 
L 435.01222 236.350154 
L 437.207966 232.330279 
L 439.403711 231.735724 
L 441.599457 229.252912 
L 443.795202 221.830255 
L 445.990948 218.462976 
L 448.186693 217.881238 
L 452.578184 223.576356 
L 454.77393 227.342116 
L 456.969675 222.319482 
L 459.16542 220.376719 
L 461.361166 222.136372 
L 465.752657 223.625558 
L 467.948402 228.096064 
L 470.144148 229.157159 
L 472.339893 227.931957 
L 474.535639 227.120115 
L 476.731384 231.08357 
L 478.92713 227.950666 
L 481.122875 223.397812 
L 483.31862 227.301016 
L 485.514366 227.730433 
L 487.710111 234.5796 
L 489.905857 239.320278 
L 492.101602 243.135683 
L 494.297348 246.294514 
L 496.493093 248.340396 
L 498.688839 244.425407 
L 500.884584 244.645935 
L 503.08033 246.930611 
L 505.276075 251.500848 
L 507.47182 249.117472 
L 509.667566 244.450009 
L 511.863311 252.786595 
L 514.059057 250.59119 
L 516.254802 251.926435 
L 518.450548 244.818586 
L 520.646293 244.563734 
L 522.842039 250.443435 
L 525.037784 248.249504 
L 527.23353 247.25411 
L 529.429275 249.986176 
L 531.62502 244.839209 
L 533.820766 247.273114 
L 536.016511 247.310089 
L 538.212257 251.859407 
L 540.408002 251.623706 
L 542.603748 250.263714 
L 544.799493 252.045316 
L 546.995239 232.375799 
L 549.190984 236.266628 
L 551.38673 235.931491 
L 553.582475 234.331967 
L 555.77822 235.197725 
L 557.973966 231.285831 
L 560.169711 240.881648 
L 562.365457 243.954153 
L 564.561202 243.630065 
L 566.756948 241.347156 
L 568.952693 245.629101 
L 571.148439 248.145943 
L 573.344184 252.195281 
L 575.53993 255.311391 
L 577.735675 253.921494 
L 579.93142 253.202901 
L 582.127166 250.72878 
L 584.322911 249.230019 
L 586.518657 248.669346 
L 588.714402 245.658859 
L 590.910148 244.882519 
L 593.105893 239.501325 
L 595.301639 244.611169 
L 597.497384 239.110799 
L 599.69313 241.771712 
L 601.888875 245.942141 
L 606.280366 249.099205 
L 608.476111 247.939852 
L 612.867602 239.387158 
L 615.063348 236.158206 
L 617.259093 237.928171 
L 619.454839 239.197419 
L 621.650584 240.760409 
L 623.84633 240.673494 
L 626.042075 239.043919 
L 628.23782 239.872407 
L 630.433566 236.130953 
L 632.629311 231.955073 
L 634.825057 233.036792 
L 634.825057 233.036792 
" clip-path="url(#p0378ace641)" style="fill: none; stroke: #ff7f0e; stroke-width: 2.5; stroke-linecap: square"/>
   </g>
   <g id="line2d_25">
    <path d="M 85.888693 487.811487 
L 85.910651 487.184449 
L 88.084439 496.806709 
L 90.280184 503.910949 
L 92.47593 505.046142 
L 94.671675 492.514157 
L 96.86742 484.816247 
L 99.063166 489.864072 
L 101.258911 486.676514 
L 103.454657 478.075943 
L 105.650402 476.944286 
L 107.846148 484.993906 
L 110.041893 479.674878 
L 112.237639 480.540341 
L 114.433384 491.660847 
L 116.62913 486.628932 
L 118.824875 493.163366 
L 121.02062 484.337922 
L 123.216366 469.764401 
L 125.412111 462.183235 
L 127.607857 464.249446 
L 129.803602 465.738338 
L 131.999348 464.477045 
L 134.195093 456.754164 
L 136.390839 461.579252 
L 138.586584 461.48674 
L 140.78233 459.554141 
L 142.978075 453.941224 
L 145.17382 451.690724 
L 147.369566 457.697262 
L 149.565311 453.581338 
L 151.761057 460.426676 
L 153.956802 457.904826 
L 156.152548 461.290077 
L 158.348293 454.858247 
L 160.544039 453.935184 
L 162.739784 449.333275 
L 164.93553 450.991577 
L 167.131275 444.051518 
L 169.32702 450.571293 
L 171.522766 446.92412 
L 173.718511 449.182132 
L 175.914257 440.583182 
L 178.110002 436.739346 
L 180.305748 437.289559 
L 182.501493 420.109925 
L 184.697239 426.54205 
L 186.892984 437.087151 
L 189.08873 426.780992 
L 191.284475 423.033351 
L 193.48022 416.266236 
L 195.675966 413.44431 
L 197.871711 409.450214 
L 200.067457 406.288142 
L 202.263202 406.498063 
L 204.458948 404.345379 
L 206.654693 405.674584 
L 208.850439 404.918427 
L 211.046184 409.187555 
L 213.24193 408.576501 
L 215.437675 402.822311 
L 219.829166 395.999218 
L 222.024911 396.166124 
L 224.220657 397.710847 
L 226.416402 401.108914 
L 228.612148 402.953861 
L 230.807893 399.743029 
L 233.003639 402.321447 
L 235.199384 399.375778 
L 237.39513 392.274705 
L 239.590875 391.149824 
L 241.78662 393.460427 
L 243.982366 383.397039 
L 246.178111 376.30289 
L 248.373857 378.057387 
L 250.569602 380.906272 
L 252.765348 380.816411 
L 254.961093 381.459726 
L 257.156839 377.731089 
L 259.352584 377.357061 
L 261.54833 378.469274 
L 263.744075 378.534091 
L 265.93982 372.935022 
L 268.135566 374.315638 
L 270.331311 371.894108 
L 272.527057 372.509287 
L 274.722802 379.060146 
L 276.918548 376.503088 
L 279.114293 376.109026 
L 281.310039 377.05669 
L 283.505784 375.975413 
L 285.70153 376.179294 
L 287.897275 376.998649 
L 290.09302 372.508698 
L 292.288766 369.132286 
L 294.484511 366.912574 
L 296.680257 365.864295 
L 298.876002 360.95848 
L 301.071748 360.016267 
L 303.267493 361.572333 
L 305.463239 358.92733 
L 307.658984 355.787649 
L 309.85473 352.902231 
L 312.050475 349.281279 
L 314.24622 346.979514 
L 318.637711 348.905631 
L 320.833457 346.788007 
L 323.029202 354.85781 
L 325.224948 353.440807 
L 327.420693 352.817231 
L 329.616439 349.7982 
L 331.812184 350.7905 
L 334.00793 351.44619 
L 336.203675 351.588936 
L 338.39942 350.983332 
L 340.595166 349.282163 
L 342.790911 349.766086 
L 344.986657 354.752776 
L 347.182402 352.460881 
L 349.378148 351.536492 
L 351.573893 350.290225 
L 353.769639 347.523394 
L 355.965384 347.16174 
L 358.16113 345.962171 
L 360.356875 346.916612 
L 362.55262 347.720204 
L 364.748366 350.249567 
L 366.944111 350.650405 
L 369.139857 352.092746 
L 371.335602 352.592284 
L 373.531348 351.001894 
L 375.727093 349.894101 
L 377.922839 350.692537 
L 380.118584 352.568272 
L 382.31433 351.336883 
L 384.510075 351.5169 
L 386.70582 354.384935 
L 388.901566 350.591185 
L 391.097311 351.640201 
L 393.293057 353.276258 
L 397.684548 348.139604 
L 399.880293 349.941683 
L 402.076039 350.58323 
L 404.271784 352.967638 
L 406.46753 349.928425 
L 408.663275 353.140583 
L 410.85902 352.121472 
L 413.054766 356.195853 
L 415.250511 355.100729 
L 419.642002 354.748651 
L 421.837748 356.042058 
L 424.033493 358.460642 
L 426.229239 355.343795 
L 428.424984 356.221191 
L 430.62073 356.410635 
L 432.816475 354.774873 
L 435.01222 353.783751 
L 437.207966 353.047187 
L 439.403711 351.149207 
L 441.599457 344.7956 
L 443.795202 344.719292 
L 445.990948 345.577242 
L 448.186693 345.802779 
L 450.382439 344.948658 
L 454.77393 341.23593 
L 456.969675 343.282402 
L 461.361166 342.542301 
L 463.556911 343.59117 
L 465.752657 342.848565 
L 467.948402 342.577657 
L 470.144148 342.535378 
L 472.339893 341.74637 
L 474.535639 340.752744 
L 476.731384 339.591181 
L 478.92713 342.099921 
L 481.122875 337.22784 
L 485.514366 342.087104 
L 487.710111 341.801465 
L 489.905857 339.335004 
L 492.101602 339.679717 
L 494.297348 337.971181 
L 496.493093 339.460368 
L 498.688839 339.247648 
L 500.884584 340.193691 
L 503.08033 341.425964 
L 505.276075 341.672566 
L 507.47182 342.049392 
L 509.667566 344.039001 
L 511.863311 345.143995 
L 514.059057 345.835777 
L 516.254802 347.366653 
L 518.450548 344.697342 
L 520.646293 346.034502 
L 522.842039 341.503745 
L 525.037784 340.930109 
L 527.23353 337.916086 
L 529.429275 335.960507 
L 531.62502 338.068997 
L 533.820766 334.62099 
L 536.016511 335.140563 
L 538.212257 335.819823 
L 540.408002 335.96802 
L 542.603748 336.333209 
L 544.799493 335.08591 
L 546.995239 333.691299 
L 549.190984 336.101338 
L 551.38673 336.774706 
L 553.582475 336.644039 
L 555.77822 337.214729 
L 557.973966 334.052068 
L 560.169711 335.666912 
L 562.365457 328.897588 
L 564.561202 327.018465 
L 566.756948 323.211899 
L 568.952693 323.679764 
L 571.148439 323.631446 
L 573.344184 322.116332 
L 575.53993 323.240772 
L 577.735675 321.709159 
L 579.93142 322.841112 
L 582.127166 325.044177 
L 586.518657 325.76601 
L 588.714402 322.954248 
L 593.105893 324.85488 
L 595.301639 321.974175 
L 597.497384 321.989054 
L 599.69313 321.596318 
L 601.888875 322.146384 
L 604.08462 320.623463 
L 606.280366 322.168481 
L 608.476111 322.557535 
L 610.671857 321.678666 
L 612.867602 321.584533 
L 615.063348 319.253895 
L 617.259093 318.115608 
L 619.454839 319.429639 
L 621.650584 317.696502 
L 623.84633 317.614302 
L 628.23782 317.964465 
L 630.433566 317.369026 
L 632.629311 316.615078 
L 634.825057 316.789055 
L 634.825057 316.789055 
" clip-path="url(#p0378ace641)" style="fill: none; stroke: #2ca02c; stroke-width: 2.5; stroke-linecap: square"/>
   </g>
   <g id="line2d_26">
    <path d="M 85.888693 436.332909 
L 85.910651 436.259547 
L 90.280184 425.87428 
L 92.47593 426.584918 
L 96.86742 420.506492 
L 99.063166 416.986597 
L 101.258911 418.742125 
L 105.650402 409.962716 
L 107.846148 402.621082 
L 110.041893 402.161023 
L 112.237639 403.767029 
L 114.433384 399.509538 
L 116.62913 396.085838 
L 118.824875 395.494524 
L 121.02062 395.556543 
L 123.216366 397.867293 
L 125.412111 393.856846 
L 127.607857 390.12865 
L 129.803602 384.719319 
L 131.999348 377.888566 
L 136.390839 365.537997 
L 138.586584 373.222576 
L 140.78233 369.743487 
L 142.978075 371.250645 
L 145.17382 368.588554 
L 147.369566 364.77035 
L 149.565311 367.825473 
L 151.761057 361.486892 
L 153.956802 361.991733 
L 156.152548 363.154916 
L 158.348293 358.92895 
L 160.544039 359.596278 
L 162.739784 356.441571 
L 164.93553 352.869085 
L 167.131275 348.298554 
L 169.32702 347.582613 
L 173.718511 346.536397 
L 175.914257 347.677041 
L 178.110002 349.350221 
L 180.305748 348.49507 
L 182.501493 345.847562 
L 186.892984 345.05708 
L 189.08873 352.355552 
L 191.284475 355.092037 
L 193.48022 360.018476 
L 195.675966 363.012612 
L 197.871711 359.242285 
L 200.067457 353.908083 
L 202.263202 350.767372 
L 204.458948 353.371864 
L 206.654693 353.407219 
L 208.850439 354.770306 
L 211.046184 353.513137 
L 217.63342 345.560154 
L 219.829166 342.720108 
L 222.024911 345.66946 
L 224.220657 343.625935 
L 226.416402 346.616682 
L 228.612148 346.613442 
L 230.807893 344.49243 
L 233.003639 343.658492 
L 235.199384 343.101059 
L 237.39513 344.302691 
L 239.590875 334.6945 
L 241.78662 336.747011 
L 243.982366 334.001687 
L 246.178111 329.996101 
L 248.373857 331.8163 
L 250.569602 337.135622 
L 252.765348 338.602712 
L 254.961093 335.60018 
L 257.156839 335.466125 
L 259.352584 338.118789 
L 261.54833 333.238753 
L 263.744075 328.954304 
L 265.93982 329.018827 
L 268.135566 326.084795 
L 270.331311 321.833197 
L 272.527057 322.962498 
L 274.722802 324.686648 
L 276.918548 327.484857 
L 279.114293 330.77627 
L 281.310039 323.79187 
L 283.505784 325.82906 
L 285.70153 329.353817 
L 287.897275 328.593829 
L 290.09302 328.067038 
L 292.288766 326.435106 
L 294.484511 324.075889 
L 296.680257 317.374771 
L 298.876002 320.095935 
L 301.071748 313.45993 
L 303.267493 314.527065 
L 305.463239 315.444824 
L 307.658984 315.342736 
L 309.85473 306.357679 
L 312.050475 310.44355 
L 314.24622 309.219674 
L 316.441966 312.033793 
L 318.637711 314.331875 
L 320.833457 311.869981 
L 323.029202 312.86508 
L 325.224948 310.93204 
L 327.420693 310.875914 
L 329.616439 308.567815 
L 331.812184 306.879903 
L 334.00793 308.483404 
L 336.203675 308.394575 
L 338.39942 307.110153 
L 340.595166 303.70855 
L 342.790911 302.019608 
L 344.986657 300.47842 
L 349.378148 295.258533 
L 351.573893 296.930535 
L 353.769639 295.323793 
L 355.965384 294.583545 
L 358.16113 293.206906 
L 360.356875 293.00715 
L 362.55262 292.926717 
L 364.748366 293.923142 
L 366.944111 292.971058 
L 369.139857 291.742468 
L 371.335602 292.59762 
L 373.531348 293.661661 
L 375.727093 292.017796 
L 377.922839 291.008997 
L 380.118584 292.165109 
L 384.510075 290.577665 
L 386.70582 290.627899 
L 388.901566 291.160877 
L 391.097311 291.333675 
L 393.293057 289.984141 
L 395.488802 289.669039 
L 397.684548 290.296445 
L 399.880293 288.647571 
L 402.076039 287.598556 
L 404.271784 286.313545 
L 408.663275 285.18115 
L 410.85902 284.398624 
L 417.446257 284.187083 
L 419.642002 283.352702 
L 421.837748 283.368023 
L 428.424984 282.849334 
L 430.62073 274.189985 
L 437.207966 274.346726 
L 439.403711 274.317411 
L 441.599457 274.669489 
L 443.795202 274.480192 
L 445.990948 273.986399 
L 448.186693 274.134743 
L 450.382439 274.140783 
L 454.77393 274.568432 
L 456.969675 274.786308 
L 459.16542 274.560772 
L 463.556911 274.737989 
L 465.752657 274.277047 
L 467.948402 274.147854 
L 472.339893 274.136953 
L 474.535639 274.903274 
L 476.731384 275.482951 
L 478.92713 274.643856 
L 481.122875 274.118096 
L 483.31862 274.309603 
L 485.514366 274.044145 
L 487.710111 274.199266 
L 489.905857 274.067274 
L 492.101602 274.266146 
L 494.297348 274.103954 
L 496.493093 274.639732 
L 498.688839 275.292181 
L 500.884584 276.204784 
L 503.08033 276.08605 
L 505.276075 275.359944 
L 507.47182 274.869392 
L 509.667566 276.432088 
L 511.863311 277.163644 
L 514.059057 276.72745 
L 516.254802 276.52077 
L 518.450548 277.995667 
L 520.646293 278.989735 
L 522.842039 278.236966 
L 525.037784 278.627198 
L 527.23353 280.11609 
L 529.429275 282.24432 
L 531.62502 283.001508 
L 533.820766 280.72788 
L 536.016511 279.317948 
L 538.212257 279.269924 
L 540.408002 278.385016 
L 544.799493 277.379457 
L 546.995239 275.016263 
L 549.190984 275.215283 
L 553.582475 275.005804 
L 555.77822 275.296895 
L 557.973966 275.473375 
L 560.169711 276.076917 
L 562.365457 275.444797 
L 564.561202 275.931519 
L 566.756948 275.509762 
L 568.952693 273.983158 
L 571.148439 273.701054 
L 573.344184 273.623272 
L 575.53993 274.537054 
L 577.735675 274.258928 
L 579.93142 273.409963 
L 582.127166 273.649199 
L 584.322911 273.601912 
L 588.714402 273.91672 
L 590.910148 273.440015 
L 593.105893 273.156732 
L 595.301639 273.547995 
L 597.497384 275.225006 
L 599.69313 274.617782 
L 601.888875 274.557678 
L 604.08462 273.785906 
L 606.280366 273.602207 
L 608.476111 273.153786 
L 610.671857 273.110476 
L 615.063348 272.82793 
L 619.454839 272.78241 
L 623.84633 272.932522 
L 626.042075 272.7665 
L 628.23782 272.741163 
L 630.433566 272.598711 
L 634.825057 272.618598 
L 634.825057 272.618598 
" clip-path="url(#p0378ace641)" style="fill: none; stroke: #d62728; stroke-width: 2.5; stroke-linecap: square"/>
   </g>
   <g id="line2d_27">
    <path d="M 85.888693 465.989507 
L 85.910651 466.423638 
L 88.084439 466.118111 
L 90.280184 457.557314 
L 92.47593 452.820025 
L 94.671675 444.896652 
L 96.86742 438.559692 
L 99.063166 431.442709 
L 101.258911 436.517934 
L 103.454657 436.184565 
L 105.650402 432.041536 
L 107.846148 434.217643 
L 110.041893 430.856109 
L 112.237639 433.82255 
L 114.433384 428.214052 
L 116.62913 430.773467 
L 118.824875 427.166804 
L 121.02062 424.044654 
L 123.216366 423.441555 
L 125.412111 411.619692 
L 127.607857 410.876351 
L 129.803602 394.641435 
L 131.999348 388.800477 
L 134.195093 412.632468 
L 138.586584 393.054874 
L 140.78233 377.955446 
L 142.978075 395.052732 
L 145.17382 403.527498 
L 147.369566 403.040481 
L 149.565311 394.66088 
L 151.761057 389.14843 
L 153.956802 386.17595 
L 156.152548 384.546374 
L 158.348293 404.940966 
L 160.544039 393.76669 
L 162.739784 402.393778 
L 164.93553 391.496156 
L 167.131275 387.048779 
L 169.32702 375.108329 
L 171.522766 375.318545 
L 173.718511 379.253568 
L 175.914257 376.139814 
L 178.110002 395.960475 
L 180.305748 368.494715 
L 182.501493 358.695164 
L 184.697239 347.038881 
L 186.892984 344.80709 
L 189.08873 348.00275 
L 191.284475 348.972364 
L 193.48022 361.691067 
L 195.675966 371.2888 
L 197.871711 383.463771 
L 200.067457 366.678199 
L 202.263202 373.69383 
L 204.458948 367.789086 
L 206.654693 369.054504 
L 208.850439 362.535907 
L 211.046184 363.557522 
L 213.24193 362.582163 
L 215.437675 362.028856 
L 217.63342 367.360553 
L 219.829166 363.256709 
L 222.024911 356.053107 
L 224.220657 362.662154 
L 226.416402 353.994851 
L 228.612148 357.147053 
L 230.807893 356.959671 
L 233.003639 366.142717 
L 235.199384 369.56951 
L 237.39513 367.981772 
L 239.590875 372.039212 
L 241.78662 364.440811 
L 243.982366 361.958588 
L 246.178111 352.854059 
L 248.373857 360.04293 
L 250.569602 351.145671 
L 252.765348 357.197434 
L 254.961093 358.71461 
L 257.156839 361.56924 
L 259.352584 359.136956 
L 261.54833 364.754882 
L 263.744075 358.76175 
L 265.93982 362.055372 
L 270.331311 355.873091 
L 272.527057 346.772392 
L 274.722802 341.777305 
L 276.918548 346.818943 
L 279.114293 344.258497 
L 281.310039 336.968864 
L 283.505784 338.507253 
L 285.70153 336.017517 
L 287.897275 335.126716 
L 290.09302 333.489627 
L 292.288766 333.946739 
L 294.484511 334.979256 
L 296.680257 340.101326 
L 298.876002 340.538256 
L 301.071748 343.957979 
L 303.267493 350.731427 
L 305.463239 344.841414 
L 307.658984 351.174397 
L 309.85473 343.39598 
L 312.050475 332.153646 
L 314.24622 343.774574 
L 316.441966 337.314902 
L 318.637711 332.637864 
L 320.833457 330.165806 
L 323.029202 317.175751 
L 325.224948 314.833623 
L 327.420693 317.08589 
L 329.616439 312.573548 
L 331.812184 309.671041 
L 334.00793 316.785372 
L 336.203675 313.786081 
L 338.39942 311.744913 
L 340.595166 303.211811 
L 342.790911 301.440962 
L 344.986657 307.9793 
L 347.182402 302.617845 
L 349.378148 303.461212 
L 351.573893 296.53662 
L 353.769639 296.357046 
L 355.965384 300.462215 
L 358.16113 298.737034 
L 360.356875 295.485101 
L 362.55262 294.772253 
L 364.748366 294.511951 
L 366.944111 296.291639 
L 369.139857 295.38316 
L 371.335602 296.73785 
L 373.531348 288.827293 
L 375.727093 289.866143 
L 377.922839 293.522156 
L 380.118584 287.573512 
L 382.31433 280.65938 
L 384.510075 275.819119 
L 386.70582 277.723139 
L 388.901566 277.868242 
L 391.097311 281.98063 
L 393.293057 276.892588 
L 395.488802 280.291981 
L 397.684548 281.216665 
L 399.880293 282.656649 
L 402.076039 285.332588 
L 404.271784 285.22829 
L 406.46753 289.623372 
L 408.663275 291.53019 
L 410.85902 289.28028 
L 413.054766 289.62676 
L 415.250511 288.801955 
L 417.446257 285.797066 
L 419.642002 286.26773 
L 421.837748 284.45858 
L 424.033493 278.735031 
L 426.229239 274.520555 
L 428.424984 273.861919 
L 432.816475 264.995743 
L 435.01222 261.623456 
L 437.207966 262.043887 
L 439.403711 259.451179 
L 441.599457 260.853598 
L 443.795202 261.966989 
L 445.990948 266.269853 
L 448.186693 270.110006 
L 450.382439 269.610321 
L 452.578184 262.397732 
L 454.77393 262.214475 
L 456.969675 258.621807 
L 459.16542 258.157182 
L 461.361166 260.864205 
L 463.556911 258.98788 
L 465.752657 259.401682 
L 467.948402 266.384315 
L 470.144148 265.284035 
L 472.339893 263.107633 
L 474.535639 263.553992 
L 476.731384 256.647814 
L 478.92713 252.697912 
L 481.122875 254.134066 
L 483.31862 252.778493 
L 485.514366 255.013524 
L 487.710111 251.807553 
L 489.905857 250.487482 
L 492.101602 251.799893 
L 494.297348 255.254823 
L 496.493093 253.289226 
L 498.688839 253.407371 
L 500.884584 254.195201 
L 503.08033 253.769172 
L 505.276075 251.713862 
L 507.47182 250.438574 
L 509.667566 249.6422 
L 511.863311 249.952883 
L 514.059057 248.239928 
L 516.254802 247.945597 
L 520.646293 247.613259 
L 522.842039 249.857572 
L 525.037784 251.697216 
L 529.429275 251.919658 
L 531.62502 252.708372 
L 533.820766 248.525274 
L 536.016511 246.898202 
L 538.212257 244.900934 
L 540.408002 245.585791 
L 542.603748 246.50797 
L 544.799493 244.000999 
L 546.995239 242.671647 
L 549.190984 239.999832 
L 551.38673 241.97029 
L 553.582475 243.285205 
L 555.77822 246.893046 
L 557.973966 244.595554 
L 560.169711 243.748505 
L 564.561202 245.265533 
L 566.756948 245.425073 
L 568.952693 245.015396 
L 571.148439 247.837322 
L 573.344184 244.865726 
L 575.53993 244.743309 
L 577.735675 246.481307 
L 579.93142 251.550787 
L 582.127166 253.219695 
L 584.322911 257.481458 
L 586.518657 259.616317 
L 588.714402 258.614147 
L 590.910148 256.285866 
L 593.105893 257.036131 
L 595.301639 252.130758 
L 597.497384 251.098831 
L 599.69313 251.06377 
L 601.888875 249.352288 
L 604.08462 254.624029 
L 606.280366 249.854184 
L 608.476111 249.667391 
L 610.671857 253.552475 
L 615.063348 251.392867 
L 617.259093 247.972555 
L 619.454839 242.521682 
L 621.650584 240.565956 
L 623.84633 246.800976 
L 626.042075 247.07159 
L 628.23782 256.275112 
L 632.629311 251.392573 
L 634.825057 249.935206 
L 634.825057 249.935206 
" clip-path="url(#p0378ace641)" style="fill: none; stroke: #9467bd; stroke-width: 2.5; stroke-linecap: square"/>
   </g>
   <g id="line2d_28">
    <path d="M 85.888693 435.145272 
L 85.910651 434.67667 
L 88.084439 434.197461 
L 90.280184 420.229396 
L 92.47593 420.288763 
L 94.671675 403.821682 
L 96.86742 400.302376 
L 99.063166 388.030325 
L 101.258911 383.257975 
L 103.454657 380.191804 
L 105.650402 377.646973 
L 107.846148 374.705576 
L 110.041893 375.722477 
L 112.237639 373.318182 
L 114.433384 368.829705 
L 116.62913 356.532463 
L 118.824875 356.036461 
L 121.02062 345.520527 
L 123.216366 337.431574 
L 125.412111 332.67646 
L 127.607857 339.167804 
L 129.803602 344.750964 
L 131.999348 350.779451 
L 134.195093 349.050587 
L 136.390839 347.111949 
L 138.586584 357.776963 
L 140.78233 351.574794 
L 142.978075 360.592555 
L 145.17382 365.30981 
L 147.369566 360.62025 
L 149.565311 361.096071 
L 151.761057 361.989376 
L 156.152548 366.488608 
L 158.348293 362.825819 
L 160.544039 366.658312 
L 162.739784 358.620771 
L 164.93553 358.279742 
L 167.131275 343.949876 
L 169.32702 343.27371 
L 173.718511 339.182977 
L 175.914257 343.214343 
L 178.110002 341.183045 
L 180.305748 346.467602 
L 182.501493 347.310821 
L 184.697239 346.083115 
L 186.892984 347.718289 
L 189.08873 341.73267 
L 191.284475 339.906578 
L 193.48022 337.417285 
L 195.675966 332.526643 
L 197.871711 332.209183 
L 200.067457 331.08003 
L 202.263202 328.351794 
L 204.458948 327.993382 
L 206.654693 325.496575 
L 208.850439 335.750144 
L 211.046184 336.272221 
L 213.24193 333.566966 
L 215.437675 333.14904 
L 217.63342 333.977086 
L 219.829166 330.500059 
L 222.024911 330.190701 
L 224.220657 330.053848 
L 226.416402 329.777636 
L 228.612148 332.724926 
L 230.807893 331.026702 
L 233.003639 327.188317 
L 235.199384 335.144393 
L 237.39513 333.934512 
L 239.590875 325.790906 
L 241.78662 321.258382 
L 243.982366 322.355127 
L 246.178111 327.05603 
L 248.373857 325.402147 
L 250.569602 325.031066 
L 252.765348 328.21936 
L 254.961093 331.683129 
L 257.156839 325.778237 
L 259.352584 328.164707 
L 261.54833 327.284512 
L 263.744075 320.486462 
L 265.93982 320.504582 
L 268.135566 319.730747 
L 270.331311 321.55507 
L 272.527057 306.597652 
L 274.722802 300.010848 
L 276.918548 298.947249 
L 279.114293 294.059406 
L 281.310039 291.680155 
L 285.70153 290.316774 
L 287.897275 291.353268 
L 290.09302 294.703164 
L 292.288766 294.30203 
L 294.484511 293.615405 
L 296.680257 292.545618 
L 298.876002 291.61136 
L 303.267493 262.732869 
L 305.463239 260.154156 
L 307.658984 258.333369 
L 309.85473 260.243133 
L 312.050475 257.398079 
L 314.24622 251.767042 
L 316.441966 253.279062 
L 318.637711 256.872908 
L 320.833457 259.864392 
L 323.029202 261.791098 
L 325.224948 261.541402 
L 327.420693 263.70322 
L 329.616439 260.625705 
L 331.812184 259.573449 
L 334.00793 263.690256 
L 336.203675 260.543946 
L 338.39942 256.378231 
L 340.595166 254.576594 
L 342.790911 267.238583 
L 344.986657 264.322228 
L 347.182402 264.879661 
L 349.378148 263.962785 
L 351.573893 265.985833 
L 353.769639 269.019007 
L 355.965384 266.190156 
L 358.16113 265.6834 
L 360.356875 266.623698 
L 362.55262 284.701499 
L 364.748366 280.436937 
L 366.944111 281.585094 
L 369.139857 282.906197 
L 371.335602 281.788092 
L 373.531348 278.420518 
L 375.727093 277.688078 
L 377.922839 292.118264 
L 380.118584 298.872561 
L 382.31433 297.646181 
L 384.510075 297.825461 
L 386.70582 301.671654 
L 388.901566 304.684057 
L 391.097311 305.492952 
L 393.293057 305.024644 
L 395.488802 299.628719 
L 397.684548 301.245331 
L 399.880293 300.320058 
L 402.076039 299.687644 
L 404.271784 297.295871 
L 406.46753 295.522665 
L 408.663275 296.897095 
L 410.85902 301.804825 
L 413.054766 304.943917 
L 415.250511 302.375958 
L 417.446257 306.833352 
L 419.642002 303.958835 
L 421.837748 301.274793 
L 424.033493 290.06369 
L 426.229239 292.219909 
L 428.424984 297.475298 
L 430.62073 295.537544 
L 432.816475 296.52675 
L 435.01222 294.436822 
L 437.207966 294.57235 
L 439.403711 293.895741 
L 441.599457 295.151142 
L 443.795202 313.955932 
L 445.990948 317.603253 
L 448.186693 322.115301 
L 450.382439 319.574742 
L 452.578184 319.051781 
L 454.77393 315.426557 
L 456.969675 315.371462 
L 459.16542 316.109648 
L 461.361166 318.273969 
L 463.556911 318.173207 
L 465.752657 315.428473 
L 467.948402 316.195678 
L 470.144148 316.481465 
L 472.339893 320.872717 
L 474.535639 321.190323 
L 476.731384 323.507114 
L 478.92713 322.693652 
L 481.122875 324.543755 
L 483.31862 323.371291 
L 485.514366 322.395048 
L 487.710111 321.922321 
L 492.101602 321.424698 
L 496.493093 323.977631 
L 498.688839 321.957971 
L 500.884584 321.370782 
L 503.08033 322.332882 
L 505.276075 321.08249 
L 507.47182 316.963768 
L 509.667566 315.787327 
L 511.863311 316.388953 
L 514.059057 316.549966 
L 516.254802 316.27125 
L 518.450548 316.412965 
L 520.646293 310.994059 
L 522.842039 309.637896 
L 525.037784 313.949893 
L 527.23353 316.035844 
L 529.429275 314.719897 
L 531.62502 314.45223 
L 533.820766 316.853872 
L 536.016511 311.029414 
L 538.212257 311.831238 
L 540.408002 312.513592 
L 542.603748 310.360908 
L 544.799493 310.57407 
L 546.995239 309.830581 
L 549.190984 318.520866 
L 551.38673 314.927167 
L 553.582475 314.329076 
L 555.77822 314.257629 
L 557.973966 316.217628 
L 560.169711 316.799072 
L 562.365457 312.781406 
L 564.561202 314.747003 
L 566.756948 313.706679 
L 568.952693 313.220546 
L 571.148439 318.420398 
L 573.344184 316.697868 
L 575.53993 317.665272 
L 577.735675 320.454495 
L 579.93142 318.983723 
L 582.127166 323.491351 
L 584.322911 326.354967 
L 586.518657 324.407638 
L 588.714402 322.619406 
L 590.910148 327.858148 
L 593.105893 327.652794 
L 595.301639 325.350146 
L 597.497384 325.950593 
L 599.69313 326.966021 
L 601.888875 338.532002 
L 604.08462 343.033737 
L 606.280366 342.810706 
L 608.476111 340.800915 
L 610.671857 344.991232 
L 612.867602 339.83852 
L 615.063348 341.520834 
L 617.259093 342.245466 
L 619.454839 339.5408 
L 623.84633 340.152444 
L 626.042075 340.020009 
L 628.23782 341.238729 
L 630.433566 340.881348 
L 632.629311 344.00394 
L 634.825057 342.033925 
L 634.825057 342.033925 
" clip-path="url(#p0378ace641)" style="fill: none; stroke: #8c564b; stroke-width: 2.5; stroke-linecap: square"/>
   </g>
   <g id="line2d_29"/>
   <g id="line2d_30"/>
   <g id="line2d_31"/>
   <g id="line2d_32"/>
   <g id="line2d_33"/>
   <g id="line2d_34"/>
   <g id="patch_3">
    <path d="M 58.441875 528.1975 
L 58.441875 25.3575 
" style="fill: none; stroke: #000000; stroke-width: 0.8; stroke-linejoin: miter; stroke-linecap: square"/>
   </g>
   <g id="patch_4">
    <path d="M 662.271875 528.1975 
L 662.271875 25.3575 
" style="fill: none; stroke: #000000; stroke-width: 0.8; stroke-linejoin: miter; stroke-linecap: square"/>
   </g>
   <g id="patch_5">
    <path d="M 58.441875 528.1975 
L 662.271875 528.1975 
" style="fill: none; stroke: #000000; stroke-width: 0.8; stroke-linejoin: miter; stroke-linecap: square"/>
   </g>
   <g id="patch_6">
    <path d="M 58.441875 25.3575 
L 662.271875 25.3575 
" style="fill: none; stroke: #000000; stroke-width: 0.8; stroke-linejoin: miter; stroke-linecap: square"/>
   </g>
   <g id="text_17">
    <!-- Mean Credence Over Time by Op for Community 5 -->
    <g transform="translate(157.811875 19.3575) scale(0.16 -0.16)">
     <defs>
      <path id="DejaVuSans-4f" d="M 2522 4238 
Q 1834 4238 1429 3725 
Q 1025 3213 1025 2328 
Q 1025 1447 1429 934 
Q 1834 422 2522 422 
Q 3209 422 3611 934 
Q 4013 1447 4013 2328 
Q 4013 3213 3611 3725 
Q 3209 4238 2522 4238 
z
M 2522 4750 
Q 3503 4750 4090 4092 
Q 4678 3434 4678 2328 
Q 4678 1225 4090 567 
Q 3503 -91 2522 -91 
Q 1538 -91 948 565 
Q 359 1222 359 2328 
Q 359 3434 948 4092 
Q 1538 4750 2522 4750 
z
" transform="scale(0.015625)"/>
      <path id="DejaVuSans-76" d="M 191 3500 
L 800 3500 
L 1894 563 
L 2988 3500 
L 3597 3500 
L 2284 0 
L 1503 0 
L 191 3500 
z
" transform="scale(0.015625)"/>
      <path id="DejaVuSans-54" d="M -19 4666 
L 3928 4666 
L 3928 4134 
L 2272 4134 
L 2272 0 
L 1638 0 
L 1638 4134 
L -19 4134 
L -19 4666 
z
" transform="scale(0.015625)"/>
      <path id="DejaVuSans-6d" d="M 3328 2828 
Q 3544 3216 3844 3400 
Q 4144 3584 4550 3584 
Q 5097 3584 5394 3201 
Q 5691 2819 5691 2113 
L 5691 0 
L 5113 0 
L 5113 2094 
Q 5113 2597 4934 2840 
Q 4756 3084 4391 3084 
Q 3944 3084 3684 2787 
Q 3425 2491 3425 1978 
L 3425 0 
L 2847 0 
L 2847 2094 
Q 2847 2600 2669 2842 
Q 2491 3084 2119 3084 
Q 1678 3084 1418 2786 
Q 1159 2488 1159 1978 
L 1159 0 
L 581 0 
L 581 3500 
L 1159 3500 
L 1159 2956 
Q 1356 3278 1631 3431 
Q 1906 3584 2284 3584 
Q 2666 3584 2933 3390 
Q 3200 3197 3328 2828 
z
" transform="scale(0.015625)"/>
      <path id="DejaVuSans-62" d="M 3116 1747 
Q 3116 2381 2855 2742 
Q 2594 3103 2138 3103 
Q 1681 3103 1420 2742 
Q 1159 2381 1159 1747 
Q 1159 1113 1420 752 
Q 1681 391 2138 391 
Q 2594 391 2855 752 
Q 3116 1113 3116 1747 
z
M 1159 2969 
Q 1341 3281 1617 3432 
Q 1894 3584 2278 3584 
Q 2916 3584 3314 3078 
Q 3713 2572 3713 1747 
Q 3713 922 3314 415 
Q 2916 -91 2278 -91 
Q 1894 -91 1617 61 
Q 1341 213 1159 525 
L 1159 0 
L 581 0 
L 581 4863 
L 1159 4863 
L 1159 2969 
z
" transform="scale(0.015625)"/>
      <path id="DejaVuSans-79" d="M 2059 -325 
Q 1816 -950 1584 -1140 
Q 1353 -1331 966 -1331 
L 506 -1331 
L 506 -850 
L 844 -850 
Q 1081 -850 1212 -737 
Q 1344 -625 1503 -206 
L 1606 56 
L 191 3500 
L 800 3500 
L 1894 763 
L 2988 3500 
L 3597 3500 
L 2059 -325 
z
" transform="scale(0.015625)"/>
      <path id="DejaVuSans-70" d="M 1159 525 
L 1159 -1331 
L 581 -1331 
L 581 3500 
L 1159 3500 
L 1159 2969 
Q 1341 3281 1617 3432 
Q 1894 3584 2278 3584 
Q 2916 3584 3314 3078 
Q 3713 2572 3713 1747 
Q 3713 922 3314 415 
Q 2916 -91 2278 -91 
Q 1894 -91 1617 61 
Q 1341 213 1159 525 
z
M 3116 1747 
Q 3116 2381 2855 2742 
Q 2594 3103 2138 3103 
Q 1681 3103 1420 2742 
Q 1159 2381 1159 1747 
Q 1159 1113 1420 752 
Q 1681 391 2138 391 
Q 2594 391 2855 752 
Q 3116 1113 3116 1747 
z
" transform="scale(0.015625)"/>
      <path id="DejaVuSans-66" d="M 2375 4863 
L 2375 4384 
L 1825 4384 
Q 1516 4384 1395 4259 
Q 1275 4134 1275 3809 
L 1275 3500 
L 2222 3500 
L 2222 3053 
L 1275 3053 
L 1275 0 
L 697 0 
L 697 3053 
L 147 3053 
L 147 3500 
L 697 3500 
L 697 3744 
Q 697 4328 969 4595 
Q 1241 4863 1831 4863 
L 2375 4863 
z
" transform="scale(0.015625)"/>
      <path id="DejaVuSans-75" d="M 544 1381 
L 544 3500 
L 1119 3500 
L 1119 1403 
Q 1119 906 1312 657 
Q 1506 409 1894 409 
Q 2359 409 2629 706 
Q 2900 1003 2900 1516 
L 2900 3500 
L 3475 3500 
L 3475 0 
L 2900 0 
L 2900 538 
Q 2691 219 2414 64 
Q 2138 -91 1772 -91 
Q 1169 -91 856 284 
Q 544 659 544 1381 
z
M 1991 3584 
L 1991 3584 
z
" transform="scale(0.015625)"/>
     </defs>
     <use xlink:href="#DejaVuSans-4d"/>
     <use xlink:href="#DejaVuSans-65" x="86.279297"/>
     <use xlink:href="#DejaVuSans-61" x="147.802734"/>
     <use xlink:href="#DejaVuSans-6e" x="209.082031"/>
     <use xlink:href="#DejaVuSans-20" x="272.460938"/>
     <use xlink:href="#DejaVuSans-43" x="304.248047"/>
     <use xlink:href="#DejaVuSans-72" x="374.072266"/>
     <use xlink:href="#DejaVuSans-65" x="412.935547"/>
     <use xlink:href="#DejaVuSans-64" x="474.458984"/>
     <use xlink:href="#DejaVuSans-65" x="537.935547"/>
     <use xlink:href="#DejaVuSans-6e" x="599.458984"/>
     <use xlink:href="#DejaVuSans-63" x="662.837891"/>
     <use xlink:href="#DejaVuSans-65" x="717.818359"/>
     <use xlink:href="#DejaVuSans-20" x="779.341797"/>
     <use xlink:href="#DejaVuSans-4f" x="811.128906"/>
     <use xlink:href="#DejaVuSans-76" x="889.839844"/>
     <use xlink:href="#DejaVuSans-65" x="949.019531"/>
     <use xlink:href="#DejaVuSans-72" x="1010.542969"/>
     <use xlink:href="#DejaVuSans-20" x="1051.65625"/>
     <use xlink:href="#DejaVuSans-54" x="1083.443359"/>
     <use xlink:href="#DejaVuSans-69" x="1141.402344"/>
     <use xlink:href="#DejaVuSans-6d" x="1169.185547"/>
     <use xlink:href="#DejaVuSans-65" x="1266.597656"/>
     <use xlink:href="#DejaVuSans-20" x="1328.121094"/>
     <use xlink:href="#DejaVuSans-62" x="1359.908203"/>
     <use xlink:href="#DejaVuSans-79" x="1423.384766"/>
     <use xlink:href="#DejaVuSans-20" x="1482.564453"/>
     <use xlink:href="#DejaVuSans-4f" x="1514.351562"/>
     <use xlink:href="#DejaVuSans-70" x="1593.0625"/>
     <use xlink:href="#DejaVuSans-20" x="1656.539062"/>
     <use xlink:href="#DejaVuSans-66" x="1688.326172"/>
     <use xlink:href="#DejaVuSans-6f" x="1723.53125"/>
     <use xlink:href="#DejaVuSans-72" x="1784.712891"/>
     <use xlink:href="#DejaVuSans-20" x="1825.826172"/>
     <use xlink:href="#DejaVuSans-43" x="1857.613281"/>
     <use xlink:href="#DejaVuSans-6f" x="1927.4375"/>
     <use xlink:href="#DejaVuSans-6d" x="1988.619141"/>
     <use xlink:href="#DejaVuSans-6d" x="2086.03125"/>
     <use xlink:href="#DejaVuSans-75" x="2183.443359"/>
     <use xlink:href="#DejaVuSans-6e" x="2246.822266"/>
     <use xlink:href="#DejaVuSans-69" x="2310.201172"/>
     <use xlink:href="#DejaVuSans-74" x="2337.984375"/>
     <use xlink:href="#DejaVuSans-79" x="2377.193359"/>
     <use xlink:href="#DejaVuSans-20" x="2436.373047"/>
     <use xlink:href="#DejaVuSans-35" x="2468.160156"/>
    </g>
   </g>
   <g id="legend_1">
    <g id="patch_7">
     <path d="M 699.463375 136.104375 
L 981.111813 136.104375 
Q 983.111813 136.104375 983.111813 134.104375 
L 983.111813 32.3575 
Q 983.111813 30.3575 981.111813 30.3575 
L 699.463375 30.3575 
Q 697.463375 30.3575 697.463375 32.3575 
L 697.463375 134.104375 
Q 697.463375 136.104375 699.463375 136.104375 
z
" style="fill: #ffffff; opacity: 0.8; stroke: #cccccc; stroke-linejoin: miter"/>
    </g>
    <g id="text_18">
     <!-- Operator -->
     <g transform="translate(817.906344 41.955938) scale(0.1 -0.1)">
      <use xlink:href="#DejaVuSans-4f"/>
      <use xlink:href="#DejaVuSans-70" x="78.710938"/>
      <use xlink:href="#DejaVuSans-65" x="142.1875"/>
      <use xlink:href="#DejaVuSans-72" x="203.710938"/>
      <use xlink:href="#DejaVuSans-61" x="244.824219"/>
      <use xlink:href="#DejaVuSans-74" x="306.103516"/>
      <use xlink:href="#DejaVuSans-6f" x="345.3125"/>
      <use xlink:href="#DejaVuSans-72" x="406.494141"/>
     </g>
    </g>
    <g id="line2d_35">
     <path d="M 701.463375 53.134063 
L 711.463375 53.134063 
L 721.463375 53.134063 
" style="fill: none; stroke: #1f77b4; stroke-width: 2.5; stroke-linecap: square"/>
    </g>
    <g id="text_19">
     <!-- BalaGoyalOp -->
     <g transform="translate(729.463375 56.634063) scale(0.1 -0.1)">
      <defs>
       <path id="DejaVuSans-42" d="M 1259 2228 
L 1259 519 
L 2272 519 
Q 2781 519 3026 730 
Q 3272 941 3272 1375 
Q 3272 1813 3026 2020 
Q 2781 2228 2272 2228 
L 1259 2228 
z
M 1259 4147 
L 1259 2741 
L 2194 2741 
Q 2656 2741 2882 2914 
Q 3109 3088 3109 3444 
Q 3109 3797 2882 3972 
Q 2656 4147 2194 4147 
L 1259 4147 
z
M 628 4666 
L 2241 4666 
Q 2963 4666 3353 4366 
Q 3744 4066 3744 3513 
Q 3744 3084 3544 2831 
Q 3344 2578 2956 2516 
Q 3422 2416 3680 2098 
Q 3938 1781 3938 1306 
Q 3938 681 3513 340 
Q 3088 0 2303 0 
L 628 0 
L 628 4666 
z
" transform="scale(0.015625)"/>
       <path id="DejaVuSans-6c" d="M 603 4863 
L 1178 4863 
L 1178 0 
L 603 0 
L 603 4863 
z
" transform="scale(0.015625)"/>
       <path id="DejaVuSans-47" d="M 3809 666 
L 3809 1919 
L 2778 1919 
L 2778 2438 
L 4434 2438 
L 4434 434 
Q 4069 175 3628 42 
Q 3188 -91 2688 -91 
Q 1594 -91 976 548 
Q 359 1188 359 2328 
Q 359 3472 976 4111 
Q 1594 4750 2688 4750 
Q 3144 4750 3555 4637 
Q 3966 4525 4313 4306 
L 4313 3634 
Q 3963 3931 3569 4081 
Q 3175 4231 2741 4231 
Q 1884 4231 1454 3753 
Q 1025 3275 1025 2328 
Q 1025 1384 1454 906 
Q 1884 428 2741 428 
Q 3075 428 3337 486 
Q 3600 544 3809 666 
z
" transform="scale(0.015625)"/>
      </defs>
      <use xlink:href="#DejaVuSans-42"/>
      <use xlink:href="#DejaVuSans-61" x="68.603516"/>
      <use xlink:href="#DejaVuSans-6c" x="129.882812"/>
      <use xlink:href="#DejaVuSans-61" x="157.666016"/>
      <use xlink:href="#DejaVuSans-47" x="218.945312"/>
      <use xlink:href="#DejaVuSans-6f" x="296.435547"/>
      <use xlink:href="#DejaVuSans-79" x="357.617188"/>
      <use xlink:href="#DejaVuSans-61" x="416.796875"/>
      <use xlink:href="#DejaVuSans-6c" x="478.076172"/>
      <use xlink:href="#DejaVuSans-4f" x="505.859375"/>
      <use xlink:href="#DejaVuSans-70" x="584.570312"/>
     </g>
    </g>
    <g id="line2d_36">
     <path d="M 701.463375 67.812188 
L 711.463375 67.812188 
L 721.463375 67.812188 
" style="fill: none; stroke: #ff7f0e; stroke-width: 2.5; stroke-linecap: square"/>
    </g>
    <g id="text_20">
     <!-- UnreliableNetworkBasicGullibleBinomialOp -->
     <g transform="translate(729.463375 71.312188) scale(0.1 -0.1)">
      <defs>
       <path id="DejaVuSans-55" d="M 556 4666 
L 1191 4666 
L 1191 1831 
Q 1191 1081 1462 751 
Q 1734 422 2344 422 
Q 2950 422 3222 751 
Q 3494 1081 3494 1831 
L 3494 4666 
L 4128 4666 
L 4128 1753 
Q 4128 841 3676 375 
Q 3225 -91 2344 -91 
Q 1459 -91 1007 375 
Q 556 841 556 1753 
L 556 4666 
z
" transform="scale(0.015625)"/>
       <path id="DejaVuSans-4e" d="M 628 4666 
L 1478 4666 
L 3547 763 
L 3547 4666 
L 4159 4666 
L 4159 0 
L 3309 0 
L 1241 3903 
L 1241 0 
L 628 0 
L 628 4666 
z
" transform="scale(0.015625)"/>
       <path id="DejaVuSans-77" d="M 269 3500 
L 844 3500 
L 1563 769 
L 2278 3500 
L 2956 3500 
L 3675 769 
L 4391 3500 
L 4966 3500 
L 4050 0 
L 3372 0 
L 2619 2869 
L 1863 0 
L 1184 0 
L 269 3500 
z
" transform="scale(0.015625)"/>
       <path id="DejaVuSans-6b" d="M 581 4863 
L 1159 4863 
L 1159 1991 
L 2875 3500 
L 3609 3500 
L 1753 1863 
L 3688 0 
L 2938 0 
L 1159 1709 
L 1159 0 
L 581 0 
L 581 4863 
z
" transform="scale(0.015625)"/>
       <path id="DejaVuSans-73" d="M 2834 3397 
L 2834 2853 
Q 2591 2978 2328 3040 
Q 2066 3103 1784 3103 
Q 1356 3103 1142 2972 
Q 928 2841 928 2578 
Q 928 2378 1081 2264 
Q 1234 2150 1697 2047 
L 1894 2003 
Q 2506 1872 2764 1633 
Q 3022 1394 3022 966 
Q 3022 478 2636 193 
Q 2250 -91 1575 -91 
Q 1294 -91 989 -36 
Q 684 19 347 128 
L 347 722 
Q 666 556 975 473 
Q 1284 391 1588 391 
Q 1994 391 2212 530 
Q 2431 669 2431 922 
Q 2431 1156 2273 1281 
Q 2116 1406 1581 1522 
L 1381 1569 
Q 847 1681 609 1914 
Q 372 2147 372 2553 
Q 372 3047 722 3315 
Q 1072 3584 1716 3584 
Q 2034 3584 2315 3537 
Q 2597 3491 2834 3397 
z
" transform="scale(0.015625)"/>
      </defs>
      <use xlink:href="#DejaVuSans-55"/>
      <use xlink:href="#DejaVuSans-6e" x="73.193359"/>
      <use xlink:href="#DejaVuSans-72" x="136.572266"/>
      <use xlink:href="#DejaVuSans-65" x="175.435547"/>
      <use xlink:href="#DejaVuSans-6c" x="236.958984"/>
      <use xlink:href="#DejaVuSans-69" x="264.742188"/>
      <use xlink:href="#DejaVuSans-61" x="292.525391"/>
      <use xlink:href="#DejaVuSans-62" x="353.804688"/>
      <use xlink:href="#DejaVuSans-6c" x="417.28125"/>
      <use xlink:href="#DejaVuSans-65" x="445.064453"/>
      <use xlink:href="#DejaVuSans-4e" x="506.587891"/>
      <use xlink:href="#DejaVuSans-65" x="581.392578"/>
      <use xlink:href="#DejaVuSans-74" x="642.916016"/>
      <use xlink:href="#DejaVuSans-77" x="682.125"/>
      <use xlink:href="#DejaVuSans-6f" x="763.912109"/>
      <use xlink:href="#DejaVuSans-72" x="825.09375"/>
      <use xlink:href="#DejaVuSans-6b" x="866.207031"/>
      <use xlink:href="#DejaVuSans-42" x="924.117188"/>
      <use xlink:href="#DejaVuSans-61" x="992.720703"/>
      <use xlink:href="#DejaVuSans-73" x="1054"/>
      <use xlink:href="#DejaVuSans-69" x="1106.099609"/>
      <use xlink:href="#DejaVuSans-63" x="1133.882812"/>
      <use xlink:href="#DejaVuSans-47" x="1188.863281"/>
      <use xlink:href="#DejaVuSans-75" x="1266.353516"/>
      <use xlink:href="#DejaVuSans-6c" x="1329.732422"/>
      <use xlink:href="#DejaVuSans-6c" x="1357.515625"/>
      <use xlink:href="#DejaVuSans-69" x="1385.298828"/>
      <use xlink:href="#DejaVuSans-62" x="1413.082031"/>
      <use xlink:href="#DejaVuSans-6c" x="1476.558594"/>
      <use xlink:href="#DejaVuSans-65" x="1504.341797"/>
      <use xlink:href="#DejaVuSans-42" x="1565.865234"/>
      <use xlink:href="#DejaVuSans-69" x="1634.46875"/>
      <use xlink:href="#DejaVuSans-6e" x="1662.251953"/>
      <use xlink:href="#DejaVuSans-6f" x="1725.630859"/>
      <use xlink:href="#DejaVuSans-6d" x="1786.8125"/>
      <use xlink:href="#DejaVuSans-69" x="1884.224609"/>
      <use xlink:href="#DejaVuSans-61" x="1912.007812"/>
      <use xlink:href="#DejaVuSans-6c" x="1973.287109"/>
      <use xlink:href="#DejaVuSans-4f" x="2001.070312"/>
      <use xlink:href="#DejaVuSans-70" x="2079.78125"/>
     </g>
    </g>
    <g id="line2d_37">
     <path d="M 701.463375 82.490313 
L 711.463375 82.490313 
L 721.463375 82.490313 
" style="fill: none; stroke: #2ca02c; stroke-width: 2.5; stroke-linecap: square"/>
    </g>
    <g id="text_21">
     <!-- UnreliableNetworkBasicGullibleNegativeEpsOp -->
     <g transform="translate(729.463375 85.990313) scale(0.1 -0.1)">
      <defs>
       <path id="DejaVuSans-67" d="M 2906 1791 
Q 2906 2416 2648 2759 
Q 2391 3103 1925 3103 
Q 1463 3103 1205 2759 
Q 947 2416 947 1791 
Q 947 1169 1205 825 
Q 1463 481 1925 481 
Q 2391 481 2648 825 
Q 2906 1169 2906 1791 
z
M 3481 434 
Q 3481 -459 3084 -895 
Q 2688 -1331 1869 -1331 
Q 1566 -1331 1297 -1286 
Q 1028 -1241 775 -1147 
L 775 -588 
Q 1028 -725 1275 -790 
Q 1522 -856 1778 -856 
Q 2344 -856 2625 -561 
Q 2906 -266 2906 331 
L 2906 616 
Q 2728 306 2450 153 
Q 2172 0 1784 0 
Q 1141 0 747 490 
Q 353 981 353 1791 
Q 353 2603 747 3093 
Q 1141 3584 1784 3584 
Q 2172 3584 2450 3431 
Q 2728 3278 2906 2969 
L 2906 3500 
L 3481 3500 
L 3481 434 
z
" transform="scale(0.015625)"/>
       <path id="DejaVuSans-45" d="M 628 4666 
L 3578 4666 
L 3578 4134 
L 1259 4134 
L 1259 2753 
L 3481 2753 
L 3481 2222 
L 1259 2222 
L 1259 531 
L 3634 531 
L 3634 0 
L 628 0 
L 628 4666 
z
" transform="scale(0.015625)"/>
      </defs>
      <use xlink:href="#DejaVuSans-55"/>
      <use xlink:href="#DejaVuSans-6e" x="73.193359"/>
      <use xlink:href="#DejaVuSans-72" x="136.572266"/>
      <use xlink:href="#DejaVuSans-65" x="175.435547"/>
      <use xlink:href="#DejaVuSans-6c" x="236.958984"/>
      <use xlink:href="#DejaVuSans-69" x="264.742188"/>
      <use xlink:href="#DejaVuSans-61" x="292.525391"/>
      <use xlink:href="#DejaVuSans-62" x="353.804688"/>
      <use xlink:href="#DejaVuSans-6c" x="417.28125"/>
      <use xlink:href="#DejaVuSans-65" x="445.064453"/>
      <use xlink:href="#DejaVuSans-4e" x="506.587891"/>
      <use xlink:href="#DejaVuSans-65" x="581.392578"/>
      <use xlink:href="#DejaVuSans-74" x="642.916016"/>
      <use xlink:href="#DejaVuSans-77" x="682.125"/>
      <use xlink:href="#DejaVuSans-6f" x="763.912109"/>
      <use xlink:href="#DejaVuSans-72" x="825.09375"/>
      <use xlink:href="#DejaVuSans-6b" x="866.207031"/>
      <use xlink:href="#DejaVuSans-42" x="924.117188"/>
      <use xlink:href="#DejaVuSans-61" x="992.720703"/>
      <use xlink:href="#DejaVuSans-73" x="1054"/>
      <use xlink:href="#DejaVuSans-69" x="1106.099609"/>
      <use xlink:href="#DejaVuSans-63" x="1133.882812"/>
      <use xlink:href="#DejaVuSans-47" x="1188.863281"/>
      <use xlink:href="#DejaVuSans-75" x="1266.353516"/>
      <use xlink:href="#DejaVuSans-6c" x="1329.732422"/>
      <use xlink:href="#DejaVuSans-6c" x="1357.515625"/>
      <use xlink:href="#DejaVuSans-69" x="1385.298828"/>
      <use xlink:href="#DejaVuSans-62" x="1413.082031"/>
      <use xlink:href="#DejaVuSans-6c" x="1476.558594"/>
      <use xlink:href="#DejaVuSans-65" x="1504.341797"/>
      <use xlink:href="#DejaVuSans-4e" x="1565.865234"/>
      <use xlink:href="#DejaVuSans-65" x="1640.669922"/>
      <use xlink:href="#DejaVuSans-67" x="1702.193359"/>
      <use xlink:href="#DejaVuSans-61" x="1765.669922"/>
      <use xlink:href="#DejaVuSans-74" x="1826.949219"/>
      <use xlink:href="#DejaVuSans-69" x="1866.158203"/>
      <use xlink:href="#DejaVuSans-76" x="1893.941406"/>
      <use xlink:href="#DejaVuSans-65" x="1953.121094"/>
      <use xlink:href="#DejaVuSans-45" x="2014.644531"/>
      <use xlink:href="#DejaVuSans-70" x="2077.828125"/>
      <use xlink:href="#DejaVuSans-73" x="2141.304688"/>
      <use xlink:href="#DejaVuSans-4f" x="2193.404297"/>
      <use xlink:href="#DejaVuSans-70" x="2272.115234"/>
     </g>
    </g>
    <g id="line2d_38">
     <path d="M 701.463375 97.168438 
L 711.463375 97.168438 
L 721.463375 97.168438 
" style="fill: none; stroke: #d62728; stroke-width: 2.5; stroke-linecap: square"/>
    </g>
    <g id="text_22">
     <!-- UnreliableNetworkIdealOp -->
     <g transform="translate(729.463375 100.668438) scale(0.1 -0.1)">
      <use xlink:href="#DejaVuSans-55"/>
      <use xlink:href="#DejaVuSans-6e" x="73.193359"/>
      <use xlink:href="#DejaVuSans-72" x="136.572266"/>
      <use xlink:href="#DejaVuSans-65" x="175.435547"/>
      <use xlink:href="#DejaVuSans-6c" x="236.958984"/>
      <use xlink:href="#DejaVuSans-69" x="264.742188"/>
      <use xlink:href="#DejaVuSans-61" x="292.525391"/>
      <use xlink:href="#DejaVuSans-62" x="353.804688"/>
      <use xlink:href="#DejaVuSans-6c" x="417.28125"/>
      <use xlink:href="#DejaVuSans-65" x="445.064453"/>
      <use xlink:href="#DejaVuSans-4e" x="506.587891"/>
      <use xlink:href="#DejaVuSans-65" x="581.392578"/>
      <use xlink:href="#DejaVuSans-74" x="642.916016"/>
      <use xlink:href="#DejaVuSans-77" x="682.125"/>
      <use xlink:href="#DejaVuSans-6f" x="763.912109"/>
      <use xlink:href="#DejaVuSans-72" x="825.09375"/>
      <use xlink:href="#DejaVuSans-6b" x="866.207031"/>
      <use xlink:href="#DejaVuSans-49" x="924.117188"/>
      <use xlink:href="#DejaVuSans-64" x="953.609375"/>
      <use xlink:href="#DejaVuSans-65" x="1017.085938"/>
      <use xlink:href="#DejaVuSans-61" x="1078.609375"/>
      <use xlink:href="#DejaVuSans-6c" x="1139.888672"/>
      <use xlink:href="#DejaVuSans-4f" x="1167.671875"/>
      <use xlink:href="#DejaVuSans-70" x="1246.382812"/>
     </g>
    </g>
    <g id="line2d_39">
     <path d="M 701.463375 111.846563 
L 711.463375 111.846563 
L 721.463375 111.846563 
" style="fill: none; stroke: #9467bd; stroke-width: 2.5; stroke-linecap: square"/>
    </g>
    <g id="text_23">
     <!-- UnreliableNetworkModifiedAlignedBinomialOp -->
     <g transform="translate(729.463375 115.346563) scale(0.1 -0.1)">
      <defs>
       <path id="DejaVuSans-41" d="M 2188 4044 
L 1331 1722 
L 3047 1722 
L 2188 4044 
z
M 1831 4666 
L 2547 4666 
L 4325 0 
L 3669 0 
L 3244 1197 
L 1141 1197 
L 716 0 
L 50 0 
L 1831 4666 
z
" transform="scale(0.015625)"/>
      </defs>
      <use xlink:href="#DejaVuSans-55"/>
      <use xlink:href="#DejaVuSans-6e" x="73.193359"/>
      <use xlink:href="#DejaVuSans-72" x="136.572266"/>
      <use xlink:href="#DejaVuSans-65" x="175.435547"/>
      <use xlink:href="#DejaVuSans-6c" x="236.958984"/>
      <use xlink:href="#DejaVuSans-69" x="264.742188"/>
      <use xlink:href="#DejaVuSans-61" x="292.525391"/>
      <use xlink:href="#DejaVuSans-62" x="353.804688"/>
      <use xlink:href="#DejaVuSans-6c" x="417.28125"/>
      <use xlink:href="#DejaVuSans-65" x="445.064453"/>
      <use xlink:href="#DejaVuSans-4e" x="506.587891"/>
      <use xlink:href="#DejaVuSans-65" x="581.392578"/>
      <use xlink:href="#DejaVuSans-74" x="642.916016"/>
      <use xlink:href="#DejaVuSans-77" x="682.125"/>
      <use xlink:href="#DejaVuSans-6f" x="763.912109"/>
      <use xlink:href="#DejaVuSans-72" x="825.09375"/>
      <use xlink:href="#DejaVuSans-6b" x="866.207031"/>
      <use xlink:href="#DejaVuSans-4d" x="924.117188"/>
      <use xlink:href="#DejaVuSans-6f" x="1010.396484"/>
      <use xlink:href="#DejaVuSans-64" x="1071.578125"/>
      <use xlink:href="#DejaVuSans-69" x="1135.054688"/>
      <use xlink:href="#DejaVuSans-66" x="1162.837891"/>
      <use xlink:href="#DejaVuSans-69" x="1198.042969"/>
      <use xlink:href="#DejaVuSans-65" x="1225.826172"/>
      <use xlink:href="#DejaVuSans-64" x="1287.349609"/>
      <use xlink:href="#DejaVuSans-41" x="1350.826172"/>
      <use xlink:href="#DejaVuSans-6c" x="1419.234375"/>
      <use xlink:href="#DejaVuSans-69" x="1447.017578"/>
      <use xlink:href="#DejaVuSans-67" x="1474.800781"/>
      <use xlink:href="#DejaVuSans-6e" x="1538.277344"/>
      <use xlink:href="#DejaVuSans-65" x="1601.65625"/>
      <use xlink:href="#DejaVuSans-64" x="1663.179688"/>
      <use xlink:href="#DejaVuSans-42" x="1726.65625"/>
      <use xlink:href="#DejaVuSans-69" x="1795.259766"/>
      <use xlink:href="#DejaVuSans-6e" x="1823.042969"/>
      <use xlink:href="#DejaVuSans-6f" x="1886.421875"/>
      <use xlink:href="#DejaVuSans-6d" x="1947.603516"/>
      <use xlink:href="#DejaVuSans-69" x="2045.015625"/>
      <use xlink:href="#DejaVuSans-61" x="2072.798828"/>
      <use xlink:href="#DejaVuSans-6c" x="2134.078125"/>
      <use xlink:href="#DejaVuSans-4f" x="2161.861328"/>
      <use xlink:href="#DejaVuSans-70" x="2240.572266"/>
     </g>
    </g>
    <g id="line2d_40">
     <path d="M 701.463375 126.524688 
L 711.463375 126.524688 
L 721.463375 126.524688 
" style="fill: none; stroke: #8c564b; stroke-width: 2.5; stroke-linecap: square"/>
    </g>
    <g id="text_24">
     <!-- UnreliableNetworkModifiedAlignedNegativeEpsOp -->
     <g transform="translate(729.463375 130.024688) scale(0.1 -0.1)">
      <use xlink:href="#DejaVuSans-55"/>
      <use xlink:href="#DejaVuSans-6e" x="73.193359"/>
      <use xlink:href="#DejaVuSans-72" x="136.572266"/>
      <use xlink:href="#DejaVuSans-65" x="175.435547"/>
      <use xlink:href="#DejaVuSans-6c" x="236.958984"/>
      <use xlink:href="#DejaVuSans-69" x="264.742188"/>
      <use xlink:href="#DejaVuSans-61" x="292.525391"/>
      <use xlink:href="#DejaVuSans-62" x="353.804688"/>
      <use xlink:href="#DejaVuSans-6c" x="417.28125"/>
      <use xlink:href="#DejaVuSans-65" x="445.064453"/>
      <use xlink:href="#DejaVuSans-4e" x="506.587891"/>
      <use xlink:href="#DejaVuSans-65" x="581.392578"/>
      <use xlink:href="#DejaVuSans-74" x="642.916016"/>
      <use xlink:href="#DejaVuSans-77" x="682.125"/>
      <use xlink:href="#DejaVuSans-6f" x="763.912109"/>
      <use xlink:href="#DejaVuSans-72" x="825.09375"/>
      <use xlink:href="#DejaVuSans-6b" x="866.207031"/>
      <use xlink:href="#DejaVuSans-4d" x="924.117188"/>
      <use xlink:href="#DejaVuSans-6f" x="1010.396484"/>
      <use xlink:href="#DejaVuSans-64" x="1071.578125"/>
      <use xlink:href="#DejaVuSans-69" x="1135.054688"/>
      <use xlink:href="#DejaVuSans-66" x="1162.837891"/>
      <use xlink:href="#DejaVuSans-69" x="1198.042969"/>
      <use xlink:href="#DejaVuSans-65" x="1225.826172"/>
      <use xlink:href="#DejaVuSans-64" x="1287.349609"/>
      <use xlink:href="#DejaVuSans-41" x="1350.826172"/>
      <use xlink:href="#DejaVuSans-6c" x="1419.234375"/>
      <use xlink:href="#DejaVuSans-69" x="1447.017578"/>
      <use xlink:href="#DejaVuSans-67" x="1474.800781"/>
      <use xlink:href="#DejaVuSans-6e" x="1538.277344"/>
      <use xlink:href="#DejaVuSans-65" x="1601.65625"/>
      <use xlink:href="#DejaVuSans-64" x="1663.179688"/>
      <use xlink:href="#DejaVuSans-4e" x="1726.65625"/>
      <use xlink:href="#DejaVuSans-65" x="1801.460938"/>
      <use xlink:href="#DejaVuSans-67" x="1862.984375"/>
      <use xlink:href="#DejaVuSans-61" x="1926.460938"/>
      <use xlink:href="#DejaVuSans-74" x="1987.740234"/>
      <use xlink:href="#DejaVuSans-69" x="2026.949219"/>
      <use xlink:href="#DejaVuSans-76" x="2054.732422"/>
      <use xlink:href="#DejaVuSans-65" x="2113.912109"/>
      <use xlink:href="#DejaVuSans-45" x="2175.435547"/>
      <use xlink:href="#DejaVuSans-70" x="2238.619141"/>
      <use xlink:href="#DejaVuSans-73" x="2302.095703"/>
      <use xlink:href="#DejaVuSans-4f" x="2354.195312"/>
      <use xlink:href="#DejaVuSans-70" x="2432.90625"/>
     </g>
    </g>
   </g>
  </g>
 </g>
 <defs>
  <clipPath id="p0378ace641">
   <rect x="58.441875" y="25.3575" width="603.83" height="502.84"/>
  </clipPath>
 </defs>
</svg>
