<?xml version="1.0" encoding="utf-8" standalone="no"?>
<!DOCTYPE svg PUBLIC "-//W3C//DTD SVG 1.1//EN"
  "http://www.w3.org/Graphics/SVG/1.1/DTD/svg11.dtd">
<svg xmlns:xlink="http://www.w3.org/1999/xlink" width="1000.168625pt" height="495.689375pt" viewBox="0 0 1000.168625 495.689375" xmlns="http://www.w3.org/2000/svg" version="1.1">
 <metadata>
  <rdf:RDF xmlns:dc="http://purl.org/dc/elements/1.1/" xmlns:cc="http://creativecommons.org/ns#" xmlns:rdf="http://www.w3.org/1999/02/22-rdf-syntax-ns#">
   <cc:Work>
    <dc:type rdf:resource="http://purl.org/dc/dcmitype/StillImage"/>
    <dc:date>2024-12-13T00:02:38.215664</dc:date>
    <dc:format>image/svg+xml</dc:format>
    <dc:creator>
     <cc:Agent>
      <dc:title>Matplotlib v3.9.2, https://matplotlib.org/</dc:title>
     </cc:Agent>
    </dc:creator>
   </cc:Work>
  </rdf:RDF>
 </metadata>
 <defs>
  <style type="text/css">*{stroke-linejoin: round; stroke-linecap: butt}</style>
 </defs>
 <g id="figure_1">
  <g id="patch_1">
   <path d="M 0 495.689375 
L 1000.168625 495.689375 
L 1000.168625 0 
L 0 0 
z
" style="fill: #ffffff"/>
  </g>
  <g id="axes_1">
   <g id="patch_2">
    <path d="M 45.716875 456.1975 
L 840.176875 456.1975 
L 840.176875 25.3575 
L 45.716875 25.3575 
z
" style="fill: #ffffff"/>
   </g>
   <g id="PolyCollection_1"/>
   <g id="PolyCollection_2"/>
   <g id="PolyCollection_3"/>
   <g id="PolyCollection_4"/>
   <g id="PolyCollection_5"/>
   <g id="PolyCollection_6"/>
   <g id="PolyCollection_7"/>
   <g id="PolyCollection_8"/>
   <g id="PolyCollection_9"/>
   <g id="PolyCollection_10"/>
   <g id="PolyCollection_11"/>
   <g id="PolyCollection_12"/>
   <g id="PolyCollection_13"/>
   <g id="PolyCollection_14"/>
   <g id="PolyCollection_15"/>
   <g id="matplotlib.axis_1">
    <g id="xtick_1">
     <g id="line2d_1">
      <defs>
       <path id="ma46a12f3c6" d="M 0 0 
L 0 3.5 
" style="stroke: #000000; stroke-width: 0.8"/>
      </defs>
      <g>
       <use xlink:href="#ma46a12f3c6" x="81.828693" y="456.1975" style="stroke: #000000; stroke-width: 0.8"/>
      </g>
     </g>
     <g id="text_1">
      <!-- 0 -->
      <g transform="translate(78.647443 470.795937) scale(0.1 -0.1)">
       <defs>
        <path id="DejaVuSans-30" d="M 2034 4250 
Q 1547 4250 1301 3770 
Q 1056 3291 1056 2328 
Q 1056 1369 1301 889 
Q 1547 409 2034 409 
Q 2525 409 2770 889 
Q 3016 1369 3016 2328 
Q 3016 3291 2770 3770 
Q 2525 4250 2034 4250 
z
M 2034 4750 
Q 2819 4750 3233 4129 
Q 3647 3509 3647 2328 
Q 3647 1150 3233 529 
Q 2819 -91 2034 -91 
Q 1250 -91 836 529 
Q 422 1150 422 2328 
Q 422 3509 836 4129 
Q 1250 4750 2034 4750 
z
" transform="scale(0.015625)"/>
       </defs>
       <use xlink:href="#DejaVuSans-30"/>
      </g>
     </g>
    </g>
    <g id="xtick_2">
     <g id="line2d_2">
      <g>
       <use xlink:href="#ma46a12f3c6" x="226.275966" y="456.1975" style="stroke: #000000; stroke-width: 0.8"/>
      </g>
     </g>
     <g id="text_2">
      <!-- 5000 -->
      <g transform="translate(213.550966 470.795937) scale(0.1 -0.1)">
       <defs>
        <path id="DejaVuSans-35" d="M 691 4666 
L 3169 4666 
L 3169 4134 
L 1269 4134 
L 1269 2991 
Q 1406 3038 1543 3061 
Q 1681 3084 1819 3084 
Q 2600 3084 3056 2656 
Q 3513 2228 3513 1497 
Q 3513 744 3044 326 
Q 2575 -91 1722 -91 
Q 1428 -91 1123 -41 
Q 819 9 494 109 
L 494 744 
Q 775 591 1075 516 
Q 1375 441 1709 441 
Q 2250 441 2565 725 
Q 2881 1009 2881 1497 
Q 2881 1984 2565 2268 
Q 2250 2553 1709 2553 
Q 1456 2553 1204 2497 
Q 953 2441 691 2322 
L 691 4666 
z
" transform="scale(0.015625)"/>
       </defs>
       <use xlink:href="#DejaVuSans-35"/>
       <use xlink:href="#DejaVuSans-30" x="63.623047"/>
       <use xlink:href="#DejaVuSans-30" x="127.246094"/>
       <use xlink:href="#DejaVuSans-30" x="190.869141"/>
      </g>
     </g>
    </g>
    <g id="xtick_3">
     <g id="line2d_3">
      <g>
       <use xlink:href="#ma46a12f3c6" x="370.723239" y="456.1975" style="stroke: #000000; stroke-width: 0.8"/>
      </g>
     </g>
     <g id="text_3">
      <!-- 10000 -->
      <g transform="translate(354.816989 470.795937) scale(0.1 -0.1)">
       <defs>
        <path id="DejaVuSans-31" d="M 794 531 
L 1825 531 
L 1825 4091 
L 703 3866 
L 703 4441 
L 1819 4666 
L 2450 4666 
L 2450 531 
L 3481 531 
L 3481 0 
L 794 0 
L 794 531 
z
" transform="scale(0.015625)"/>
       </defs>
       <use xlink:href="#DejaVuSans-31"/>
       <use xlink:href="#DejaVuSans-30" x="63.623047"/>
       <use xlink:href="#DejaVuSans-30" x="127.246094"/>
       <use xlink:href="#DejaVuSans-30" x="190.869141"/>
       <use xlink:href="#DejaVuSans-30" x="254.492188"/>
      </g>
     </g>
    </g>
    <g id="xtick_4">
     <g id="line2d_4">
      <g>
       <use xlink:href="#ma46a12f3c6" x="515.170511" y="456.1975" style="stroke: #000000; stroke-width: 0.8"/>
      </g>
     </g>
     <g id="text_4">
      <!-- 15000 -->
      <g transform="translate(499.264261 470.795937) scale(0.1 -0.1)">
       <use xlink:href="#DejaVuSans-31"/>
       <use xlink:href="#DejaVuSans-35" x="63.623047"/>
       <use xlink:href="#DejaVuSans-30" x="127.246094"/>
       <use xlink:href="#DejaVuSans-30" x="190.869141"/>
       <use xlink:href="#DejaVuSans-30" x="254.492188"/>
      </g>
     </g>
    </g>
    <g id="xtick_5">
     <g id="line2d_5">
      <g>
       <use xlink:href="#ma46a12f3c6" x="659.617784" y="456.1975" style="stroke: #000000; stroke-width: 0.8"/>
      </g>
     </g>
     <g id="text_5">
      <!-- 20000 -->
      <g transform="translate(643.711534 470.795937) scale(0.1 -0.1)">
       <defs>
        <path id="DejaVuSans-32" d="M 1228 531 
L 3431 531 
L 3431 0 
L 469 0 
L 469 531 
Q 828 903 1448 1529 
Q 2069 2156 2228 2338 
Q 2531 2678 2651 2914 
Q 2772 3150 2772 3378 
Q 2772 3750 2511 3984 
Q 2250 4219 1831 4219 
Q 1534 4219 1204 4116 
Q 875 4013 500 3803 
L 500 4441 
Q 881 4594 1212 4672 
Q 1544 4750 1819 4750 
Q 2544 4750 2975 4387 
Q 3406 4025 3406 3419 
Q 3406 3131 3298 2873 
Q 3191 2616 2906 2266 
Q 2828 2175 2409 1742 
Q 1991 1309 1228 531 
z
" transform="scale(0.015625)"/>
       </defs>
       <use xlink:href="#DejaVuSans-32"/>
       <use xlink:href="#DejaVuSans-30" x="63.623047"/>
       <use xlink:href="#DejaVuSans-30" x="127.246094"/>
       <use xlink:href="#DejaVuSans-30" x="190.869141"/>
       <use xlink:href="#DejaVuSans-30" x="254.492188"/>
      </g>
     </g>
    </g>
    <g id="xtick_6">
     <g id="line2d_6">
      <g>
       <use xlink:href="#ma46a12f3c6" x="804.065057" y="456.1975" style="stroke: #000000; stroke-width: 0.8"/>
      </g>
     </g>
     <g id="text_6">
      <!-- 25000 -->
      <g transform="translate(788.158807 470.795937) scale(0.1 -0.1)">
       <use xlink:href="#DejaVuSans-32"/>
       <use xlink:href="#DejaVuSans-35" x="63.623047"/>
       <use xlink:href="#DejaVuSans-30" x="127.246094"/>
       <use xlink:href="#DejaVuSans-30" x="190.869141"/>
       <use xlink:href="#DejaVuSans-30" x="254.492188"/>
      </g>
     </g>
    </g>
    <g id="text_7">
     <!-- Iteration -->
     <g transform="translate(417.496563 485.99375) scale(0.12 -0.12)">
      <defs>
       <path id="DejaVuSans-49" d="M 628 4666 
L 1259 4666 
L 1259 0 
L 628 0 
L 628 4666 
z
" transform="scale(0.015625)"/>
       <path id="DejaVuSans-74" d="M 1172 4494 
L 1172 3500 
L 2356 3500 
L 2356 3053 
L 1172 3053 
L 1172 1153 
Q 1172 725 1289 603 
Q 1406 481 1766 481 
L 2356 481 
L 2356 0 
L 1766 0 
Q 1100 0 847 248 
Q 594 497 594 1153 
L 594 3053 
L 172 3053 
L 172 3500 
L 594 3500 
L 594 4494 
L 1172 4494 
z
" transform="scale(0.015625)"/>
       <path id="DejaVuSans-65" d="M 3597 1894 
L 3597 1613 
L 953 1613 
Q 991 1019 1311 708 
Q 1631 397 2203 397 
Q 2534 397 2845 478 
Q 3156 559 3463 722 
L 3463 178 
Q 3153 47 2828 -22 
Q 2503 -91 2169 -91 
Q 1331 -91 842 396 
Q 353 884 353 1716 
Q 353 2575 817 3079 
Q 1281 3584 2069 3584 
Q 2775 3584 3186 3129 
Q 3597 2675 3597 1894 
z
M 3022 2063 
Q 3016 2534 2758 2815 
Q 2500 3097 2075 3097 
Q 1594 3097 1305 2825 
Q 1016 2553 972 2059 
L 3022 2063 
z
" transform="scale(0.015625)"/>
       <path id="DejaVuSans-72" d="M 2631 2963 
Q 2534 3019 2420 3045 
Q 2306 3072 2169 3072 
Q 1681 3072 1420 2755 
Q 1159 2438 1159 1844 
L 1159 0 
L 581 0 
L 581 3500 
L 1159 3500 
L 1159 2956 
Q 1341 3275 1631 3429 
Q 1922 3584 2338 3584 
Q 2397 3584 2469 3576 
Q 2541 3569 2628 3553 
L 2631 2963 
z
" transform="scale(0.015625)"/>
       <path id="DejaVuSans-61" d="M 2194 1759 
Q 1497 1759 1228 1600 
Q 959 1441 959 1056 
Q 959 750 1161 570 
Q 1363 391 1709 391 
Q 2188 391 2477 730 
Q 2766 1069 2766 1631 
L 2766 1759 
L 2194 1759 
z
M 3341 1997 
L 3341 0 
L 2766 0 
L 2766 531 
Q 2569 213 2275 61 
Q 1981 -91 1556 -91 
Q 1019 -91 701 211 
Q 384 513 384 1019 
Q 384 1609 779 1909 
Q 1175 2209 1959 2209 
L 2766 2209 
L 2766 2266 
Q 2766 2663 2505 2880 
Q 2244 3097 1772 3097 
Q 1472 3097 1187 3025 
Q 903 2953 641 2809 
L 641 3341 
Q 956 3463 1253 3523 
Q 1550 3584 1831 3584 
Q 2591 3584 2966 3190 
Q 3341 2797 3341 1997 
z
" transform="scale(0.015625)"/>
       <path id="DejaVuSans-69" d="M 603 3500 
L 1178 3500 
L 1178 0 
L 603 0 
L 603 3500 
z
M 603 4863 
L 1178 4863 
L 1178 4134 
L 603 4134 
L 603 4863 
z
" transform="scale(0.015625)"/>
       <path id="DejaVuSans-6f" d="M 1959 3097 
Q 1497 3097 1228 2736 
Q 959 2375 959 1747 
Q 959 1119 1226 758 
Q 1494 397 1959 397 
Q 2419 397 2687 759 
Q 2956 1122 2956 1747 
Q 2956 2369 2687 2733 
Q 2419 3097 1959 3097 
z
M 1959 3584 
Q 2709 3584 3137 3096 
Q 3566 2609 3566 1747 
Q 3566 888 3137 398 
Q 2709 -91 1959 -91 
Q 1206 -91 779 398 
Q 353 888 353 1747 
Q 353 2609 779 3096 
Q 1206 3584 1959 3584 
z
" transform="scale(0.015625)"/>
       <path id="DejaVuSans-6e" d="M 3513 2113 
L 3513 0 
L 2938 0 
L 2938 2094 
Q 2938 2591 2744 2837 
Q 2550 3084 2163 3084 
Q 1697 3084 1428 2787 
Q 1159 2491 1159 1978 
L 1159 0 
L 581 0 
L 581 3500 
L 1159 3500 
L 1159 2956 
Q 1366 3272 1645 3428 
Q 1925 3584 2291 3584 
Q 2894 3584 3203 3211 
Q 3513 2838 3513 2113 
z
" transform="scale(0.015625)"/>
      </defs>
      <use xlink:href="#DejaVuSans-49"/>
      <use xlink:href="#DejaVuSans-74" x="29.492188"/>
      <use xlink:href="#DejaVuSans-65" x="68.701172"/>
      <use xlink:href="#DejaVuSans-72" x="130.224609"/>
      <use xlink:href="#DejaVuSans-61" x="171.337891"/>
      <use xlink:href="#DejaVuSans-74" x="232.617188"/>
      <use xlink:href="#DejaVuSans-69" x="271.826172"/>
      <use xlink:href="#DejaVuSans-6f" x="299.609375"/>
      <use xlink:href="#DejaVuSans-6e" x="360.791016"/>
     </g>
    </g>
   </g>
   <g id="matplotlib.axis_2">
    <g id="ytick_1">
     <g id="line2d_7">
      <path d="M 45.716875 417.03191 
L 840.176875 417.03191 
" clip-path="url(#pc3c7506cbe)" style="fill: none; stroke-dasharray: 2.96,1.28; stroke-dashoffset: 0; stroke: #b0b0b0; stroke-opacity: 0.7; stroke-width: 0.8"/>
     </g>
     <g id="line2d_8">
      <defs>
       <path id="m35e3a16dad" d="M 0 0 
L -3.5 0 
" style="stroke: #000000; stroke-width: 0.8"/>
      </defs>
      <g>
       <use xlink:href="#m35e3a16dad" x="45.716875" y="417.03191" style="stroke: #000000; stroke-width: 0.8"/>
      </g>
     </g>
     <g id="text_8">
      <!-- 0.2 -->
      <g transform="translate(22.81375 420.831129) scale(0.1 -0.1)">
       <defs>
        <path id="DejaVuSans-2e" d="M 684 794 
L 1344 794 
L 1344 0 
L 684 0 
L 684 794 
z
" transform="scale(0.015625)"/>
       </defs>
       <use xlink:href="#DejaVuSans-30"/>
       <use xlink:href="#DejaVuSans-2e" x="63.623047"/>
       <use xlink:href="#DejaVuSans-32" x="95.410156"/>
      </g>
     </g>
    </g>
    <g id="ytick_2">
     <g id="line2d_9">
      <path d="M 45.716875 324.009217 
L 840.176875 324.009217 
" clip-path="url(#pc3c7506cbe)" style="fill: none; stroke-dasharray: 2.96,1.28; stroke-dashoffset: 0; stroke: #b0b0b0; stroke-opacity: 0.7; stroke-width: 0.8"/>
     </g>
     <g id="line2d_10">
      <g>
       <use xlink:href="#m35e3a16dad" x="45.716875" y="324.009217" style="stroke: #000000; stroke-width: 0.8"/>
      </g>
     </g>
     <g id="text_9">
      <!-- 0.4 -->
      <g transform="translate(22.81375 327.808435) scale(0.1 -0.1)">
       <defs>
        <path id="DejaVuSans-34" d="M 2419 4116 
L 825 1625 
L 2419 1625 
L 2419 4116 
z
M 2253 4666 
L 3047 4666 
L 3047 1625 
L 3713 1625 
L 3713 1100 
L 3047 1100 
L 3047 0 
L 2419 0 
L 2419 1100 
L 313 1100 
L 313 1709 
L 2253 4666 
z
" transform="scale(0.015625)"/>
       </defs>
       <use xlink:href="#DejaVuSans-30"/>
       <use xlink:href="#DejaVuSans-2e" x="63.623047"/>
       <use xlink:href="#DejaVuSans-34" x="95.410156"/>
      </g>
     </g>
    </g>
    <g id="ytick_3">
     <g id="line2d_11">
      <path d="M 45.716875 230.986523 
L 840.176875 230.986523 
" clip-path="url(#pc3c7506cbe)" style="fill: none; stroke-dasharray: 2.96,1.28; stroke-dashoffset: 0; stroke: #b0b0b0; stroke-opacity: 0.7; stroke-width: 0.8"/>
     </g>
     <g id="line2d_12">
      <g>
       <use xlink:href="#m35e3a16dad" x="45.716875" y="230.986523" style="stroke: #000000; stroke-width: 0.8"/>
      </g>
     </g>
     <g id="text_10">
      <!-- 0.6 -->
      <g transform="translate(22.81375 234.785742) scale(0.1 -0.1)">
       <defs>
        <path id="DejaVuSans-36" d="M 2113 2584 
Q 1688 2584 1439 2293 
Q 1191 2003 1191 1497 
Q 1191 994 1439 701 
Q 1688 409 2113 409 
Q 2538 409 2786 701 
Q 3034 994 3034 1497 
Q 3034 2003 2786 2293 
Q 2538 2584 2113 2584 
z
M 3366 4563 
L 3366 3988 
Q 3128 4100 2886 4159 
Q 2644 4219 2406 4219 
Q 1781 4219 1451 3797 
Q 1122 3375 1075 2522 
Q 1259 2794 1537 2939 
Q 1816 3084 2150 3084 
Q 2853 3084 3261 2657 
Q 3669 2231 3669 1497 
Q 3669 778 3244 343 
Q 2819 -91 2113 -91 
Q 1303 -91 875 529 
Q 447 1150 447 2328 
Q 447 3434 972 4092 
Q 1497 4750 2381 4750 
Q 2619 4750 2861 4703 
Q 3103 4656 3366 4563 
z
" transform="scale(0.015625)"/>
       </defs>
       <use xlink:href="#DejaVuSans-30"/>
       <use xlink:href="#DejaVuSans-2e" x="63.623047"/>
       <use xlink:href="#DejaVuSans-36" x="95.410156"/>
      </g>
     </g>
    </g>
    <g id="ytick_4">
     <g id="line2d_13">
      <path d="M 45.716875 137.96383 
L 840.176875 137.96383 
" clip-path="url(#pc3c7506cbe)" style="fill: none; stroke-dasharray: 2.96,1.28; stroke-dashoffset: 0; stroke: #b0b0b0; stroke-opacity: 0.7; stroke-width: 0.8"/>
     </g>
     <g id="line2d_14">
      <g>
       <use xlink:href="#m35e3a16dad" x="45.716875" y="137.96383" style="stroke: #000000; stroke-width: 0.8"/>
      </g>
     </g>
     <g id="text_11">
      <!-- 0.8 -->
      <g transform="translate(22.81375 141.763049) scale(0.1 -0.1)">
       <defs>
        <path id="DejaVuSans-38" d="M 2034 2216 
Q 1584 2216 1326 1975 
Q 1069 1734 1069 1313 
Q 1069 891 1326 650 
Q 1584 409 2034 409 
Q 2484 409 2743 651 
Q 3003 894 3003 1313 
Q 3003 1734 2745 1975 
Q 2488 2216 2034 2216 
z
M 1403 2484 
Q 997 2584 770 2862 
Q 544 3141 544 3541 
Q 544 4100 942 4425 
Q 1341 4750 2034 4750 
Q 2731 4750 3128 4425 
Q 3525 4100 3525 3541 
Q 3525 3141 3298 2862 
Q 3072 2584 2669 2484 
Q 3125 2378 3379 2068 
Q 3634 1759 3634 1313 
Q 3634 634 3220 271 
Q 2806 -91 2034 -91 
Q 1263 -91 848 271 
Q 434 634 434 1313 
Q 434 1759 690 2068 
Q 947 2378 1403 2484 
z
M 1172 3481 
Q 1172 3119 1398 2916 
Q 1625 2713 2034 2713 
Q 2441 2713 2670 2916 
Q 2900 3119 2900 3481 
Q 2900 3844 2670 4047 
Q 2441 4250 2034 4250 
Q 1625 4250 1398 4047 
Q 1172 3844 1172 3481 
z
" transform="scale(0.015625)"/>
       </defs>
       <use xlink:href="#DejaVuSans-30"/>
       <use xlink:href="#DejaVuSans-2e" x="63.623047"/>
       <use xlink:href="#DejaVuSans-38" x="95.410156"/>
      </g>
     </g>
    </g>
    <g id="ytick_5">
     <g id="line2d_15">
      <path d="M 45.716875 44.941136 
L 840.176875 44.941136 
" clip-path="url(#pc3c7506cbe)" style="fill: none; stroke-dasharray: 2.96,1.28; stroke-dashoffset: 0; stroke: #b0b0b0; stroke-opacity: 0.7; stroke-width: 0.8"/>
     </g>
     <g id="line2d_16">
      <g>
       <use xlink:href="#m35e3a16dad" x="45.716875" y="44.941136" style="stroke: #000000; stroke-width: 0.8"/>
      </g>
     </g>
     <g id="text_12">
      <!-- 1.0 -->
      <g transform="translate(22.81375 48.740355) scale(0.1 -0.1)">
       <use xlink:href="#DejaVuSans-31"/>
       <use xlink:href="#DejaVuSans-2e" x="63.623047"/>
       <use xlink:href="#DejaVuSans-30" x="95.410156"/>
      </g>
     </g>
    </g>
    <g id="text_13">
     <!-- Median Credence -->
     <g transform="translate(16.318125 293.015938) rotate(-90) scale(0.12 -0.12)">
      <defs>
       <path id="DejaVuSans-4d" d="M 628 4666 
L 1569 4666 
L 2759 1491 
L 3956 4666 
L 4897 4666 
L 4897 0 
L 4281 0 
L 4281 4097 
L 3078 897 
L 2444 897 
L 1241 4097 
L 1241 0 
L 628 0 
L 628 4666 
z
" transform="scale(0.015625)"/>
       <path id="DejaVuSans-64" d="M 2906 2969 
L 2906 4863 
L 3481 4863 
L 3481 0 
L 2906 0 
L 2906 525 
Q 2725 213 2448 61 
Q 2172 -91 1784 -91 
Q 1150 -91 751 415 
Q 353 922 353 1747 
Q 353 2572 751 3078 
Q 1150 3584 1784 3584 
Q 2172 3584 2448 3432 
Q 2725 3281 2906 2969 
z
M 947 1747 
Q 947 1113 1208 752 
Q 1469 391 1925 391 
Q 2381 391 2643 752 
Q 2906 1113 2906 1747 
Q 2906 2381 2643 2742 
Q 2381 3103 1925 3103 
Q 1469 3103 1208 2742 
Q 947 2381 947 1747 
z
" transform="scale(0.015625)"/>
       <path id="DejaVuSans-20" transform="scale(0.015625)"/>
       <path id="DejaVuSans-43" d="M 4122 4306 
L 4122 3641 
Q 3803 3938 3442 4084 
Q 3081 4231 2675 4231 
Q 1875 4231 1450 3742 
Q 1025 3253 1025 2328 
Q 1025 1406 1450 917 
Q 1875 428 2675 428 
Q 3081 428 3442 575 
Q 3803 722 4122 1019 
L 4122 359 
Q 3791 134 3420 21 
Q 3050 -91 2638 -91 
Q 1578 -91 968 557 
Q 359 1206 359 2328 
Q 359 3453 968 4101 
Q 1578 4750 2638 4750 
Q 3056 4750 3426 4639 
Q 3797 4528 4122 4306 
z
" transform="scale(0.015625)"/>
       <path id="DejaVuSans-63" d="M 3122 3366 
L 3122 2828 
Q 2878 2963 2633 3030 
Q 2388 3097 2138 3097 
Q 1578 3097 1268 2742 
Q 959 2388 959 1747 
Q 959 1106 1268 751 
Q 1578 397 2138 397 
Q 2388 397 2633 464 
Q 2878 531 3122 666 
L 3122 134 
Q 2881 22 2623 -34 
Q 2366 -91 2075 -91 
Q 1284 -91 818 406 
Q 353 903 353 1747 
Q 353 2603 823 3093 
Q 1294 3584 2113 3584 
Q 2378 3584 2631 3529 
Q 2884 3475 3122 3366 
z
" transform="scale(0.015625)"/>
      </defs>
      <use xlink:href="#DejaVuSans-4d"/>
      <use xlink:href="#DejaVuSans-65" x="86.279297"/>
      <use xlink:href="#DejaVuSans-64" x="147.802734"/>
      <use xlink:href="#DejaVuSans-69" x="211.279297"/>
      <use xlink:href="#DejaVuSans-61" x="239.0625"/>
      <use xlink:href="#DejaVuSans-6e" x="300.341797"/>
      <use xlink:href="#DejaVuSans-20" x="363.720703"/>
      <use xlink:href="#DejaVuSans-43" x="395.507812"/>
      <use xlink:href="#DejaVuSans-72" x="465.332031"/>
      <use xlink:href="#DejaVuSans-65" x="504.195312"/>
      <use xlink:href="#DejaVuSans-64" x="565.71875"/>
      <use xlink:href="#DejaVuSans-65" x="629.195312"/>
      <use xlink:href="#DejaVuSans-6e" x="690.71875"/>
      <use xlink:href="#DejaVuSans-63" x="754.097656"/>
      <use xlink:href="#DejaVuSans-65" x="809.078125"/>
     </g>
    </g>
   </g>
   <g id="line2d_17">
    <path d="M 81.828693 187.060095 
L 177.163893 187.060095 
L 180.052839 226.383925 
L 182.941784 291.382633 
L 185.83073 305.285443 
L 188.719675 297.119947 
L 191.60862 301.510551 
L 194.497566 257.182678 
L 197.386511 187.060095 
L 200.275457 203.578937 
L 203.164402 211.177929 
L 206.053348 187.060095 
L 208.942293 174.731018 
L 211.831239 180.433762 
L 214.720184 180.88778 
L 217.60913 193.625465 
L 220.498075 185.201938 
L 223.38702 156.369378 
L 226.275966 241.163126 
L 229.164911 237.132047 
L 232.053857 254.934626 
L 234.942802 260.108971 
L 237.831748 287.85758 
L 240.720693 333.392897 
L 243.609639 333.905701 
L 246.498584 289.847573 
L 249.38753 352.763527 
L 252.276475 352.763527 
L 255.16542 327.878211 
L 258.054366 242.167555 
L 260.943311 257.980627 
L 263.832257 252.697331 
L 266.721202 142.051458 
L 269.610148 146.25015 
L 272.499093 141.061112 
L 275.388039 147.102658 
L 278.276984 168.119572 
L 281.16593 191.506741 
L 284.054875 218.628382 
L 286.94382 202.489759 
L 310.055384 202.489759 
L 312.94433 193.884952 
L 315.833275 186.155635 
L 318.72222 180.094683 
L 321.611166 219.983145 
L 333.166948 219.983145 
L 336.055893 212.583814 
L 338.944839 286.870242 
L 341.833784 282.584139 
L 344.72273 331.026801 
L 347.611675 314.727621 
L 350.50062 291.724581 
L 353.389566 335.993362 
L 356.278511 301.93065 
L 359.167457 347.247718 
L 362.056402 365.39391 
L 364.945348 336.28814 
L 367.834293 331.203603 
L 370.723239 296.077496 
L 373.612184 276.781426 
L 376.50113 288.667768 
L 379.390075 279.595289 
L 382.27902 293.875256 
L 385.167966 254.336588 
L 388.056911 282.488994 
L 390.945857 276.92079 
L 393.834802 256.107445 
L 396.723748 214.335182 
L 399.612693 285.065091 
L 402.501639 304.80865 
L 405.390584 210.980875 
L 411.168475 306.699104 
L 414.05742 289.555456 
L 416.946366 201.813569 
L 419.835311 219.919299 
L 422.724257 204.10437 
L 425.613202 212.083526 
L 428.502148 153.741688 
L 431.391093 200.974313 
L 434.280039 205.38564 
L 437.168984 221.572556 
L 440.05793 274.250268 
L 442.946875 335.808492 
L 445.83582 246.697148 
L 448.724766 242.30714 
L 451.613711 242.348503 
L 454.502657 210.785761 
L 457.391602 150.740044 
L 460.280548 165.552596 
L 463.169493 188.166822 
L 466.058439 153.720757 
L 468.947384 152.781948 
L 471.83633 145.834639 
L 474.725275 127.333858 
L 477.61422 142.712456 
L 480.503166 141.625967 
L 483.392111 134.07768 
L 486.281057 147.107038 
L 489.170002 123.249162 
L 494.947893 61.897446 
L 497.836839 51.790195 
L 500.725784 51.063023 
L 503.61473 49.710477 
L 506.503675 55.481835 
L 509.39262 53.341043 
L 512.281566 48.805684 
L 518.059457 47.99465 
L 520.948402 45.996271 
L 523.837348 47.233545 
L 526.726293 46.126347 
L 529.615239 45.4114 
L 535.39313 45.124718 
L 538.282075 45.121224 
L 541.17102 45.251716 
L 544.059966 45.224381 
L 546.948911 45.581813 
L 549.837857 45.789014 
L 552.726802 45.449547 
L 555.615748 45.627112 
L 561.393639 45.719762 
L 564.282584 45.806507 
L 567.17153 46.060948 
L 570.060475 46.083626 
L 575.838366 45.572914 
L 578.727311 45.978833 
L 581.616257 46.983512 
L 584.505202 46.095214 
L 587.394148 46.688623 
L 590.283093 48.159463 
L 593.172039 49.315037 
L 596.060984 46.827376 
L 598.94993 46.436261 
L 601.838875 46.356891 
L 604.72782 49.242043 
L 607.616766 49.25316 
L 610.505711 49.481929 
L 613.394657 48.183526 
L 616.283602 46.25573 
L 619.172548 46.155983 
L 622.061493 45.699386 
L 624.950439 45.624285 
L 627.839384 46.601019 
L 630.72833 46.273971 
L 633.617275 47.487265 
L 636.50622 46.184426 
L 639.395166 46.580143 
L 645.173057 45.595148 
L 648.062002 45.538011 
L 650.950948 45.772325 
L 656.728839 45.324905 
L 659.617784 45.488054 
L 662.50673 45.79126 
L 668.28462 50.10966 
L 671.173566 51.059142 
L 674.062511 49.961785 
L 676.951457 55.388049 
L 682.729348 50.227232 
L 685.618293 50.103644 
L 688.507239 52.208534 
L 691.396184 50.938935 
L 694.28513 48.556621 
L 697.174075 48.591663 
L 700.06302 48.043997 
L 702.951966 54.216672 
L 705.840911 50.509868 
L 708.729857 51.260355 
L 711.618802 58.32227 
L 714.507748 54.66096 
L 717.396693 59.545406 
L 720.285639 61.673002 
L 723.174584 79.166443 
L 726.06353 79.140356 
L 728.952475 65.515454 
L 731.84142 73.584959 
L 734.730366 86.997115 
L 737.619311 90.816946 
L 740.508257 93.720922 
L 743.397202 95.383549 
L 746.286148 78.656064 
L 752.064039 142.682848 
L 754.952984 209.145368 
L 757.84193 268.665568 
L 760.730875 212.473782 
L 763.61982 191.732517 
L 766.508766 151.723044 
L 769.397711 151.756699 
L 772.286657 181.379945 
L 775.175602 243.285704 
L 778.064548 104.543037 
L 780.953493 73.427937 
L 783.842439 90.924982 
L 786.731384 61.93052 
L 789.62033 56.077795 
L 792.509275 60.126811 
L 795.39822 54.57183 
L 798.287166 57.762794 
L 801.176111 48.404561 
L 804.065057 46.647981 
L 804.065057 46.647981 
" clip-path="url(#pc3c7506cbe)" style="fill: none; stroke: #1f77b4; stroke-width: 2.5; stroke-linecap: square"/>
   </g>
   <g id="line2d_18">
    <path d="M 81.828693 266.250652 
L 81.857583 265.651865 
L 84.717639 288.945469 
L 87.606584 287.33388 
L 90.49553 298.386178 
L 93.384475 263.594658 
L 96.27342 255.675549 
L 99.162366 267.533586 
L 102.051311 263.56444 
L 104.940257 222.943316 
L 107.829202 196.821614 
L 113.607093 166.435904 
L 116.496039 137.502487 
L 119.384984 143.885912 
L 122.27393 131.049367 
L 125.162875 132.174114 
L 128.05182 119.120359 
L 130.940766 122.444504 
L 133.829711 133.864297 
L 136.718657 121.327769 
L 139.607602 115.820943 
L 142.496548 93.487828 
L 145.385493 100.105484 
L 148.274439 103.159136 
L 151.163384 91.876821 
L 154.05233 97.282902 
L 156.941275 97.514666 
L 159.83022 101.563127 
L 162.719166 93.300892 
L 165.608111 83.635462 
L 168.497057 88.798939 
L 171.386002 83.206865 
L 174.274948 73.12961 
L 177.163893 77.070341 
L 180.052839 77.505785 
L 182.941784 74.81059 
L 185.83073 83.329844 
L 188.719675 78.733023 
L 191.60862 82.603004 
L 194.497566 89.545213 
L 197.386511 75.836477 
L 200.275457 70.376641 
L 206.053348 64.398498 
L 208.942293 56.226473 
L 211.831239 54.583668 
L 214.720184 61.608851 
L 217.60913 58.978749 
L 220.498075 60.11988 
L 223.38702 58.353098 
L 226.275966 59.139764 
L 229.164911 59.380482 
L 232.053857 59.877305 
L 234.942802 58.074483 
L 237.831748 55.566778 
L 240.720693 54.436321 
L 243.609639 58.411095 
L 246.498584 57.571478 
L 249.38753 54.664952 
L 252.276475 54.004287 
L 255.16542 52.300491 
L 258.054366 53.787521 
L 260.943311 51.712571 
L 263.832257 52.757725 
L 266.721202 50.994381 
L 269.610148 51.158834 
L 272.499093 52.334784 
L 275.388039 52.952146 
L 281.16593 50.843402 
L 284.054875 48.941665 
L 286.94382 51.942561 
L 289.832766 53.472644 
L 292.721711 51.39714 
L 295.610657 49.934756 
L 298.499602 48.248703 
L 301.388548 48.168805 
L 304.277493 48.983249 
L 307.166439 50.51045 
L 310.055384 48.352719 
L 315.833275 48.055862 
L 318.72222 47.528933 
L 321.611166 49.515696 
L 324.500111 49.251441 
L 327.389057 48.851011 
L 333.166948 49.794394 
L 336.055893 48.644475 
L 338.944839 46.772291 
L 341.833784 47.417403 
L 344.72273 47.504342 
L 350.50062 46.64812 
L 353.389566 46.807166 
L 359.167457 45.948587 
L 362.056402 46.325037 
L 364.945348 46.192494 
L 367.834293 47.062938 
L 373.612184 46.246359 
L 376.50113 46.126957 
L 379.390075 45.460775 
L 382.27902 45.633295 
L 385.167966 45.643136 
L 388.056911 45.815905 
L 393.834802 45.603298 
L 396.723748 45.667505 
L 399.612693 45.607817 
L 402.501639 45.390192 
L 408.27953 45.398343 
L 411.168475 45.592237 
L 414.05742 45.456117 
L 428.502148 45.391301 
L 431.391093 45.298762 
L 437.168984 45.350382 
L 440.05793 45.596728 
L 442.946875 45.631631 
L 445.83582 45.519326 
L 448.724766 45.259396 
L 454.502657 45.316422 
L 460.280548 45.084963 
L 471.83633 45.147589 
L 520.948402 44.970578 
L 645.173057 44.954443 
L 708.729857 44.944214 
L 804.065057 44.942079 
L 804.065057 44.942079 
" clip-path="url(#pc3c7506cbe)" style="fill: none; stroke: #aec7e8; stroke-width: 2.5; stroke-linecap: square"/>
   </g>
   <g id="line2d_19">
    <path d="M 81.828693 293.929662 
L 81.857583 297.871612 
L 84.717639 294.158044 
L 87.606584 298.385457 
L 90.49553 316.352794 
L 93.384475 307.505883 
L 96.27342 288.883092 
L 99.162366 278.777435 
L 102.051311 204.847954 
L 104.940257 193.168924 
L 107.829202 187.477519 
L 110.718148 191.441675 
L 113.607093 151.493886 
L 116.496039 143.200851 
L 119.384984 181.377755 
L 122.27393 121.233816 
L 125.162875 129.266727 
L 128.05182 129.797899 
L 130.940766 133.262238 
L 133.829711 127.536457 
L 136.718657 100.992035 
L 139.607602 110.617351 
L 142.496548 104.87463 
L 145.385493 101.172096 
L 148.274439 102.589236 
L 151.163384 99.913558 
L 154.05233 95.22722 
L 156.941275 105.801907 
L 159.83022 75.078615 
L 162.719166 70.271128 
L 165.608111 78.223503 
L 168.497057 88.463436 
L 171.386002 74.806154 
L 174.274948 66.955078 
L 177.163893 71.396318 
L 180.052839 67.213871 
L 182.941784 61.030634 
L 185.83073 61.632665 
L 188.719675 66.778871 
L 191.60862 63.969513 
L 194.497566 62.200292 
L 197.386511 64.901863 
L 200.275457 63.143703 
L 203.164402 58.600331 
L 206.053348 57.900771 
L 208.942293 60.212198 
L 211.831239 57.772469 
L 214.720184 58.901153 
L 217.60913 51.394645 
L 220.498075 52.042114 
L 223.38702 49.549435 
L 226.275966 51.80938 
L 229.164911 49.710283 
L 232.053857 50.409954 
L 234.942802 49.606599 
L 237.831748 48.283273 
L 240.720693 49.611839 
L 243.609639 47.403098 
L 246.498584 47.817722 
L 255.16542 46.627161 
L 258.054366 47.033718 
L 263.832257 46.865274 
L 266.721202 46.246332 
L 269.610148 46.161139 
L 272.499093 45.881803 
L 275.388039 46.496171 
L 278.276984 45.708257 
L 281.16593 45.596395 
L 284.054875 45.672717 
L 286.94382 45.313677 
L 289.832766 45.389499 
L 292.721711 45.329257 
L 295.610657 45.570169 
L 298.499602 45.673077 
L 301.388548 46.02452 
L 304.277493 45.965221 
L 307.166439 46.464844 
L 310.055384 45.961007 
L 321.611166 45.620902 
L 324.500111 45.964057 
L 327.389057 45.377994 
L 333.166948 45.374917 
L 336.055893 45.354125 
L 338.944839 45.174785 
L 341.833784 45.29757 
L 350.50062 45.157763 
L 399.612693 44.955414 
L 804.065057 44.941303 
L 804.065057 44.941303 
" clip-path="url(#pc3c7506cbe)" style="fill: none; stroke: #ff7f0e; stroke-width: 2.5; stroke-linecap: square"/>
   </g>
   <g id="line2d_20">
    <path d="M 81.828693 290.171515 
L 81.857583 290.683474 
L 84.717639 304.293849 
L 87.606584 321.685936 
L 90.49553 314.715104 
L 93.384475 295.544245 
L 96.27342 270.803948 
L 99.162366 230.4394 
L 102.051311 212.116905 
L 104.940257 164.659585 
L 107.829202 153.65242 
L 110.718148 182.592934 
L 113.607093 183.206221 
L 116.496039 170.476464 
L 119.384984 189.672842 
L 122.27393 165.655531 
L 125.162875 178.30575 
L 128.05182 162.499138 
L 130.940766 150.186778 
L 133.829711 158.13993 
L 136.718657 136.262468 
L 139.607602 141.16463 
L 142.496548 132.412836 
L 145.385493 133.545761 
L 148.274439 146.609135 
L 151.163384 125.731001 
L 154.05233 122.69207 
L 156.941275 170.396179 
L 159.83022 158.757319 
L 162.719166 128.149826 
L 165.608111 128.440972 
L 168.497057 146.242083 
L 171.386002 126.131265 
L 174.274948 109.373091 
L 177.163893 105.494598 
L 180.052839 96.868112 
L 182.941784 83.869942 
L 185.83073 79.418195 
L 188.719675 79.692874 
L 191.60862 93.464652 
L 194.497566 88.713802 
L 197.386511 80.829929 
L 200.275457 81.1511 
L 203.164402 74.189347 
L 206.053348 73.72801 
L 208.942293 75.196548 
L 211.831239 74.070111 
L 214.720184 80.965356 
L 217.60913 63.870348 
L 220.498075 71.067746 
L 223.38702 60.934103 
L 226.275966 68.75108 
L 229.164911 59.899428 
L 232.053857 57.819321 
L 234.942802 57.344982 
L 240.720693 57.598175 
L 243.609639 57.876652 
L 246.498584 59.146362 
L 249.38753 65.535498 
L 252.276475 62.966276 
L 255.16542 58.089398 
L 258.054366 56.984667 
L 260.943311 56.539465 
L 263.832257 54.262359 
L 266.721202 49.346309 
L 269.610148 49.303643 
L 272.499093 49.589882 
L 275.388039 52.009206 
L 278.276984 53.655837 
L 281.16593 50.004007 
L 284.054875 49.256098 
L 286.94382 47.961493 
L 289.832766 48.815526 
L 292.721711 49.286705 
L 295.610657 50.067437 
L 298.499602 51.745645 
L 301.388548 50.167573 
L 304.277493 51.063106 
L 307.166439 49.642889 
L 310.055384 49.749345 
L 312.94433 49.075068 
L 315.833275 48.149399 
L 318.72222 48.945047 
L 321.611166 48.615255 
L 324.500111 49.134007 
L 327.389057 50.508897 
L 330.278002 51.408229 
L 333.166948 50.119972 
L 336.055893 50.167351 
L 338.944839 48.615034 
L 341.833784 48.160239 
L 344.72273 47.55441 
L 347.611675 47.270694 
L 350.50062 47.126812 
L 353.389566 47.173303 
L 356.278511 46.636171 
L 364.945348 46.310455 
L 370.723239 47.606501 
L 373.612184 46.998843 
L 376.50113 46.205357 
L 379.390075 46.898874 
L 382.27902 46.160446 
L 385.167966 46.04717 
L 388.056911 46.083071 
L 390.945857 45.733236 
L 393.834802 46.033891 
L 399.612693 45.470589 
L 408.27953 45.231479 
L 419.835311 45.135169 
L 422.724257 45.300841 
L 477.61422 45.019093 
L 546.948911 44.947208 
L 633.617275 44.941968 
L 804.065057 44.941414 
L 804.065057 44.941414 
" clip-path="url(#pc3c7506cbe)" style="fill: none; stroke: #ffbb78; stroke-width: 2.5; stroke-linecap: square"/>
   </g>
   <g id="line2d_21">
    <path d="M 81.828693 313.772774 
L 81.857583 313.257973 
L 84.717639 314.190198 
L 87.606584 311.456843 
L 90.49553 310.577693 
L 93.384475 298.057134 
L 96.27342 244.737137 
L 99.162366 293.956886 
L 102.051311 235.353926 
L 104.940257 192.515855 
L 107.829202 203.035762 
L 110.718148 192.260028 
L 113.607093 159.906518 
L 116.496039 147.997998 
L 119.384984 178.174122 
L 122.27393 169.927273 
L 125.162875 155.546506 
L 128.05182 149.459883 
L 130.940766 125.806629 
L 133.829711 117.090958 
L 136.718657 98.75729 
L 139.607602 102.055847 
L 142.496548 124.139345 
L 145.385493 115.994877 
L 148.274439 138.573867 
L 151.163384 154.147885 
L 154.05233 160.261898 
L 159.83022 182.639814 
L 162.719166 157.009056 
L 165.608111 181.148237 
L 168.497057 158.207602 
L 171.386002 149.804534 
L 174.274948 126.114132 
L 177.163893 117.012752 
L 180.052839 91.606911 
L 182.941784 100.839919 
L 185.83073 80.678396 
L 188.719675 76.662204 
L 191.60862 80.387416 
L 194.497566 91.253721 
L 197.386511 119.619816 
L 200.275457 91.826476 
L 203.164402 114.122194 
L 206.053348 81.048137 
L 208.942293 71.97764 
L 211.831239 71.128126 
L 214.720184 73.01115 
L 217.60913 58.551317 
L 220.498075 58.372172 
L 223.38702 63.433629 
L 226.275966 58.556973 
L 229.164911 57.15203 
L 232.053857 59.278767 
L 234.942802 63.032173 
L 237.831748 59.184842 
L 240.720693 56.918409 
L 243.609639 57.902878 
L 246.498584 53.081086 
L 249.38753 51.305987 
L 252.276475 50.74213 
L 255.16542 50.456751 
L 258.054366 49.091424 
L 260.943311 50.563733 
L 263.832257 49.181468 
L 266.721202 47.573982 
L 269.610148 47.765492 
L 272.499093 48.969665 
L 275.388039 49.350301 
L 278.276984 49.883219 
L 281.16593 49.39987 
L 284.054875 48.164813 
L 286.94382 50.967102 
L 289.832766 52.373707 
L 292.721711 49.65054 
L 295.610657 48.241578 
L 298.499602 47.807908 
L 301.388548 46.994573 
L 304.277493 47.112257 
L 310.055384 46.841432 
L 312.94433 47.436809 
L 315.833275 46.224541 
L 318.72222 47.071199 
L 321.611166 47.439138 
L 324.500111 47.419344 
L 327.389057 48.007486 
L 330.278002 47.828811 
L 333.166948 47.82116 
L 336.055893 49.249389 
L 338.944839 49.002434 
L 341.833784 50.632043 
L 344.72273 48.664574 
L 347.611675 46.958589 
L 350.50062 47.529958 
L 353.389566 46.374467 
L 356.278511 46.799543 
L 359.167457 46.582583 
L 362.056402 46.651363 
L 364.945348 46.969789 
L 367.834293 47.043255 
L 370.723239 46.11085 
L 373.612184 46.310649 
L 376.50113 46.270589 
L 379.390075 45.875011 
L 382.27902 46.371223 
L 385.167966 46.20264 
L 390.945857 45.529084 
L 393.834802 45.447024 
L 396.723748 45.645132 
L 399.612693 45.439096 
L 414.05742 45.294271 
L 416.946366 45.178223 
L 434.280039 45.691208 
L 437.168984 45.778784 
L 440.05793 45.344283 
L 442.946875 45.439068 
L 445.83582 45.410042 
L 448.724766 45.591599 
L 454.502657 45.573773 
L 457.391602 45.322382 
L 460.280548 45.352101 
L 463.169493 45.153965 
L 468.947384 45.213181 
L 471.83633 45.085351 
L 483.392111 45.061177 
L 486.281057 44.987434 
L 492.058948 45.086959 
L 518.059457 45.009889 
L 526.726293 45.011885 
L 549.837857 44.982471 
L 630.72833 44.945849 
L 804.065057 44.941469 
L 804.065057 44.941469 
" clip-path="url(#pc3c7506cbe)" style="fill: none; stroke: #2ca02c; stroke-width: 2.5; stroke-linecap: square"/>
   </g>
   <g id="line2d_22">
    <path d="M 81.828693 312.051056 
L 804.065057 312.051056 
L 804.065057 312.051056 
" clip-path="url(#pc3c7506cbe)" style="fill: none; stroke: #98df8a; stroke-width: 2.5; stroke-linecap: square"/>
   </g>
   <g id="line2d_23">
    <path d="M 81.828693 279.121019 
L 81.857583 283.452324 
L 84.717639 268.780757 
L 87.606584 276.975265 
L 90.49553 279.557198 
L 93.384475 279.785968 
L 96.27342 226.722394 
L 99.162366 226.264993 
L 102.051311 174.68558 
L 104.940257 146.079155 
L 107.829202 133.106463 
L 110.718148 125.063295 
L 113.607093 137.121131 
L 116.496039 97.995603 
L 119.384984 111.176772 
L 122.27393 90.271886 
L 125.162875 83.221281 
L 128.05182 81.946442 
L 130.940766 76.267208 
L 133.829711 67.147614 
L 136.718657 68.207156 
L 139.607602 55.665888 
L 142.496548 57.391667 
L 145.385493 55.876887 
L 148.274439 56.216992 
L 151.163384 58.042518 
L 154.05233 59.574515 
L 156.941275 57.743804 
L 159.83022 53.734875 
L 162.719166 52.285881 
L 165.608111 50.278825 
L 168.497057 52.556263 
L 171.386002 53.154745 
L 174.274948 53.316481 
L 177.163893 49.800438 
L 180.052839 49.780422 
L 182.941784 49.072434 
L 185.83073 47.158665 
L 188.719675 47.073611 
L 191.60862 46.63326 
L 194.497566 47.968757 
L 197.386511 49.079115 
L 200.275457 48.339357 
L 203.164402 48.607632 
L 206.053348 47.15179 
L 208.942293 47.325446 
L 211.831239 46.335738 
L 214.720184 46.4364 
L 217.60913 46.016869 
L 223.38702 46.79483 
L 226.275966 46.326395 
L 229.164911 46.753883 
L 232.053857 46.875503 
L 234.942802 46.184315 
L 237.831748 46.259694 
L 240.720693 46.177218 
L 246.498584 45.614609 
L 249.38753 45.5211 
L 255.16542 45.154076 
L 260.943311 45.454898 
L 269.610148 45.270596 
L 275.388039 45.301895 
L 281.16593 45.133395 
L 289.832766 45.415282 
L 301.388548 45.226294 
L 333.166948 45.052084 
L 344.72273 45.051806 
L 359.167457 44.997109 
L 734.730366 44.941414 
L 804.065057 44.941303 
L 804.065057 44.941303 
" clip-path="url(#pc3c7506cbe)" style="fill: none; stroke: #d62728; stroke-width: 2.5; stroke-linecap: square"/>
   </g>
   <g id="line2d_24">
    <path d="M 81.828693 290.527976 
L 81.857583 290.527976 
L 84.717639 256.892807 
L 87.606584 249.300968 
L 90.49553 269.852997 
L 93.384475 349.187145 
L 96.27342 344.759087 
L 99.162366 329.749952 
L 102.051311 316.961284 
L 104.940257 253.30402 
L 107.829202 266.115392 
L 110.718148 254.040285 
L 113.607093 194.499763 
L 116.496039 243.282238 
L 119.384984 267.141861 
L 122.27393 263.415263 
L 125.162875 284.256829 
L 128.05182 266.262712 
L 130.940766 276.749711 
L 133.829711 318.745296 
L 136.718657 293.819173 
L 139.607602 288.726458 
L 142.496548 290.606488 
L 145.385493 256.79586 
L 148.274439 239.949222 
L 151.163384 275.278123 
L 154.05233 274.594781 
L 156.941275 288.055258 
L 159.83022 279.166845 
L 162.719166 283.176329 
L 165.608111 310.623561 
L 168.497057 298.161317 
L 171.386002 316.702879 
L 174.274948 317.73675 
L 177.163893 295.469615 
L 180.052839 318.597159 
L 182.941784 332.252999 
L 185.83073 335.346988 
L 188.719675 325.803816 
L 191.60862 325.695253 
L 194.497566 339.846835 
L 197.386511 341.435067 
L 200.275457 351.473912 
L 203.164402 339.652788 
L 206.053348 297.835268 
L 208.942293 329.510662 
L 211.831239 348.991629 
L 214.720184 344.287631 
L 217.60913 344.936209 
L 220.498075 288.569546 
L 223.38702 269.438484 
L 226.275966 246.437495 
L 229.164911 277.998393 
L 232.053857 243.881885 
L 234.942802 221.188926 
L 237.831748 310.563749 
L 240.720693 246.072689 
L 243.609639 266.010045 
L 246.498584 261.022248 
L 249.38753 196.234719 
L 252.276475 178.373727 
L 255.16542 126.678016 
L 258.054366 110.795277 
L 260.943311 99.105185 
L 263.832257 101.213735 
L 266.721202 107.700955 
L 269.610148 112.73541 
L 272.499093 99.81395 
L 275.388039 114.427201 
L 278.276984 111.665277 
L 281.16593 86.448673 
L 284.054875 98.936519 
L 286.94382 70.623347 
L 289.832766 59.908521 
L 292.721711 56.95176 
L 295.610657 57.90371 
L 298.499602 71.1444 
L 301.388548 58.911715 
L 304.277493 66.431115 
L 307.166439 73.447897 
L 310.055384 90.684652 
L 312.94433 81.341667 
L 315.833275 74.81594 
L 318.72222 70.324272 
L 321.611166 62.31415 
L 324.500111 53.380133 
L 327.389057 51.443936 
L 330.278002 52.970222 
L 333.166948 55.016201 
L 338.944839 53.548549 
L 341.833784 51.617897 
L 344.72273 49.980498 
L 347.611675 48.717109 
L 350.50062 49.781586 
L 353.389566 50.073675 
L 356.278511 51.415548 
L 359.167457 51.108572 
L 362.056402 49.802129 
L 364.945348 50.233498 
L 367.834293 49.08186 
L 370.723239 51.387714 
L 373.612184 47.912313 
L 376.50113 47.43071 
L 379.390075 48.116243 
L 382.27902 47.436976 
L 385.167966 48.796619 
L 390.945857 49.491244 
L 393.834802 49.936502 
L 396.723748 53.952306 
L 399.612693 51.931693 
L 402.501639 49.205255 
L 405.390584 48.650658 
L 408.27953 47.368112 
L 411.168475 47.293593 
L 414.05742 46.40901 
L 416.946366 46.516686 
L 422.724257 46.349849 
L 425.613202 46.581058 
L 428.502148 46.216613 
L 431.391093 45.582201 
L 434.280039 45.287895 
L 440.05793 45.178999 
L 442.946875 45.175173 
L 445.83582 45.316505 
L 471.83633 45.005509 
L 541.17102 45.05383 
L 549.837857 45.217506 
L 555.615748 45.177502 
L 561.393639 45.19591 
L 570.060475 45.068717 
L 575.838366 45.158013 
L 578.727311 45.222247 
L 581.616257 45.154187 
L 587.394148 45.289614 
L 596.060984 45.164749 
L 627.839384 44.961707 
L 688.507239 44.941857 
L 804.065057 44.941358 
L 804.065057 44.941358 
" clip-path="url(#pc3c7506cbe)" style="fill: none; stroke: #ff9896; stroke-width: 2.5; stroke-linecap: square"/>
   </g>
   <g id="line2d_25">
    <path d="M 81.828693 293.302847 
L 81.857583 288.564403 
L 84.717639 277.123777 
L 87.606584 285.13864 
L 90.49553 289.178175 
L 93.384475 296.882639 
L 96.27342 279.714456 
L 99.162366 280.361717 
L 102.051311 155.117022 
L 104.940257 136.593896 
L 107.829202 151.425577 
L 110.718148 164.91605 
L 113.607093 145.618844 
L 116.496039 129.216216 
L 119.384984 148.014742 
L 122.27393 146.122875 
L 125.162875 147.787442 
L 128.05182 160.981862 
L 130.940766 151.878597 
L 133.829711 184.08842 
L 136.718657 144.47264 
L 139.607602 152.696673 
L 142.496548 169.058409 
L 145.385493 172.496301 
L 148.274439 118.455009 
L 151.163384 154.428496 
L 154.05233 135.765979 
L 156.941275 131.164528 
L 159.83022 130.722153 
L 162.719166 114.246891 
L 165.608111 110.48051 
L 168.497057 123.164718 
L 171.386002 113.533858 
L 174.274948 89.168874 
L 177.163893 84.083298 
L 180.052839 86.104465 
L 182.941784 90.581717 
L 185.83073 81.022271 
L 188.719675 82.756118 
L 191.60862 92.774933 
L 194.497566 77.48369 
L 197.386511 72.326228 
L 200.275457 66.16406 
L 203.164402 65.489644 
L 206.053348 55.844562 
L 208.942293 57.258376 
L 211.831239 59.767882 
L 214.720184 61.379638 
L 217.60913 51.975994 
L 220.498075 54.187951 
L 223.38702 62.144873 
L 226.275966 61.864706 
L 229.164911 53.364026 
L 232.053857 52.885584 
L 234.942802 51.072227 
L 237.831748 53.414371 
L 240.720693 56.809597 
L 243.609639 56.073664 
L 246.498584 54.014849 
L 249.38753 50.970318 
L 252.276475 47.383304 
L 258.054366 49.440262 
L 260.943311 50.113347 
L 269.610148 47.590672 
L 272.499093 45.982576 
L 275.388039 46.307627 
L 281.16593 46.347021 
L 284.054875 46.154291 
L 286.94382 45.651509 
L 289.832766 45.583532 
L 292.721711 45.362469 
L 295.610657 45.442256 
L 301.388548 45.993803 
L 304.277493 47.114364 
L 307.166439 46.02854 
L 310.055384 46.630155 
L 312.94433 45.980192 
L 315.833275 46.916949 
L 318.72222 46.07298 
L 321.611166 45.740222 
L 324.500111 46.420376 
L 327.389057 45.53352 
L 330.278002 45.301423 
L 344.72273 45.336659 
L 347.611675 45.065779 
L 350.50062 45.230896 
L 356.278511 45.219308 
L 359.167457 45.412648 
L 362.056402 45.280576 
L 364.945348 45.501638 
L 370.723239 45.222413 
L 376.50113 45.52049 
L 382.27902 45.567619 
L 388.056911 45.109137 
L 393.834802 45.225075 
L 402.501639 45.028519 
L 434.280039 44.996499 
L 454.502657 44.950507 
L 523.837348 44.941857 
L 804.065057 44.941303 
L 804.065057 44.941303 
" clip-path="url(#pc3c7506cbe)" style="fill: none; stroke: #9467bd; stroke-width: 2.5; stroke-linecap: square"/>
   </g>
   <g id="line2d_26">
    <path d="M 81.828693 436.613864 
L 804.065057 436.613864 
L 804.065057 436.613864 
" clip-path="url(#pc3c7506cbe)" style="fill: none; stroke: #c5b0d5; stroke-width: 2.5; stroke-linecap: square"/>
   </g>
   <g id="line2d_27">
    <path d="M 81.828693 247.12641 
L 81.857583 243.938773 
L 84.717639 186.35998 
L 87.606584 256.090672 
L 90.49553 176.318516 
L 93.384475 190.616004 
L 96.27342 133.509776 
L 99.162366 118.874762 
L 102.051311 159.22251 
L 104.940257 70.309552 
L 107.829202 75.991697 
L 110.718148 78.813835 
L 113.607093 71.6438 
L 116.496039 70.271627 
L 119.384984 87.475059 
L 122.27393 66.50544 
L 125.162875 62.516111 
L 128.05182 63.650062 
L 130.940766 92.296103 
L 133.829711 68.931279 
L 136.718657 56.106599 
L 139.607602 63.208242 
L 145.385493 52.481938 
L 148.274439 67.149111 
L 151.163384 67.615604 
L 154.05233 67.568642 
L 156.941275 55.307652 
L 159.83022 51.921048 
L 162.719166 57.029523 
L 165.608111 54.231864 
L 168.497057 53.535353 
L 171.386002 50.373471 
L 174.274948 54.044402 
L 177.163893 51.703007 
L 180.052839 49.993778 
L 182.941784 49.863563 
L 185.83073 47.887972 
L 188.719675 48.001775 
L 191.60862 46.113483 
L 194.497566 45.956627 
L 197.386511 46.196763 
L 200.275457 45.511452 
L 203.164402 45.374557 
L 206.053348 45.694867 
L 208.942293 46.342031 
L 211.831239 45.795058 
L 214.720184 46.13458 
L 217.60913 45.911993 
L 223.38702 45.655584 
L 226.275966 46.047835 
L 229.164911 46.191911 
L 232.053857 45.966108 
L 234.942802 46.746398 
L 237.831748 46.00919 
L 240.720693 45.597615 
L 243.609639 46.295789 
L 246.498584 46.665613 
L 249.38753 45.88366 
L 252.276475 46.326894 
L 255.16542 45.622178 
L 258.054366 45.882995 
L 260.943311 45.648043 
L 263.832257 47.215858 
L 269.610148 47.482774 
L 272.499093 45.801656 
L 275.388039 45.28953 
L 278.276984 45.117842 
L 281.16593 45.306414 
L 284.054875 45.252687 
L 286.94382 45.497785 
L 289.832766 45.144595 
L 295.610657 45.030959 
L 301.388548 45.109248 
L 304.277493 44.989929 
L 321.611166 45.319222 
L 324.500111 45.795557 
L 330.278002 45.371618 
L 333.166948 45.590352 
L 336.055893 45.080777 
L 341.833784 45.140298 
L 350.50062 45.193304 
L 356.278511 45.538953 
L 359.167457 45.251023 
L 364.945348 45.158484 
L 367.834293 45.211269 
L 370.723239 45.088012 
L 382.27902 45.139771 
L 385.167966 45.230896 
L 388.056911 45.117399 
L 396.723748 45.150223 
L 399.612693 45.047371 
L 416.946366 45.04105 
L 437.168984 44.983053 
L 483.392111 45.181134 
L 486.281057 45.004483 
L 492.058948 44.993644 
L 804.065057 44.941136 
L 804.065057 44.941136 
" clip-path="url(#pc3c7506cbe)" style="fill: none; stroke: #8c564b; stroke-width: 2.5; stroke-linecap: square"/>
   </g>
   <g id="line2d_28">
    <path d="M 81.828693 254.09537 
L 81.857583 253.181983 
L 84.717639 252.859954 
L 87.606584 264.343454 
L 90.49553 260.661351 
L 93.384475 251.284904 
L 96.27342 217.805038 
L 99.162366 203.38496 
L 102.051311 190.849819 
L 104.940257 171.083901 
L 107.829202 180.872228 
L 110.718148 168.606082 
L 113.607093 168.679049 
L 116.496039 173.629476 
L 119.384984 208.556671 
L 122.27393 162.095104 
L 128.05182 143.956134 
L 130.940766 142.882009 
L 133.829711 132.975833 
L 136.718657 124.068014 
L 139.607602 117.603583 
L 142.496548 121.575723 
L 145.385493 125.323142 
L 148.274439 120.643152 
L 151.163384 116.872197 
L 154.05233 116.870783 
L 156.941275 112.321922 
L 159.83022 111.840597 
L 162.719166 110.864972 
L 165.608111 109.501614 
L 168.497057 113.00119 
L 171.386002 120.963767 
L 174.274948 117.614672 
L 177.163893 116.599292 
L 180.052839 117.888075 
L 182.941784 108.793737 
L 185.83073 107.132191 
L 188.719675 108.032077 
L 191.60862 106.546073 
L 194.497566 104.890239 
L 197.386511 104.479191 
L 200.275457 105.877784 
L 203.164402 104.577663 
L 206.053348 105.328566 
L 208.942293 107.312945 
L 211.831239 104.406363 
L 214.720184 107.73023 
L 217.60913 107.37887 
L 220.498075 110.798437 
L 223.38702 109.999878 
L 226.275966 108.430428 
L 229.164911 108.111143 
L 234.942802 106.246416 
L 237.831748 110.539228 
L 240.720693 111.886451 
L 243.609639 113.041138 
L 246.498584 111.073615 
L 249.38753 105.78702 
L 252.276475 109.04973 
L 255.16542 106.16455 
L 258.054366 105.801131 
L 260.943311 108.87624 
L 263.832257 105.277278 
L 266.721202 107.304794 
L 269.610148 103.250871 
L 272.499093 101.933173 
L 275.388039 102.915673 
L 278.276984 103.711571 
L 281.16593 105.629221 
L 284.054875 102.895463 
L 286.94382 102.522618 
L 289.832766 102.57981 
L 292.721711 102.468309 
L 295.610657 102.747922 
L 298.499602 105.152608 
L 301.388548 103.925009 
L 304.277493 103.438528 
L 307.166439 101.720954 
L 310.055384 100.943548 
L 312.94433 100.931682 
L 315.833275 100.674857 
L 318.72222 101.072681 
L 321.611166 100.821123 
L 324.500111 100.831159 
L 327.389057 100.38421 
L 330.278002 100.526817 
L 333.166948 100.361644 
L 336.055893 100.64913 
L 338.944839 101.055548 
L 344.72273 100.619439 
L 350.50062 100.57134 
L 353.389566 100.300515 
L 359.167457 100.155662 
L 367.834293 100.041832 
L 373.612184 99.996865 
L 385.167966 99.901277 
L 408.27953 99.927336 
L 414.05742 99.961269 
L 425.613202 99.923815 
L 434.280039 99.950152 
L 437.168984 100.005681 
L 442.946875 99.983253 
L 457.391602 99.901776 
L 480.503166 99.927475 
L 492.058948 99.887582 
L 570.060475 99.867067 
L 804.065057 99.86654 
L 804.065057 99.86654 
" clip-path="url(#pc3c7506cbe)" style="fill: none; stroke: #c49c94; stroke-width: 2.5; stroke-linecap: square"/>
   </g>
   <g id="line2d_29">
    <path d="M 81.828693 269.178886 
L 81.857583 273.477048 
L 84.717639 270.308706 
L 87.606584 255.32053 
L 90.49553 266.782018 
L 93.384475 233.762131 
L 96.27342 233.734048 
L 99.162366 206.165403 
L 102.051311 165.180887 
L 104.940257 107.376208 
L 107.829202 138.085167 
L 110.718148 146.582576 
L 113.607093 120.570047 
L 116.496039 129.621581 
L 119.384984 99.040425 
L 122.27393 94.256501 
L 125.162875 87.367133 
L 128.05182 92.457284 
L 130.940766 96.457286 
L 133.829711 87.314903 
L 136.718657 88.399452 
L 139.607602 66.740724 
L 142.496548 69.799228 
L 145.385493 73.131634 
L 148.274439 72.924821 
L 151.163384 69.576641 
L 154.05233 70.358233 
L 156.941275 74.845548 
L 159.83022 79.589689 
L 162.719166 71.907334 
L 165.608111 72.194405 
L 168.497057 71.629301 
L 171.386002 70.110445 
L 174.274948 63.028625 
L 177.163893 76.682386 
L 180.052839 74.584925 
L 182.941784 68.99554 
L 185.83073 53.876262 
L 188.719675 62.487473 
L 191.60862 65.670952 
L 194.497566 61.074325 
L 197.386511 82.071057 
L 200.275457 77.132745 
L 203.164402 70.382795 
L 206.053348 68.805638 
L 208.942293 68.312475 
L 211.831239 57.623265 
L 214.720184 72.332937 
L 217.60913 59.785181 
L 220.498075 58.512228 
L 223.38702 56.602562 
L 226.275966 68.533344 
L 229.164911 57.741808 
L 232.053857 52.753179 
L 234.942802 53.599116 
L 237.831748 48.686004 
L 240.720693 49.862953 
L 243.609639 53.648796 
L 246.498584 51.703811 
L 249.38753 48.7781 
L 252.276475 48.408775 
L 255.16542 47.836241 
L 258.054366 48.000749 
L 260.943311 47.842285 
L 263.832257 46.566115 
L 266.721202 45.475413 
L 272.499093 46.116477 
L 275.388039 45.972706 
L 278.276984 46.047226 
L 281.16593 45.591682 
L 284.054875 45.390969 
L 286.94382 45.646796 
L 289.832766 46.2679 
L 292.721711 45.628388 
L 295.610657 45.358699 
L 298.499602 45.380545 
L 301.388548 45.530027 
L 312.94433 45.055244 
L 315.833275 45.093502 
L 318.72222 45.307495 
L 321.611166 45.155545 
L 324.500111 45.486252 
L 327.389057 45.695144 
L 330.278002 45.526811 
L 333.166948 45.127268 
L 336.055893 45.402973 
L 341.833784 45.505686 
L 344.72273 45.401697 
L 347.611675 46.55206 
L 350.50062 45.8161 
L 353.389566 45.471504 
L 356.278511 45.660713 
L 362.056402 45.682142 
L 364.945348 45.427923 
L 367.834293 45.347554 
L 370.723239 45.451127 
L 373.612184 45.337352 
L 376.50113 45.507904 
L 379.390075 45.355206 
L 382.27902 45.317835 
L 385.167966 45.460664 
L 390.945857 45.292718 
L 416.946366 45.045153 
L 434.280039 45.094001 
L 437.168984 45.111466 
L 440.05793 45.00379 
L 454.502657 44.990594 
L 480.503166 44.959877 
L 804.065057 44.941469 
L 804.065057 44.941469 
" clip-path="url(#pc3c7506cbe)" style="fill: none; stroke: #e377c2; stroke-width: 2.5; stroke-linecap: square"/>
   </g>
   <g id="line2d_30">
    <path d="M 81.828693 290.369983 
L 81.857583 291.289885 
L 84.717639 245.154977 
L 87.606584 217.276972 
L 90.49553 245.150098 
L 93.384475 218.908106 
L 96.27342 188.125043 
L 99.162366 184.365122 
L 102.051311 152.562771 
L 104.940257 108.154696 
L 107.829202 96.157351 
L 110.718148 112.184805 
L 113.607093 114.047037 
L 116.496039 101.908583 
L 119.384984 123.174227 
L 122.27393 107.178211 
L 125.162875 104.515646 
L 128.05182 90.29972 
L 130.940766 91.326299 
L 133.829711 88.541975 
L 136.718657 79.699888 
L 139.607602 78.370324 
L 142.496548 84.069852 
L 145.385493 84.099127 
L 148.274439 88.140409 
L 151.163384 81.050549 
L 154.05233 94.364316 
L 156.941275 79.179722 
L 159.83022 77.305597 
L 162.719166 69.078404 
L 165.608111 58.93686 
L 168.497057 70.443703 
L 171.386002 60.378507 
L 174.274948 57.203928 
L 177.163893 52.522136 
L 180.052839 52.878181 
L 182.941784 53.784222 
L 185.83073 52.339802 
L 188.719675 48.305507 
L 191.60862 50.970872 
L 194.497566 52.180645 
L 197.386511 52.616893 
L 200.275457 52.008513 
L 203.164402 49.759269 
L 206.053348 48.710927 
L 211.831239 46.942426 
L 214.720184 46.399806 
L 217.60913 46.51663 
L 220.498075 47.125536 
L 223.38702 46.894105 
L 229.164911 47.145441 
L 232.053857 47.108182 
L 234.942802 46.9139 
L 237.831748 47.287771 
L 243.609639 46.698853 
L 246.498584 47.996175 
L 249.38753 47.964016 
L 252.276475 46.683079 
L 255.16542 45.920864 
L 258.054366 45.868219 
L 260.943311 46.238597 
L 263.832257 46.32257 
L 269.610148 46.066715 
L 278.276984 45.576823 
L 281.16593 46.164299 
L 284.054875 46.123713 
L 286.94382 46.288526 
L 289.832766 46.140181 
L 292.721711 45.746543 
L 295.610657 45.860623 
L 298.499602 45.544165 
L 304.277493 45.873708 
L 307.166439 45.845098 
L 310.055384 45.537373 
L 312.94433 45.737921 
L 315.833275 45.783664 
L 318.72222 45.465571 
L 324.500111 45.549405 
L 327.389057 45.205474 
L 330.278002 45.24911 
L 333.166948 45.552787 
L 336.055893 45.147728 
L 338.944839 45.077727 
L 347.611675 45.191502 
L 359.167457 45.055216 
L 362.056402 45.279661 
L 364.945348 45.089482 
L 370.723239 45.043295 
L 399.612693 44.969636 
L 414.05742 44.956467 
L 425.613202 44.962927 
L 457.391602 44.953556 
L 515.170511 44.94377 
L 705.840911 44.941441 
L 804.065057 44.941358 
L 804.065057 44.941358 
" clip-path="url(#pc3c7506cbe)" style="fill: none; stroke: #f7b6d2; stroke-width: 2.5; stroke-linecap: square"/>
   </g>
   <g id="line2d_31">
    <path d="M 81.828693 221.843686 
L 81.857583 219.567412 
L 84.717639 217.832567 
L 87.606584 218.685962 
L 90.49553 194.046854 
L 93.384475 172.03671 
L 96.27342 195.799747 
L 99.162366 202.201857 
L 102.051311 187.097826 
L 104.940257 217.036337 
L 107.829202 159.186997 
L 110.718148 173.504196 
L 113.607093 215.045083 
L 116.496039 156.019792 
L 119.384984 117.998939 
L 122.27393 135.334721 
L 125.162875 117.998939 
L 128.05182 98.188499 
L 130.940766 94.008686 
L 133.829711 134.408969 
L 136.718657 122.905897 
L 139.607602 98.744704 
L 142.496548 105.803847 
L 145.385493 100.179809 
L 148.274439 108.754869 
L 151.163384 112.605057 
L 154.05233 145.436205 
L 156.941275 130.88533 
L 159.83022 161.360336 
L 162.719166 148.730437 
L 165.608111 156.79559 
L 168.497057 161.341013 
L 171.386002 161.341013 
L 174.274948 124.776252 
L 177.163893 83.768753 
L 180.052839 119.697163 
L 182.941784 133.390984 
L 185.83073 108.978011 
L 188.719675 74.095865 
L 191.60862 68.811904 
L 194.497566 70.211884 
L 197.386511 62.029019 
L 200.275457 64.839569 
L 203.164402 68.659178 
L 206.053348 56.071751 
L 208.942293 53.431476 
L 211.831239 66.39416 
L 214.720184 66.41814 
L 217.60913 76.544354 
L 220.498075 60.968867 
L 223.38702 58.146923 
L 226.275966 61.832852 
L 229.164911 67.200564 
L 232.053857 73.024513 
L 234.942802 68.405486 
L 240.720693 98.703452 
L 243.609639 84.951663 
L 246.498584 72.688178 
L 249.38753 81.638663 
L 252.276475 99.058888 
L 255.16542 74.185521 
L 258.054366 80.634788 
L 260.943311 82.184056 
L 263.832257 59.265931 
L 266.721202 53.919953 
L 269.610148 59.363183 
L 272.499093 59.386803 
L 275.388039 52.111781 
L 278.276984 67.856184 
L 281.16593 62.194137 
L 284.054875 57.438824 
L 286.94382 53.831212 
L 289.832766 50.432548 
L 292.721711 52.510271 
L 295.610657 50.459855 
L 298.499602 48.206398 
L 301.388548 47.659729 
L 304.277493 48.548304 
L 307.166439 48.401512 
L 310.055384 48.888687 
L 312.94433 47.341415 
L 315.833275 46.79239 
L 318.72222 46.619399 
L 321.611166 47.795433 
L 324.500111 47.298333 
L 330.278002 49.539011 
L 333.166948 51.578836 
L 336.055893 54.399421 
L 338.944839 51.034136 
L 341.833784 49.835175 
L 347.611675 48.452633 
L 350.50062 47.075164 
L 353.389566 49.637455 
L 356.278511 50.292797 
L 359.167457 49.427287 
L 362.056402 45.687465 
L 364.945348 45.824167 
L 367.834293 45.700245 
L 370.723239 45.410375 
L 373.612184 46.013681 
L 376.50113 45.516415 
L 379.390075 45.17448 
L 411.168475 45.231423 
L 414.05742 45.485337 
L 416.946366 45.353931 
L 422.724257 45.247752 
L 428.502148 45.607568 
L 431.391093 45.111133 
L 434.280039 46.139681 
L 437.168984 46.77595 
L 440.05793 46.517711 
L 442.946875 46.065578 
L 445.83582 45.802488 
L 448.724766 46.798933 
L 451.613711 46.978411 
L 454.502657 46.509367 
L 460.280548 46.63728 
L 463.169493 45.992057 
L 466.058439 45.928017 
L 468.947384 47.809267 
L 471.83633 47.796653 
L 474.725275 45.749315 
L 477.61422 45.584391 
L 480.503166 45.680562 
L 489.170002 45.498034 
L 492.058948 45.466708 
L 497.836839 46.024437 
L 500.725784 45.837751 
L 503.61473 46.003423 
L 506.503675 45.733762 
L 509.39262 45.738392 
L 512.281566 45.436767 
L 520.948402 45.547215 
L 523.837348 45.301645 
L 526.726293 45.386755 
L 529.615239 45.215233 
L 532.504184 45.239518 
L 535.39313 45.051501 
L 541.17102 45.096828 
L 544.059966 45.124607 
L 546.948911 45.022947 
L 564.282584 44.98103 
L 610.505711 44.949814 
L 804.065057 44.944075 
L 804.065057 44.944075 
" clip-path="url(#pc3c7506cbe)" style="fill: none; stroke: #7f7f7f; stroke-width: 2.5; stroke-linecap: square"/>
   </g>
   <g id="line2d_32"/>
   <g id="line2d_33"/>
   <g id="line2d_34"/>
   <g id="line2d_35"/>
   <g id="line2d_36"/>
   <g id="line2d_37"/>
   <g id="line2d_38"/>
   <g id="line2d_39"/>
   <g id="line2d_40"/>
   <g id="line2d_41"/>
   <g id="line2d_42"/>
   <g id="line2d_43"/>
   <g id="line2d_44"/>
   <g id="line2d_45"/>
   <g id="line2d_46"/>
   <g id="patch_3">
    <path d="M 45.716875 456.1975 
L 45.716875 25.3575 
" style="fill: none; stroke: #000000; stroke-width: 0.8; stroke-linejoin: miter; stroke-linecap: square"/>
   </g>
   <g id="patch_4">
    <path d="M 840.176875 456.1975 
L 840.176875 25.3575 
" style="fill: none; stroke: #000000; stroke-width: 0.8; stroke-linejoin: miter; stroke-linecap: square"/>
   </g>
   <g id="patch_5">
    <path d="M 45.716875 456.1975 
L 840.176875 456.1975 
" style="fill: none; stroke: #000000; stroke-width: 0.8; stroke-linejoin: miter; stroke-linecap: square"/>
   </g>
   <g id="patch_6">
    <path d="M 45.716875 25.3575 
L 840.176875 25.3575 
" style="fill: none; stroke: #000000; stroke-width: 0.8; stroke-linejoin: miter; stroke-linecap: square"/>
   </g>
   <g id="text_14">
    <!-- Median Credence Over Time by Louvain Community -->
    <g transform="translate(234.439375 19.3575) scale(0.16 -0.16)">
     <defs>
      <path id="DejaVuSans-4f" d="M 2522 4238 
Q 1834 4238 1429 3725 
Q 1025 3213 1025 2328 
Q 1025 1447 1429 934 
Q 1834 422 2522 422 
Q 3209 422 3611 934 
Q 4013 1447 4013 2328 
Q 4013 3213 3611 3725 
Q 3209 4238 2522 4238 
z
M 2522 4750 
Q 3503 4750 4090 4092 
Q 4678 3434 4678 2328 
Q 4678 1225 4090 567 
Q 3503 -91 2522 -91 
Q 1538 -91 948 565 
Q 359 1222 359 2328 
Q 359 3434 948 4092 
Q 1538 4750 2522 4750 
z
" transform="scale(0.015625)"/>
      <path id="DejaVuSans-76" d="M 191 3500 
L 800 3500 
L 1894 563 
L 2988 3500 
L 3597 3500 
L 2284 0 
L 1503 0 
L 191 3500 
z
" transform="scale(0.015625)"/>
      <path id="DejaVuSans-54" d="M -19 4666 
L 3928 4666 
L 3928 4134 
L 2272 4134 
L 2272 0 
L 1638 0 
L 1638 4134 
L -19 4134 
L -19 4666 
z
" transform="scale(0.015625)"/>
      <path id="DejaVuSans-6d" d="M 3328 2828 
Q 3544 3216 3844 3400 
Q 4144 3584 4550 3584 
Q 5097 3584 5394 3201 
Q 5691 2819 5691 2113 
L 5691 0 
L 5113 0 
L 5113 2094 
Q 5113 2597 4934 2840 
Q 4756 3084 4391 3084 
Q 3944 3084 3684 2787 
Q 3425 2491 3425 1978 
L 3425 0 
L 2847 0 
L 2847 2094 
Q 2847 2600 2669 2842 
Q 2491 3084 2119 3084 
Q 1678 3084 1418 2786 
Q 1159 2488 1159 1978 
L 1159 0 
L 581 0 
L 581 3500 
L 1159 3500 
L 1159 2956 
Q 1356 3278 1631 3431 
Q 1906 3584 2284 3584 
Q 2666 3584 2933 3390 
Q 3200 3197 3328 2828 
z
" transform="scale(0.015625)"/>
      <path id="DejaVuSans-62" d="M 3116 1747 
Q 3116 2381 2855 2742 
Q 2594 3103 2138 3103 
Q 1681 3103 1420 2742 
Q 1159 2381 1159 1747 
Q 1159 1113 1420 752 
Q 1681 391 2138 391 
Q 2594 391 2855 752 
Q 3116 1113 3116 1747 
z
M 1159 2969 
Q 1341 3281 1617 3432 
Q 1894 3584 2278 3584 
Q 2916 3584 3314 3078 
Q 3713 2572 3713 1747 
Q 3713 922 3314 415 
Q 2916 -91 2278 -91 
Q 1894 -91 1617 61 
Q 1341 213 1159 525 
L 1159 0 
L 581 0 
L 581 4863 
L 1159 4863 
L 1159 2969 
z
" transform="scale(0.015625)"/>
      <path id="DejaVuSans-79" d="M 2059 -325 
Q 1816 -950 1584 -1140 
Q 1353 -1331 966 -1331 
L 506 -1331 
L 506 -850 
L 844 -850 
Q 1081 -850 1212 -737 
Q 1344 -625 1503 -206 
L 1606 56 
L 191 3500 
L 800 3500 
L 1894 763 
L 2988 3500 
L 3597 3500 
L 2059 -325 
z
" transform="scale(0.015625)"/>
      <path id="DejaVuSans-4c" d="M 628 4666 
L 1259 4666 
L 1259 531 
L 3531 531 
L 3531 0 
L 628 0 
L 628 4666 
z
" transform="scale(0.015625)"/>
      <path id="DejaVuSans-75" d="M 544 1381 
L 544 3500 
L 1119 3500 
L 1119 1403 
Q 1119 906 1312 657 
Q 1506 409 1894 409 
Q 2359 409 2629 706 
Q 2900 1003 2900 1516 
L 2900 3500 
L 3475 3500 
L 3475 0 
L 2900 0 
L 2900 538 
Q 2691 219 2414 64 
Q 2138 -91 1772 -91 
Q 1169 -91 856 284 
Q 544 659 544 1381 
z
M 1991 3584 
L 1991 3584 
z
" transform="scale(0.015625)"/>
     </defs>
     <use xlink:href="#DejaVuSans-4d"/>
     <use xlink:href="#DejaVuSans-65" x="86.279297"/>
     <use xlink:href="#DejaVuSans-64" x="147.802734"/>
     <use xlink:href="#DejaVuSans-69" x="211.279297"/>
     <use xlink:href="#DejaVuSans-61" x="239.0625"/>
     <use xlink:href="#DejaVuSans-6e" x="300.341797"/>
     <use xlink:href="#DejaVuSans-20" x="363.720703"/>
     <use xlink:href="#DejaVuSans-43" x="395.507812"/>
     <use xlink:href="#DejaVuSans-72" x="465.332031"/>
     <use xlink:href="#DejaVuSans-65" x="504.195312"/>
     <use xlink:href="#DejaVuSans-64" x="565.71875"/>
     <use xlink:href="#DejaVuSans-65" x="629.195312"/>
     <use xlink:href="#DejaVuSans-6e" x="690.71875"/>
     <use xlink:href="#DejaVuSans-63" x="754.097656"/>
     <use xlink:href="#DejaVuSans-65" x="809.078125"/>
     <use xlink:href="#DejaVuSans-20" x="870.601562"/>
     <use xlink:href="#DejaVuSans-4f" x="902.388672"/>
     <use xlink:href="#DejaVuSans-76" x="981.099609"/>
     <use xlink:href="#DejaVuSans-65" x="1040.279297"/>
     <use xlink:href="#DejaVuSans-72" x="1101.802734"/>
     <use xlink:href="#DejaVuSans-20" x="1142.916016"/>
     <use xlink:href="#DejaVuSans-54" x="1174.703125"/>
     <use xlink:href="#DejaVuSans-69" x="1232.662109"/>
     <use xlink:href="#DejaVuSans-6d" x="1260.445312"/>
     <use xlink:href="#DejaVuSans-65" x="1357.857422"/>
     <use xlink:href="#DejaVuSans-20" x="1419.380859"/>
     <use xlink:href="#DejaVuSans-62" x="1451.167969"/>
     <use xlink:href="#DejaVuSans-79" x="1514.644531"/>
     <use xlink:href="#DejaVuSans-20" x="1573.824219"/>
     <use xlink:href="#DejaVuSans-4c" x="1605.611328"/>
     <use xlink:href="#DejaVuSans-6f" x="1659.574219"/>
     <use xlink:href="#DejaVuSans-75" x="1720.755859"/>
     <use xlink:href="#DejaVuSans-76" x="1784.134766"/>
     <use xlink:href="#DejaVuSans-61" x="1843.314453"/>
     <use xlink:href="#DejaVuSans-69" x="1904.59375"/>
     <use xlink:href="#DejaVuSans-6e" x="1932.376953"/>
     <use xlink:href="#DejaVuSans-20" x="1995.755859"/>
     <use xlink:href="#DejaVuSans-43" x="2027.542969"/>
     <use xlink:href="#DejaVuSans-6f" x="2097.367188"/>
     <use xlink:href="#DejaVuSans-6d" x="2158.548828"/>
     <use xlink:href="#DejaVuSans-6d" x="2255.960938"/>
     <use xlink:href="#DejaVuSans-75" x="2353.373047"/>
     <use xlink:href="#DejaVuSans-6e" x="2416.751953"/>
     <use xlink:href="#DejaVuSans-69" x="2480.130859"/>
     <use xlink:href="#DejaVuSans-74" x="2507.914062"/>
     <use xlink:href="#DejaVuSans-79" x="2547.123047"/>
    </g>
   </g>
   <g id="legend_1">
    <g id="patch_7">
     <path d="M 886.899875 268.2075 
L 990.968625 268.2075 
Q 992.968625 268.2075 992.968625 266.2075 
L 992.968625 32.3575 
Q 992.968625 30.3575 990.968625 30.3575 
L 886.899875 30.3575 
Q 884.899875 30.3575 884.899875 32.3575 
L 884.899875 266.2075 
Q 884.899875 268.2075 886.899875 268.2075 
z
" style="fill: #ffffff; opacity: 0.8; stroke: #cccccc; stroke-linejoin: miter"/>
    </g>
    <g id="text_15">
     <!-- Louvain Community -->
     <g transform="translate(888.899875 41.955938) scale(0.1 -0.1)">
      <use xlink:href="#DejaVuSans-4c"/>
      <use xlink:href="#DejaVuSans-6f" x="53.962891"/>
      <use xlink:href="#DejaVuSans-75" x="115.144531"/>
      <use xlink:href="#DejaVuSans-76" x="178.523438"/>
      <use xlink:href="#DejaVuSans-61" x="237.703125"/>
      <use xlink:href="#DejaVuSans-69" x="298.982422"/>
      <use xlink:href="#DejaVuSans-6e" x="326.765625"/>
      <use xlink:href="#DejaVuSans-20" x="390.144531"/>
      <use xlink:href="#DejaVuSans-43" x="421.931641"/>
      <use xlink:href="#DejaVuSans-6f" x="491.755859"/>
      <use xlink:href="#DejaVuSans-6d" x="552.9375"/>
      <use xlink:href="#DejaVuSans-6d" x="650.349609"/>
      <use xlink:href="#DejaVuSans-75" x="747.761719"/>
      <use xlink:href="#DejaVuSans-6e" x="811.140625"/>
      <use xlink:href="#DejaVuSans-69" x="874.519531"/>
      <use xlink:href="#DejaVuSans-74" x="902.302734"/>
      <use xlink:href="#DejaVuSans-79" x="941.511719"/>
     </g>
    </g>
    <g id="line2d_47">
     <path d="M 918.57175 53.134062 
L 928.57175 53.134062 
L 938.57175 53.134062 
" style="fill: none; stroke: #1f77b4; stroke-width: 2.5; stroke-linecap: square"/>
    </g>
    <g id="text_16">
     <!-- 0 -->
     <g transform="translate(946.57175 56.634062) scale(0.1 -0.1)">
      <use xlink:href="#DejaVuSans-30"/>
     </g>
    </g>
    <g id="line2d_48">
     <path d="M 918.57175 67.812187 
L 928.57175 67.812187 
L 938.57175 67.812187 
" style="fill: none; stroke: #aec7e8; stroke-width: 2.5; stroke-linecap: square"/>
    </g>
    <g id="text_17">
     <!-- 1 -->
     <g transform="translate(946.57175 71.312187) scale(0.1 -0.1)">
      <use xlink:href="#DejaVuSans-31"/>
     </g>
    </g>
    <g id="line2d_49">
     <path d="M 918.57175 82.490313 
L 928.57175 82.490313 
L 938.57175 82.490313 
" style="fill: none; stroke: #ff7f0e; stroke-width: 2.5; stroke-linecap: square"/>
    </g>
    <g id="text_18">
     <!-- 2 -->
     <g transform="translate(946.57175 85.990313) scale(0.1 -0.1)">
      <use xlink:href="#DejaVuSans-32"/>
     </g>
    </g>
    <g id="line2d_50">
     <path d="M 918.57175 97.168437 
L 928.57175 97.168437 
L 938.57175 97.168437 
" style="fill: none; stroke: #ffbb78; stroke-width: 2.5; stroke-linecap: square"/>
    </g>
    <g id="text_19">
     <!-- 3 -->
     <g transform="translate(946.57175 100.668437) scale(0.1 -0.1)">
      <defs>
       <path id="DejaVuSans-33" d="M 2597 2516 
Q 3050 2419 3304 2112 
Q 3559 1806 3559 1356 
Q 3559 666 3084 287 
Q 2609 -91 1734 -91 
Q 1441 -91 1130 -33 
Q 819 25 488 141 
L 488 750 
Q 750 597 1062 519 
Q 1375 441 1716 441 
Q 2309 441 2620 675 
Q 2931 909 2931 1356 
Q 2931 1769 2642 2001 
Q 2353 2234 1838 2234 
L 1294 2234 
L 1294 2753 
L 1863 2753 
Q 2328 2753 2575 2939 
Q 2822 3125 2822 3475 
Q 2822 3834 2567 4026 
Q 2313 4219 1838 4219 
Q 1578 4219 1281 4162 
Q 984 4106 628 3988 
L 628 4550 
Q 988 4650 1302 4700 
Q 1616 4750 1894 4750 
Q 2613 4750 3031 4423 
Q 3450 4097 3450 3541 
Q 3450 3153 3228 2886 
Q 3006 2619 2597 2516 
z
" transform="scale(0.015625)"/>
      </defs>
      <use xlink:href="#DejaVuSans-33"/>
     </g>
    </g>
    <g id="line2d_51">
     <path d="M 918.57175 111.846563 
L 928.57175 111.846563 
L 938.57175 111.846563 
" style="fill: none; stroke: #2ca02c; stroke-width: 2.5; stroke-linecap: square"/>
    </g>
    <g id="text_20">
     <!-- 4 -->
     <g transform="translate(946.57175 115.346563) scale(0.1 -0.1)">
      <use xlink:href="#DejaVuSans-34"/>
     </g>
    </g>
    <g id="line2d_52">
     <path d="M 918.57175 126.524687 
L 928.57175 126.524687 
L 938.57175 126.524687 
" style="fill: none; stroke: #98df8a; stroke-width: 2.5; stroke-linecap: square"/>
    </g>
    <g id="text_21">
     <!-- 5 -->
     <g transform="translate(946.57175 130.024687) scale(0.1 -0.1)">
      <use xlink:href="#DejaVuSans-35"/>
     </g>
    </g>
    <g id="line2d_53">
     <path d="M 918.57175 141.202812 
L 928.57175 141.202812 
L 938.57175 141.202812 
" style="fill: none; stroke: #d62728; stroke-width: 2.5; stroke-linecap: square"/>
    </g>
    <g id="text_22">
     <!-- 6 -->
     <g transform="translate(946.57175 144.702812) scale(0.1 -0.1)">
      <use xlink:href="#DejaVuSans-36"/>
     </g>
    </g>
    <g id="line2d_54">
     <path d="M 918.57175 155.880937 
L 928.57175 155.880937 
L 938.57175 155.880937 
" style="fill: none; stroke: #ff9896; stroke-width: 2.5; stroke-linecap: square"/>
    </g>
    <g id="text_23">
     <!-- 7 -->
     <g transform="translate(946.57175 159.380937) scale(0.1 -0.1)">
      <defs>
       <path id="DejaVuSans-37" d="M 525 4666 
L 3525 4666 
L 3525 4397 
L 1831 0 
L 1172 0 
L 2766 4134 
L 525 4134 
L 525 4666 
z
" transform="scale(0.015625)"/>
      </defs>
      <use xlink:href="#DejaVuSans-37"/>
     </g>
    </g>
    <g id="line2d_55">
     <path d="M 918.57175 170.559062 
L 928.57175 170.559062 
L 938.57175 170.559062 
" style="fill: none; stroke: #9467bd; stroke-width: 2.5; stroke-linecap: square"/>
    </g>
    <g id="text_24">
     <!-- 8 -->
     <g transform="translate(946.57175 174.059062) scale(0.1 -0.1)">
      <use xlink:href="#DejaVuSans-38"/>
     </g>
    </g>
    <g id="line2d_56">
     <path d="M 918.57175 185.237187 
L 928.57175 185.237187 
L 938.57175 185.237187 
" style="fill: none; stroke: #c5b0d5; stroke-width: 2.5; stroke-linecap: square"/>
    </g>
    <g id="text_25">
     <!-- 9 -->
     <g transform="translate(946.57175 188.737187) scale(0.1 -0.1)">
      <defs>
       <path id="DejaVuSans-39" d="M 703 97 
L 703 672 
Q 941 559 1184 500 
Q 1428 441 1663 441 
Q 2288 441 2617 861 
Q 2947 1281 2994 2138 
Q 2813 1869 2534 1725 
Q 2256 1581 1919 1581 
Q 1219 1581 811 2004 
Q 403 2428 403 3163 
Q 403 3881 828 4315 
Q 1253 4750 1959 4750 
Q 2769 4750 3195 4129 
Q 3622 3509 3622 2328 
Q 3622 1225 3098 567 
Q 2575 -91 1691 -91 
Q 1453 -91 1209 -44 
Q 966 3 703 97 
z
M 1959 2075 
Q 2384 2075 2632 2365 
Q 2881 2656 2881 3163 
Q 2881 3666 2632 3958 
Q 2384 4250 1959 4250 
Q 1534 4250 1286 3958 
Q 1038 3666 1038 3163 
Q 1038 2656 1286 2365 
Q 1534 2075 1959 2075 
z
" transform="scale(0.015625)"/>
      </defs>
      <use xlink:href="#DejaVuSans-39"/>
     </g>
    </g>
    <g id="line2d_57">
     <path d="M 918.57175 199.915312 
L 928.57175 199.915312 
L 938.57175 199.915312 
" style="fill: none; stroke: #8c564b; stroke-width: 2.5; stroke-linecap: square"/>
    </g>
    <g id="text_26">
     <!-- 10 -->
     <g transform="translate(946.57175 203.415312) scale(0.1 -0.1)">
      <use xlink:href="#DejaVuSans-31"/>
      <use xlink:href="#DejaVuSans-30" x="63.623047"/>
     </g>
    </g>
    <g id="line2d_58">
     <path d="M 918.57175 214.593437 
L 928.57175 214.593437 
L 938.57175 214.593437 
" style="fill: none; stroke: #c49c94; stroke-width: 2.5; stroke-linecap: square"/>
    </g>
    <g id="text_27">
     <!-- 11 -->
     <g transform="translate(946.57175 218.093437) scale(0.1 -0.1)">
      <use xlink:href="#DejaVuSans-31"/>
      <use xlink:href="#DejaVuSans-31" x="63.623047"/>
     </g>
    </g>
    <g id="line2d_59">
     <path d="M 918.57175 229.271562 
L 928.57175 229.271562 
L 938.57175 229.271562 
" style="fill: none; stroke: #e377c2; stroke-width: 2.5; stroke-linecap: square"/>
    </g>
    <g id="text_28">
     <!-- 12 -->
     <g transform="translate(946.57175 232.771562) scale(0.1 -0.1)">
      <use xlink:href="#DejaVuSans-31"/>
      <use xlink:href="#DejaVuSans-32" x="63.623047"/>
     </g>
    </g>
    <g id="line2d_60">
     <path d="M 918.57175 243.949687 
L 928.57175 243.949687 
L 938.57175 243.949687 
" style="fill: none; stroke: #f7b6d2; stroke-width: 2.5; stroke-linecap: square"/>
    </g>
    <g id="text_29">
     <!-- 13 -->
     <g transform="translate(946.57175 247.449687) scale(0.1 -0.1)">
      <use xlink:href="#DejaVuSans-31"/>
      <use xlink:href="#DejaVuSans-33" x="63.623047"/>
     </g>
    </g>
    <g id="line2d_61">
     <path d="M 918.57175 258.627812 
L 928.57175 258.627812 
L 938.57175 258.627812 
" style="fill: none; stroke: #7f7f7f; stroke-width: 2.5; stroke-linecap: square"/>
    </g>
    <g id="text_30">
     <!-- 14 -->
     <g transform="translate(946.57175 262.127812) scale(0.1 -0.1)">
      <use xlink:href="#DejaVuSans-31"/>
      <use xlink:href="#DejaVuSans-34" x="63.623047"/>
     </g>
    </g>
   </g>
  </g>
 </g>
 <defs>
  <clipPath id="pc3c7506cbe">
   <rect x="45.716875" y="25.3575" width="794.46" height="430.84"/>
  </clipPath>
 </defs>
</svg>
